# Blender v2.91.0 OBJ File: 'aperture.blend'
# www.blender.org
mtllib aperture.mtl
o Circle
v 0.000000 0.000000 0.000000
v 0.000000 0.050000 0.000000
v -0.009755 0.049039 0.000000
v -0.019134 0.046194 0.000000
v -0.027779 0.041573 0.000000
v -0.035355 0.035355 0.000000
v -0.041573 0.027779 0.000000
v -0.046194 0.019134 0.000000
v -0.049039 0.009755 0.000000
v -0.050000 0.000000 0.000000
v -0.049039 -0.009755 -0.000000
v -0.046194 -0.019134 -0.000000
v -0.041573 -0.027779 -0.000000
v -0.035355 -0.035355 -0.000000
v -0.027779 -0.041573 -0.000000
v -0.019134 -0.046194 -0.000000
v -0.009755 -0.049039 -0.000000
v 0.000000 -0.050000 -0.000000
v 0.009755 -0.049039 -0.000000
v 0.019134 -0.046194 -0.000000
v 0.027779 -0.041573 -0.000000
v 0.035355 -0.035355 -0.000000
v 0.041574 -0.027778 -0.000000
v 0.046194 -0.019134 -0.000000
v 0.049039 -0.009754 -0.000000
v 0.050000 0.000000 0.000000
v 0.049039 0.009755 0.000000
v 0.046194 0.019134 0.000000
v 0.041573 0.027779 0.000000
v 0.035355 0.035355 0.000000
v 0.027778 0.041574 0.000000
v 0.019134 0.046194 0.000000
v 0.009754 0.049039 0.000000
vt 0.500000 0.500000
vt 0.500000 1.000000
vt 0.402455 0.990393
vt 0.308658 0.961940
vt 0.222215 0.915735
vt 0.146447 0.853553
vt 0.084265 0.777785
vt 0.038060 0.691342
vt 0.009607 0.597545
vt 0.000000 0.500000
vt 0.009607 0.402455
vt 0.038060 0.308658
vt 0.084265 0.222215
vt 0.146447 0.146447
vt 0.222215 0.084265
vt 0.308658 0.038060
vt 0.402455 0.009607
vt 0.500000 0.000000
vt 0.597545 0.009607
vt 0.691342 0.038060
vt 0.777785 0.084265
vt 0.853554 0.146447
vt 0.915735 0.222215
vt 0.961940 0.308659
vt 0.990393 0.402455
vt 1.000000 0.500000
vt 0.990393 0.597546
vt 0.961940 0.691342
vt 0.915734 0.777786
vt 0.853553 0.853554
vt 0.777785 0.915735
vt 0.691341 0.961940
vt 0.597544 0.990393
vn 0.0000 -0.0000 1.0000
usemtl Material.002
s off
f 1/1/1 2/2/1 3/3/1
f 1/1/1 3/3/1 4/4/1
f 1/1/1 4/4/1 5/5/1
f 1/1/1 5/5/1 6/6/1
f 1/1/1 6/6/1 7/7/1
f 1/1/1 7/7/1 8/8/1
f 1/1/1 8/8/1 9/9/1
f 1/1/1 9/9/1 10/10/1
f 1/1/1 10/10/1 11/11/1
f 1/1/1 11/11/1 12/12/1
f 1/1/1 12/12/1 13/13/1
f 1/1/1 13/13/1 14/14/1
f 1/1/1 14/14/1 15/15/1
f 1/1/1 15/15/1 16/16/1
f 1/1/1 16/16/1 17/17/1
f 1/1/1 17/17/1 18/18/1
f 1/1/1 18/18/1 19/19/1
f 1/1/1 19/19/1 20/20/1
f 1/1/1 20/20/1 21/21/1
f 1/1/1 21/21/1 22/22/1
f 1/1/1 22/22/1 23/23/1
f 1/1/1 23/23/1 24/24/1
f 1/1/1 24/24/1 25/25/1
f 1/1/1 25/25/1 26/26/1
f 1/1/1 26/26/1 27/27/1
f 1/1/1 27/27/1 28/28/1
f 1/1/1 28/28/1 29/29/1
f 1/1/1 29/29/1 30/30/1
f 1/1/1 30/30/1 31/31/1
f 1/1/1 31/31/1 32/32/1
f 1/1/1 32/32/1 33/33/1
f 1/1/1 33/33/1 2/2/1
o Plane
v -1.000000 -1.000000 -0.000000
v 1.000000 -1.000000 -0.000000
v -1.000000 1.000000 0.000000
v 1.000000 1.000000 0.000000
v 0.000000 0.050000 0.000000
v 0.009754 0.049039 0.000000
v 0.019134 0.046194 0.000000
v 0.027778 0.041574 0.000000
v 0.035355 0.035356 0.000000
v 0.041574 0.027779 0.000000
v 0.046194 0.019134 0.000000
v 0.049039 0.009755 0.000000
v 0.050000 0.000000 0.000000
v 0.049039 -0.009755 -0.000000
v 0.046194 -0.019134 -0.000000
v 0.041573 -0.027778 -0.000000
v 0.035355 -0.035355 -0.000000
v 0.027779 -0.041574 -0.000000
v 0.019134 -0.046194 -0.000000
v 0.009755 -0.049039 -0.000000
v 0.000000 -0.049999 -0.000000
v -0.009755 -0.049039 -0.000000
v -0.019134 -0.046194 -0.000000
v -0.027778 -0.041573 -0.000000
v -0.035355 -0.035355 -0.000000
v -0.041573 -0.027778 -0.000000
v -0.046194 -0.019134 -0.000000
v -0.049039 -0.009755 -0.000000
v -0.050000 0.000000 0.000000
v -0.049039 0.009754 0.000000
v -0.046194 0.019135 0.000000
v -0.041573 0.027778 0.000000
v -0.035355 0.035355 0.000000
v -0.027778 0.041574 0.000000
v -0.019134 0.046194 0.000000
v -0.009755 0.049039 0.000000
vt 0.000000 0.000000
vt 1.000000 0.000000
vt 1.000000 1.000000
vt 0.525000 0.500000
vt 0.524520 0.495123
vt 0.523097 0.490433
vt 0.520787 0.486111
vt 0.517678 0.482322
vt 0.513889 0.479213
vt 0.509567 0.476903
vt 0.504877 0.475480
vt 0.500000 0.475000
vt 0.495123 0.475480
vt 0.490433 0.476903
vt 0.486111 0.479213
vt 0.482322 0.482322
vt 0.479213 0.486111
vt 0.476903 0.490433
vt 0.475480 0.495123
vt 0.475000 0.500000
vt 0.000000 1.000000
vt 0.475480 0.504877
vt 0.476903 0.509567
vt 0.479213 0.513889
vt 0.482322 0.517678
vt 0.486111 0.520787
vt 0.490433 0.523097
vt 0.495123 0.524520
vt 0.500000 0.525000
vt 0.504877 0.524520
vt 0.509567 0.523097
vt 0.513889 0.520787
vt 0.517678 0.517678
vt 0.520787 0.513889
vt 0.523097 0.509567
vt 0.524520 0.504877
vn 0.0000 -0.0000 1.0000
usemtl None
s off
f 34/34/2 35/35/2 37/36/2 46/37/2 47/38/2 48/39/2 49/40/2 50/41/2 51/42/2 52/43/2 53/44/2 54/45/2 55/46/2 56/47/2 57/48/2 58/49/2 59/50/2 60/51/2 61/52/2 62/53/2 36/54/2
f 36/54/2 62/53/2 63/55/2 64/56/2 65/57/2 66/58/2 67/59/2 68/60/2 69/61/2 38/62/2 39/63/2 40/64/2 41/65/2 42/66/2 43/67/2 44/68/2 45/69/2 46/37/2 37/36/2
