# Blender v2.91.0 OBJ File: 'dof.blend'
# www.blender.org
mtllib dof.mtl
o Light.001_Cube.010
v 5.250000 5.022597 -11.053654
v 5.000000 5.332232 -11.129078
v 5.250000 4.864115 -11.393519
v 5.000000 5.120923 -11.582232
v 6.750000 5.022597 -11.053654
v 7.000000 5.332232 -11.129078
v 6.750000 4.864115 -11.393519
v 7.000000 5.120923 -11.582232
v 5.000000 4.667768 -11.370922
v 5.000000 4.879077 -10.917768
v 7.000000 4.667768 -11.370922
v 7.000000 4.879077 -10.917768
v 5.000000 4.667768 -11.370922
v 5.000000 4.879077 -10.917768
v 7.000000 4.667768 -11.370922
v 7.000000 4.879077 -10.917768
vt 0.375000 0.000000
vt 0.625000 0.000000
vt 0.625000 0.250000
vt 0.375000 0.250000
vt 0.625000 0.500000
vt 0.375000 0.500000
vt 0.625000 0.750000
vt 0.375000 0.750000
vt 0.625000 1.000000
vt 0.375000 1.000000
vt 0.156250 0.531250
vt 0.343750 0.531250
vt 0.343750 0.718750
vt 0.156250 0.718750
vt 0.875000 0.500000
vt 0.875000 0.750000
vt 0.125000 0.500000
vt 0.125000 0.750000
vt 0.125000 0.750000
vt 0.125000 0.500000
vt 0.375000 0.500000
vt 0.375000 0.750000
vn -1.0000 0.0000 0.0000
vn 0.0000 -0.4226 -0.9063
vn 1.0000 0.0000 0.0000
vn 0.0000 0.4226 0.9063
vn 0.0000 -0.9063 0.4226
vn 0.0000 0.9063 -0.4226
vn 0.0000 0.0000 1.0000
vn 0.6000 -0.7250 0.3381
vn 0.0000 0.1143 0.9934
vn -0.6000 -0.7250 0.3381
vn 0.0000 -0.6875 -0.7262
usemtl None
s off
f 10/1/1 2/2/1 4/3/1 9/4/1
f 9/4/2 4/3/2 8/5/2 11/6/2
f 11/6/3 8/5/3 6/7/3 12/8/3
f 12/8/4 6/7/4 2/9/4 10/10/4
f 3/11/5 7/12/5 5/13/5 1/14/5
f 8/5/6 4/15/6 2/16/6 6/7/6
f 13/17/7 14/18/7 10/19/7 9/20/7
f 15/21/7 13/17/7 9/20/7 11/6/7
f 16/22/7 15/21/7 11/6/7 12/8/7
f 14/18/7 16/22/7 12/8/7 10/19/7
f 3/11/8 1/14/8 14/18/8 13/17/8
f 7/12/9 3/11/9 13/17/9 15/21/9
f 5/13/10 7/12/10 15/21/10 16/22/10
f 1/14/11 5/13/11 16/22/11 14/18/11
o Light.002_Cube.011
v -6.750000 5.022597 8.946346
v -7.000000 5.332232 8.870922
v -6.750000 4.864115 8.606481
v -7.000000 5.120923 8.417768
v -5.250000 5.022597 8.946346
v -5.000000 5.332232 8.870922
v -5.250000 4.864115 8.606481
v -5.000000 5.120923 8.417768
v -7.000000 4.667768 8.629078
v -7.000000 4.879077 9.082232
v -5.000000 4.667768 8.629078
v -5.000000 4.879077 9.082232
v -7.000000 4.667768 8.629078
v -7.000000 4.879077 9.082232
v -5.000000 4.667768 8.629078
v -5.000000 4.879077 9.082232
vt 0.375000 0.000000
vt 0.625000 0.000000
vt 0.625000 0.250000
vt 0.375000 0.250000
vt 0.625000 0.500000
vt 0.375000 0.500000
vt 0.625000 0.750000
vt 0.375000 0.750000
vt 0.625000 1.000000
vt 0.375000 1.000000
vt 0.156250 0.531250
vt 0.343750 0.531250
vt 0.343750 0.718750
vt 0.156250 0.718750
vt 0.875000 0.500000
vt 0.875000 0.750000
vt 0.125000 0.500000
vt 0.125000 0.750000
vt 0.125000 0.750000
vt 0.125000 0.500000
vt 0.375000 0.500000
vt 0.375000 0.750000
vn -1.0000 0.0000 0.0000
vn 0.0000 -0.4226 -0.9063
vn 1.0000 0.0000 0.0000
vn 0.0000 0.4226 0.9063
vn 0.0000 -0.9063 0.4226
vn 0.0000 0.9063 -0.4226
vn 0.0000 0.0000 1.0000
vn 0.6000 -0.7250 0.3381
vn 0.0000 0.1143 0.9934
vn -0.6000 -0.7250 0.3381
vn 0.0000 -0.6875 -0.7262
usemtl None
s off
f 26/23/12 18/24/12 20/25/12 25/26/12
f 25/26/13 20/25/13 24/27/13 27/28/13
f 27/28/14 24/27/14 22/29/14 28/30/14
f 28/30/15 22/29/15 18/31/15 26/32/15
f 19/33/16 23/34/16 21/35/16 17/36/16
f 24/27/17 20/37/17 18/38/17 22/29/17
f 29/39/18 30/40/18 26/41/18 25/42/18
f 31/43/18 29/39/18 25/42/18 27/28/18
f 32/44/18 31/43/18 27/28/18 28/30/18
f 30/40/18 32/44/18 28/30/18 26/41/18
f 19/33/19 17/36/19 30/40/19 29/39/19
f 23/34/20 19/33/20 29/39/20 31/43/20
f 21/35/21 23/34/21 31/43/21 32/44/21
f 17/36/22 21/35/22 32/44/22 30/40/22
o Light.008_Cube.017
v 5.990000 4.875078 -11.180714
v 5.990000 4.866625 -11.198840
v 5.990000 4.947582 -11.214523
v 6.010000 4.875078 -11.180714
v 6.010000 4.866625 -11.198840
v 6.010000 4.947582 -11.214523
v 6.010000 4.939130 -11.232650
v 5.990000 4.939130 -11.232650
vt 0.125000 0.500000
vt 0.375000 0.500000
vt 0.375000 0.750000
vt 0.125000 0.750000
vt 0.375000 0.000000
vt 0.625000 0.000000
vt 0.625000 0.250000
vt 0.375000 0.250000
vt 0.625000 0.750000
vt 0.625000 1.000000
vt 0.375000 1.000000
vt 0.625000 0.500000
vt 0.875000 0.500000
vt 0.875000 0.750000
vn 0.0000 -0.9063 0.4226
vn -1.0000 0.0000 0.0000
vn 0.0000 0.4226 0.9063
vn 1.0000 0.0000 0.0000
vn 0.0000 0.9063 -0.4226
vn 0.0000 -0.4226 -0.9063
usemtl None
s off
f 34/45/23 37/46/23 36/47/23 33/48/23
f 33/49/24 35/50/24 40/51/24 34/52/24
f 36/47/25 38/53/25 35/54/25 33/55/25
f 37/46/26 39/56/26 38/53/26 36/47/26
f 39/56/27 40/57/27 35/58/27 38/53/27
f 34/52/28 40/51/28 39/56/28 37/46/28
o Light.010_Cube.019
v 5.990000 4.875078 -11.180714
v 5.990000 4.866625 -11.198840
v 5.990000 4.947582 -11.214523
v 6.010000 4.875078 -11.180714
v 6.010000 4.866625 -11.198840
v 6.010000 4.947582 -11.214523
v 6.010000 4.939130 -11.232650
v 5.990000 4.939130 -11.232650
vt 0.125000 0.500000
vt 0.375000 0.500000
vt 0.375000 0.750000
vt 0.125000 0.750000
vt 0.375000 0.000000
vt 0.625000 0.000000
vt 0.625000 0.250000
vt 0.375000 0.250000
vt 0.625000 0.750000
vt 0.625000 1.000000
vt 0.375000 1.000000
vt 0.625000 0.500000
vt 0.875000 0.500000
vt 0.875000 0.750000
vn 0.0000 -0.9063 0.4226
vn -1.0000 0.0000 0.0000
vn 0.0000 0.4226 0.9063
vn 1.0000 0.0000 0.0000
vn 0.0000 0.9063 -0.4226
vn 0.0000 -0.4226 -0.9063
usemtl None
s off
f 42/59/29 45/60/29 44/61/29 41/62/29
f 41/63/30 43/64/30 48/65/30 42/66/30
f 44/61/31 46/67/31 43/68/31 41/69/31
f 45/60/32 47/70/32 46/67/32 44/61/32
f 47/70/33 48/71/33 43/72/33 46/67/33
f 42/66/34 48/65/34 47/70/34 45/60/34
o Light.011_Cube.020
v 5.250000 5.022597 -11.053654
v 5.250000 4.864115 -11.393518
v 6.750000 5.022597 -11.053654
v 5.000000 4.879078 -10.917768
v 5.000000 4.667768 -11.370922
v 7.000000 4.879078 -10.917768
v 5.000000 4.879078 -10.917768
v 5.000000 4.667768 -11.370922
v 5.000000 5.332232 -11.129078
v 7.000000 4.879078 -10.917768
v 7.000000 4.667768 -11.370922
v 7.000000 5.332232 -11.129078
v 7.000000 5.120923 -11.582232
v 5.000000 5.120923 -11.582232
v 7.000000 4.667768 -11.370922
v 6.750000 4.864115 -11.393518
vt 0.156250 0.531250
vt 0.156250 0.718750
vt 0.125000 0.750000
vt 0.125000 0.500000
vt 0.343750 0.531250
vt 0.343750 0.718750
vt 0.375000 0.750000
vt 0.125000 0.750000
vt 0.125000 0.500000
vt 0.375000 0.750000
vt 0.375000 0.000000
vt 0.625000 0.000000
vt 0.625000 0.250000
vt 0.375000 0.250000
vt 0.625000 0.750000
vt 0.625000 1.000000
vt 0.375000 1.000000
vt 0.375000 0.500000
vt 0.375000 0.500000
vt 0.625000 0.500000
vt 0.875000 0.500000
vt 0.875000 0.750000
vn 0.6000 -0.7250 0.3381
vn 0.0000 -0.9063 0.4226
vn 0.0000 -0.6875 -0.7262
vn 0.0000 0.0000 1.0000
vn -1.0000 0.0000 0.0000
vn 0.0000 0.4226 0.9063
vn 1.0000 0.0000 0.0000
vn 0.0000 0.9063 -0.4226
vn 0.0000 -0.4226 -0.9063
vn 0.0000 0.1143 0.9934
vn -0.6000 -0.7250 0.3381
usemtl None
s off
f 50/73/35 49/74/35 52/75/35 53/76/35
f 50/73/36 64/77/36 51/78/36 49/74/36
f 49/74/37 51/78/37 54/79/37 52/75/37
f 53/76/38 52/75/38 55/80/38 56/81/38
f 52/75/38 54/79/38 58/82/38 55/80/38
f 55/83/39 57/84/39 62/85/39 56/86/39
f 58/82/40 60/87/40 57/88/40 55/89/40
f 54/79/38 63/90/38 59/91/38 58/82/38
f 59/91/41 61/92/41 60/87/41 58/82/41
f 61/92/42 62/93/42 57/94/42 60/87/42
f 56/86/43 62/85/43 61/92/43 59/91/43
f 63/90/38 53/76/38 56/81/38 59/91/38
f 64/77/44 50/73/44 53/76/44 63/90/44
f 51/78/45 64/77/45 63/90/45 54/79/45
o Light.012_Cube.021
v 5.250000 4.807458 -11.325723
v 5.250000 4.934244 -11.053830
v 6.750000 4.807458 -11.325723
v 6.750000 4.934244 -11.053830
vt 0.000000 0.000000
vt 1.000000 0.000000
vt 1.000000 1.000000
vt 0.000000 1.000000
vn 0.0000 -0.9063 0.4226
usemtl Material.001
s off
f 65/95/46 67/96/46 68/97/46 66/98/46
o Light.013_Cube.022
v -6.010000 4.875078 8.819286
v -6.010000 4.866625 8.801160
v -6.010000 4.947582 8.785477
v -5.990000 4.875078 8.819286
v -5.990000 4.866625 8.801160
v -5.990000 4.947582 8.785477
v -5.990000 4.939130 8.767350
v -6.010000 4.939130 8.767350
vt 0.125000 0.500000
vt 0.375000 0.500000
vt 0.375000 0.750000
vt 0.125000 0.750000
vt 0.375000 0.000000
vt 0.625000 0.000000
vt 0.625000 0.250000
vt 0.375000 0.250000
vt 0.625000 0.750000
vt 0.625000 1.000000
vt 0.375000 1.000000
vt 0.625000 0.500000
vt 0.875000 0.500000
vt 0.875000 0.750000
vn 0.0000 -0.9063 0.4226
vn -1.0000 0.0000 0.0000
vn 0.0000 0.4226 0.9063
vn 1.0000 0.0000 0.0000
vn 0.0000 0.9063 -0.4226
vn 0.0000 -0.4226 -0.9063
usemtl None
s off
f 70/99/47 73/100/47 72/101/47 69/102/47
f 69/103/48 71/104/48 76/105/48 70/106/48
f 72/101/49 74/107/49 71/108/49 69/109/49
f 73/100/50 75/110/50 74/107/50 72/101/50
f 75/110/51 76/111/51 71/112/51 74/107/51
f 70/106/52 76/105/52 75/110/52 73/100/52
o Light.014_Cube.023
v -6.750000 4.807458 8.674277
v -6.750000 4.934244 8.946170
v -5.250000 4.807458 8.674277
v -5.250000 4.934244 8.946170
vt 0.000000 0.000000
vt 1.000000 0.000000
vt 1.000000 1.000000
vt 0.000000 1.000000
vn 0.0000 -0.9063 0.4226
usemtl Material.001
s off
f 77/113/53 79/114/53 80/115/53 78/116/53
o Light.015_Cube.024
v -6.010000 4.875078 8.819286
v -6.010000 4.866625 8.801160
v -6.010000 4.947582 8.785477
v -5.990000 4.875078 8.819286
v -5.990000 4.866625 8.801160
v -5.990000 4.947582 8.785477
v -5.990000 4.939130 8.767350
v -6.010000 4.939130 8.767350
vt 0.125000 0.500000
vt 0.375000 0.500000
vt 0.375000 0.750000
vt 0.125000 0.750000
vt 0.375000 0.000000
vt 0.625000 0.000000
vt 0.625000 0.250000
vt 0.375000 0.250000
vt 0.625000 0.750000
vt 0.625000 1.000000
vt 0.375000 1.000000
vt 0.625000 0.500000
vt 0.875000 0.500000
vt 0.875000 0.750000
vn 0.0000 -0.9063 0.4226
vn -1.0000 0.0000 0.0000
vn 0.0000 0.4226 0.9063
vn 1.0000 0.0000 0.0000
vn 0.0000 0.9063 -0.4226
vn 0.0000 -0.4226 -0.9063
usemtl None
s off
f 82/117/54 85/118/54 84/119/54 81/120/54
f 81/121/55 83/122/55 88/123/55 82/124/55
f 84/119/56 86/125/56 83/126/56 81/127/56
f 85/118/57 87/128/57 86/125/57 84/119/57
f 87/128/58 88/129/58 83/130/58 86/125/58
f 82/124/59 88/123/59 87/128/59 85/118/59
o Light.016_Cube.025
v -6.750000 5.022597 8.946346
v -6.750000 4.864115 8.606482
v -5.250000 5.022597 8.946346
v -7.000000 4.879078 9.082232
v -7.000000 4.667768 8.629078
v -5.000000 4.879078 9.082232
v -7.000000 4.879078 9.082232
v -7.000000 4.667768 8.629078
v -7.000000 5.332232 8.870922
v -5.000000 4.879078 9.082232
v -5.000000 4.667768 8.629078
v -5.000000 5.332232 8.870922
v -5.000000 5.120923 8.417768
v -7.000000 5.120923 8.417768
v -5.000000 4.667768 8.629078
v -5.250000 4.864115 8.606482
vt 0.156250 0.531250
vt 0.156250 0.718750
vt 0.125000 0.750000
vt 0.125000 0.500000
vt 0.343750 0.531250
vt 0.343750 0.718750
vt 0.375000 0.750000
vt 0.125000 0.750000
vt 0.125000 0.500000
vt 0.375000 0.750000
vt 0.375000 0.000000
vt 0.625000 0.000000
vt 0.625000 0.250000
vt 0.375000 0.250000
vt 0.625000 0.750000
vt 0.625000 1.000000
vt 0.375000 1.000000
vt 0.375000 0.500000
vt 0.375000 0.500000
vt 0.625000 0.500000
vt 0.875000 0.500000
vt 0.875000 0.750000
vn 0.6000 -0.7250 0.3381
vn 0.0000 -0.9063 0.4226
vn 0.0000 -0.6875 -0.7262
vn 0.0000 0.0000 1.0000
vn -1.0000 0.0000 0.0000
vn 0.0000 0.4226 0.9063
vn 1.0000 0.0000 0.0000
vn 0.0000 0.9063 -0.4226
vn 0.0000 -0.4226 -0.9063
vn 0.0000 0.1143 0.9934
vn -0.6000 -0.7250 0.3381
usemtl None
s off
f 90/131/60 89/132/60 92/133/60 93/134/60
f 90/131/61 104/135/61 91/136/61 89/132/61
f 89/132/62 91/136/62 94/137/62 92/133/62
f 93/134/63 92/133/63 95/138/63 96/139/63
f 92/133/63 94/137/63 98/140/63 95/138/63
f 95/141/64 97/142/64 102/143/64 96/144/64
f 98/140/65 100/145/65 97/146/65 95/147/65
f 94/137/63 103/148/63 99/149/63 98/140/63
f 99/149/66 101/150/66 100/145/66 98/140/66
f 101/150/67 102/151/67 97/152/67 100/145/67
f 96/144/68 102/143/68 101/150/68 99/149/68
f 103/148/63 93/134/63 96/139/63 99/149/63
f 104/135/69 90/131/69 93/134/69 103/148/69
f 91/136/70 104/135/70 103/148/70 94/137/70
o Light.017_Cube.026
v -6.750000 4.807458 8.674277
v -6.750000 4.934244 8.946170
v -5.250000 4.807458 8.674277
v -5.250000 4.934244 8.946170
vt 0.000000 0.000000
vt 1.000000 0.000000
vt 1.000000 1.000000
vt 0.000000 1.000000
vn 0.0000 -0.9063 0.4226
usemtl None
s off
f 105/153/71 107/154/71 108/155/71 106/156/71
o Plane.001_Plane.003
v 15.000001 0.000000 20.000000
v 15.000003 15.000000 20.000000
v 15.000001 0.000000 -20.000000
v 15.000003 15.000000 -20.000000
vt 0.000000 0.000000
vt 1.000000 0.000000
vt 1.000000 1.000000
vt 0.000000 1.000000
vn -1.0000 0.0000 0.0000
usemtl None
s off
f 109/157/72 110/158/72 112/159/72 111/160/72
o Plane.002_Plane.004
v -14.999999 15.000000 20.000000
v -14.999999 0.000000 20.000000
v -14.999999 15.000000 -20.000000
v -14.999999 0.000000 -20.000000
vt 0.000000 0.000000
vt 1.000000 0.000000
vt 1.000000 1.000000
vt 0.000000 1.000000
vn 1.0000 0.0000 0.0000
usemtl None
s off
f 113/161/73 114/162/73 116/163/73 115/164/73
o Plane.003_Plane.005
v -14.999999 15.000000 20.000000
v 15.000001 15.000000 20.000000
v -14.999999 0.000000 20.000000
v 15.000001 0.000000 20.000000
vt 0.000000 0.000000
vt 1.000000 0.000000
vt 1.000000 1.000000
vt 0.000000 1.000000
vn 0.0000 0.0000 -1.0000
usemtl None
s off
f 117/165/74 118/166/74 120/167/74 119/168/74
o Plane.004_Plane.006
v -14.999999 14.999997 -20.000000
v 15.000001 14.999997 -20.000000
v -14.999999 15.000003 20.000000
v 15.000001 15.000003 20.000000
v -5.000000 14.999999 -5.000000
v 5.000000 14.999999 -5.000001
v 5.000000 15.000001 5.000005
v -5.000000 15.000001 5.000004
vt 0.000000 0.000000
vt 1.000000 0.000000
vt 1.000000 1.000000
vt 0.666667 0.625000
vt 0.666667 0.375000
vt 0.333333 0.375000
vt 0.333333 0.625000
vt 0.000000 1.000000
vn 0.0000 -1.0000 0.0000
usemtl None
s off
f 121/169/75 122/170/75 124/171/75 127/172/75 126/173/75 125/174/75
f 128/175/75 127/172/75 124/171/75 123/176/75 121/169/75 125/174/75
o Plane.005_Plane.008
v -5.000000 14.999999 -4.999995
v 5.000000 14.999999 -4.999995
v -5.000000 15.000001 5.000005
v 5.000000 15.000001 5.000005
vt 0.000000 0.000000
vt 1.000000 0.000000
vt 1.000000 1.000000
vt 0.000000 1.000000
vn 0.0000 -1.0000 0.0000
usemtl Material.003
s off
f 129/177/76 130/178/76 132/179/76 131/180/76
o Plane.006_Plane.001
v 8.000000 0.500000 -10.500000
v 4.000000 0.500000 -10.500000
v 8.000000 4.500000 -10.500000
v 4.000000 4.500000 -10.500000
vt 0.000000 0.000000
vt 1.000000 0.000000
vt 1.000000 1.000000
vt 0.000000 1.000000
vn -0.0000 0.0000 -1.0000
usemtl Material.002
s off
f 133/181/77 134/182/77 136/183/77 135/184/77
o Plane
v -14.999999 0.000000 20.000000
v 15.000001 0.000000 20.000000
v -14.999999 0.000000 -20.000000
v 15.000001 0.000000 -20.000000
vt 0.000000 0.000000
vt 1.000000 0.000000
vt 1.000000 1.000000
vt 0.000000 1.000000
vn 0.0000 1.0000 0.0000
usemtl None
s off
f 137/185/78 138/186/78 140/187/78 139/188/78
o Cube_Cube.001
v -8.000000 0.500000 10.500000
v -8.000000 4.500000 10.500000
v -8.000000 0.500000 9.500000
v -8.000000 4.500000 9.500000
v -4.000000 0.500000 10.500000
v -4.000000 4.500000 10.500000
v -4.000000 0.500000 9.500000
v -4.000000 4.500000 9.500000
vt 0.375000 0.000000
vt 0.625000 0.000000
vt 0.625000 0.250000
vt 0.375000 0.250000
vt 0.625000 0.500000
vt 0.375000 0.500000
vt 0.625000 0.750000
vt 0.375000 0.750000
vt 0.625000 1.000000
vt 0.375000 1.000000
vt 0.125000 0.500000
vt 0.125000 0.750000
vt 0.875000 0.500000
vt 0.875000 0.750000
vn -1.0000 0.0000 0.0000
vn 0.0000 0.0000 -1.0000
vn 1.0000 0.0000 0.0000
vn 0.0000 0.0000 1.0000
vn 0.0000 -1.0000 0.0000
vn 0.0000 1.0000 0.0000
usemtl None
s off
f 141/189/79 142/190/79 144/191/79 143/192/79
f 143/192/80 144/191/80 148/193/80 147/194/80
f 147/194/81 148/193/81 146/195/81 145/196/81
f 145/196/82 146/195/82 142/197/82 141/198/82
f 143/199/83 147/194/83 145/196/83 141/200/83
f 148/193/84 144/201/84 142/202/84 146/195/84
o Cube.001_Cube.002
v 4.000000 0.500000 -9.500000
v 4.000000 4.500000 -9.500000
v 4.000000 0.500000 -10.500000
v 4.000000 4.500000 -10.500000
v 8.000000 0.500000 -9.500000
v 8.000000 4.500000 -9.500000
v 8.000000 0.500000 -10.500000
v 8.000000 4.500000 -10.500000
vt 0.375000 0.000000
vt 0.625000 0.000000
vt 0.625000 0.250000
vt 0.375000 0.250000
vt 0.375000 0.500000
vt 0.625000 0.500000
vt 0.625000 0.750000
vt 0.375000 0.750000
vt 0.625000 1.000000
vt 0.375000 1.000000
vt 0.125000 0.500000
vt 0.125000 0.750000
vt 0.875000 0.500000
vt 0.875000 0.750000
vn -1.0000 0.0000 0.0000
vn 1.0000 0.0000 0.0000
vn 0.0000 0.0000 1.0000
vn 0.0000 -1.0000 0.0000
vn 0.0000 1.0000 0.0000
usemtl None
s off
f 149/203/85 150/204/85 152/205/85 151/206/85
f 155/207/86 156/208/86 154/209/86 153/210/86
f 153/210/87 154/209/87 150/211/87 149/212/87
f 151/213/88 155/207/88 153/210/88 149/214/88
f 156/208/89 152/215/89 150/216/89 154/209/89
o Cube.002_Cube.003
v -2.000000 0.500000 0.500000
v -2.000000 4.500000 0.500000
v -2.000000 0.500000 -0.500000
v -2.000000 4.500000 -0.500000
v 2.000000 0.500000 0.500000
v 2.000000 4.500000 0.500000
v 2.000000 0.500000 -0.500000
v 2.000000 4.500000 -0.500000
vt 0.375000 0.000000
vt 0.625000 0.000000
vt 0.625000 0.250000
vt 0.375000 0.250000
vt 0.625000 0.500000
vt 0.375000 0.500000
vt 0.625000 0.750000
vt 0.375000 0.750000
vt 0.625000 1.000000
vt 0.375000 1.000000
vt 0.125000 0.500000
vt 0.125000 0.750000
vt 0.875000 0.500000
vt 0.875000 0.750000
vn -1.0000 0.0000 0.0000
vn 0.0000 0.0000 -1.0000
vn 1.0000 0.0000 0.0000
vn 0.0000 0.0000 1.0000
vn 0.0000 -1.0000 0.0000
vn 0.0000 1.0000 0.0000
usemtl None
s off
f 157/217/90 158/218/90 160/219/90 159/220/90
f 159/220/91 160/219/91 164/221/91 163/222/91
f 163/222/92 164/221/92 162/223/92 161/224/92
f 161/224/93 162/223/93 158/225/93 157/226/93
f 159/227/94 163/222/94 161/224/94 157/228/94
f 164/221/95 160/229/95 158/230/95 162/223/95
o Light_Cube.005
v -0.750000 5.022597 -1.053654
v -1.000000 5.332232 -1.129078
v -0.750000 4.864115 -1.393519
v -1.000000 5.120923 -1.582232
v 0.750000 5.022597 -1.053654
v 1.000000 5.332232 -1.129078
v 0.750000 4.864115 -1.393519
v 1.000000 5.120923 -1.582232
v -1.000000 4.667768 -1.370922
v -1.000000 4.879077 -0.917768
v 1.000000 4.667768 -1.370922
v 1.000000 4.879077 -0.917768
v -1.000000 4.667768 -1.370922
v -1.000000 4.879077 -0.917768
v 1.000000 4.667768 -1.370922
v 1.000000 4.879077 -0.917768
vt 0.375000 0.000000
vt 0.625000 0.000000
vt 0.625000 0.250000
vt 0.375000 0.250000
vt 0.625000 0.500000
vt 0.375000 0.500000
vt 0.625000 0.750000
vt 0.375000 0.750000
vt 0.625000 1.000000
vt 0.375000 1.000000
vt 0.156250 0.531250
vt 0.343750 0.531250
vt 0.343750 0.718750
vt 0.156250 0.718750
vt 0.875000 0.500000
vt 0.875000 0.750000
vt 0.125000 0.500000
vt 0.125000 0.750000
vt 0.125000 0.750000
vt 0.125000 0.500000
vt 0.375000 0.500000
vt 0.375000 0.750000
vn -1.0000 0.0000 0.0000
vn 0.0000 -0.4226 -0.9063
vn 1.0000 0.0000 0.0000
vn 0.0000 0.4226 0.9063
vn 0.0000 -0.9063 0.4226
vn 0.0000 0.9063 -0.4226
vn 0.0000 0.0000 1.0000
vn 0.6000 -0.7250 0.3381
vn 0.0000 0.1143 0.9934
vn -0.6000 -0.7250 0.3381
vn 0.0000 -0.6875 -0.7262
usemtl None
s off
f 174/231/96 166/232/96 168/233/96 173/234/96
f 173/234/97 168/233/97 172/235/97 175/236/97
f 175/236/98 172/235/98 170/237/98 176/238/98
f 176/238/99 170/237/99 166/239/99 174/240/99
f 167/241/100 171/242/100 169/243/100 165/244/100
f 172/235/101 168/245/101 166/246/101 170/237/101
f 177/247/102 178/248/102 174/249/102 173/250/102
f 179/251/102 177/247/102 173/250/102 175/236/102
f 180/252/102 179/251/102 175/236/102 176/238/102
f 178/248/102 180/252/102 176/238/102 174/249/102
f 167/241/103 165/244/103 178/248/103 177/247/103
f 171/242/104 167/241/104 177/247/104 179/251/104
f 169/243/105 171/242/105 179/251/105 180/252/105
f 165/244/106 169/243/106 180/252/106 178/248/106
o Light.003_Cube.012
v -0.010000 4.875078 -1.180714
v -0.010000 4.866625 -1.198840
v -0.010000 4.947582 -1.214523
v 0.010000 4.875078 -1.180714
v 0.010000 4.866625 -1.198840
v 0.010000 4.947582 -1.214523
v 0.010000 4.939130 -1.232649
v -0.010000 4.939130 -1.232649
vt 0.125000 0.500000
vt 0.375000 0.500000
vt 0.375000 0.750000
vt 0.125000 0.750000
vt 0.375000 0.000000
vt 0.625000 0.000000
vt 0.625000 0.250000
vt 0.375000 0.250000
vt 0.625000 0.750000
vt 0.625000 1.000000
vt 0.375000 1.000000
vt 0.625000 0.500000
vt 0.875000 0.500000
vt 0.875000 0.750000
vn 0.0000 -0.9063 0.4226
vn -1.0000 0.0000 0.0000
vn 0.0000 0.4226 0.9063
vn 1.0000 0.0000 0.0000
vn 0.0000 0.9063 -0.4226
vn 0.0000 -0.4226 -0.9063
usemtl None
s off
f 182/253/107 185/254/107 184/255/107 181/256/107
f 181/257/108 183/258/108 188/259/108 182/260/108
f 184/255/109 186/261/109 183/262/109 181/263/109
f 185/254/110 187/264/110 186/261/110 184/255/110
f 187/264/111 188/265/111 183/266/111 186/261/111
f 182/260/112 188/259/112 187/264/112 185/254/112
o Light.004_Cube.013
v -0.750000 4.807458 -1.325723
v -0.750000 4.934244 -1.053831
v 0.750000 4.807458 -1.325723
v 0.750000 4.934244 -1.053831
vt 0.000000 0.000000
vt 1.000000 0.000000
vt 1.000000 1.000000
vt 0.000000 1.000000
vn 0.0000 -0.9063 0.4226
usemtl Material.001
s off
f 189/267/113 191/268/113 192/269/113 190/270/113
o Light.005_Cube.014
v -0.010000 4.875078 -1.180714
v -0.010000 4.866625 -1.198840
v -0.010000 4.947582 -1.214523
v 0.010000 4.875078 -1.180714
v 0.010000 4.866625 -1.198840
v 0.010000 4.947582 -1.214523
v 0.010000 4.939130 -1.232649
v -0.010000 4.939130 -1.232649
vt 0.125000 0.500000
vt 0.375000 0.500000
vt 0.375000 0.750000
vt 0.125000 0.750000
vt 0.375000 0.000000
vt 0.625000 0.000000
vt 0.625000 0.250000
vt 0.375000 0.250000
vt 0.625000 0.750000
vt 0.625000 1.000000
vt 0.375000 1.000000
vt 0.625000 0.500000
vt 0.875000 0.500000
vt 0.875000 0.750000
vn 0.0000 -0.9063 0.4226
vn -1.0000 0.0000 0.0000
vn 0.0000 0.4226 0.9063
vn 1.0000 0.0000 0.0000
vn 0.0000 0.9063 -0.4226
vn 0.0000 -0.4226 -0.9063
usemtl None
s off
f 194/271/114 197/272/114 196/273/114 193/274/114
f 193/275/115 195/276/115 200/277/115 194/278/115
f 196/273/116 198/279/116 195/280/116 193/281/116
f 197/272/117 199/282/117 198/279/117 196/273/117
f 199/282/118 200/283/118 195/284/118 198/279/118
f 194/278/119 200/277/119 199/282/119 197/272/119
o Light.006_Cube.015
v -0.750000 5.022597 -1.053653
v -0.750000 4.864115 -1.393519
v 0.750000 5.022597 -1.053653
v -1.000000 4.879078 -0.917768
v -1.000000 4.667768 -1.370922
v 1.000000 4.879078 -0.917768
v -1.000000 4.879078 -0.917768
v -1.000000 4.667768 -1.370922
v -1.000000 5.332232 -1.129077
v 1.000000 4.879078 -0.917768
v 1.000000 4.667768 -1.370922
v 1.000000 5.332232 -1.129077
v 1.000000 5.120923 -1.582231
v -1.000000 5.120923 -1.582231
v 1.000000 4.667768 -1.370922
v 0.750000 4.864115 -1.393519
vt 0.156250 0.531250
vt 0.156250 0.718750
vt 0.125000 0.750000
vt 0.125000 0.500000
vt 0.343750 0.531250
vt 0.343750 0.718750
vt 0.375000 0.750000
vt 0.125000 0.750000
vt 0.125000 0.500000
vt 0.375000 0.750000
vt 0.375000 0.000000
vt 0.625000 0.000000
vt 0.625000 0.250000
vt 0.375000 0.250000
vt 0.625000 0.750000
vt 0.625000 1.000000
vt 0.375000 1.000000
vt 0.375000 0.500000
vt 0.375000 0.500000
vt 0.625000 0.500000
vt 0.875000 0.500000
vt 0.875000 0.750000
vn 0.6000 -0.7250 0.3381
vn 0.0000 -0.9063 0.4226
vn 0.0000 -0.6875 -0.7262
vn 0.0000 0.0000 1.0000
vn -1.0000 0.0000 0.0000
vn 0.0000 0.4226 0.9063
vn 1.0000 0.0000 0.0000
vn 0.0000 0.9063 -0.4226
vn 0.0000 -0.4226 -0.9063
vn 0.0000 0.1143 0.9934
vn -0.6000 -0.7250 0.3381
usemtl None
s off
f 202/285/120 201/286/120 204/287/120 205/288/120
f 202/285/121 216/289/121 203/290/121 201/286/121
f 201/286/122 203/290/122 206/291/122 204/287/122
f 205/288/123 204/287/123 207/292/123 208/293/123
f 204/287/123 206/291/123 210/294/123 207/292/123
f 207/295/124 209/296/124 214/297/124 208/298/124
f 210/294/125 212/299/125 209/300/125 207/301/125
f 206/291/123 215/302/123 211/303/123 210/294/123
f 211/303/126 213/304/126 212/299/126 210/294/126
f 213/304/127 214/305/127 209/306/127 212/299/127
f 208/298/128 214/297/128 213/304/128 211/303/128
f 215/302/123 205/288/123 208/293/123 211/303/123
f 216/289/129 202/285/129 205/288/129 215/302/129
f 203/290/130 216/289/130 215/302/130 206/291/130
o Light.007_Cube.016
v -0.750000 4.807458 -1.325723
v -0.750000 4.934244 -1.053831
v 0.750000 4.807458 -1.325723
v 0.750000 4.934244 -1.053831
vt 0.000000 0.000000
vt 1.000000 0.000000
vt 1.000000 1.000000
vt 0.000000 1.000000
vn 0.0000 -0.9063 0.4226
usemtl None
s off
f 217/307/131 219/308/131 220/309/131 218/310/131
