# Blender v2.91.0 OBJ File: 'dof.blend'
# www.blender.org
mtllib dof.mtl
o Light.001_Cube.010
v 5.250000 5.022597 -11.053654
v 5.000000 5.332232 -11.129078
v 5.250000 4.864115 -11.393519
v 5.000000 5.120923 -11.582232
v 6.750000 5.022597 -11.053654
v 7.000000 5.332232 -11.129078
v 6.750000 4.864115 -11.393519
v 7.000000 5.120923 -11.582232
v 5.000000 4.667768 -11.370922
v 5.000000 4.879077 -10.917768
v 7.000000 4.667768 -11.370922
v 7.000000 4.879077 -10.917768
v 5.000000 4.667768 -11.370922
v 5.000000 4.879077 -10.917768
v 7.000000 4.667768 -11.370922
v 7.000000 4.879077 -10.917768
vt 0.375000 0.000000
vt 0.625000 0.000000
vt 0.625000 0.250000
vt 0.375000 0.250000
vt 0.625000 0.500000
vt 0.375000 0.500000
vt 0.625000 0.750000
vt 0.375000 0.750000
vt 0.625000 1.000000
vt 0.375000 1.000000
vt 0.156250 0.531250
vt 0.343750 0.531250
vt 0.343750 0.718750
vt 0.156250 0.718750
vt 0.875000 0.500000
vt 0.875000 0.750000
vt 0.125000 0.500000
vt 0.125000 0.750000
vt 0.125000 0.750000
vt 0.125000 0.500000
vt 0.375000 0.500000
vt 0.375000 0.750000
vn -1.0000 0.0000 0.0000
vn 0.0000 -0.4226 -0.9063
vn 1.0000 0.0000 0.0000
vn 0.0000 0.4226 0.9063
vn 0.0000 -0.9063 0.4226
vn 0.0000 0.9063 -0.4226
vn 0.0000 0.0000 1.0000
vn 0.6000 -0.7250 0.3381
vn 0.0000 0.1143 0.9934
vn -0.6000 -0.7250 0.3381
vn 0.0000 -0.6875 -0.7262
usemtl None
s off
f 10/1/1 2/2/1 4/3/1 9/4/1
f 9/4/2 4/3/2 8/5/2 11/6/2
f 11/6/3 8/5/3 6/7/3 12/8/3
f 12/8/4 6/7/4 2/9/4 10/10/4
f 3/11/5 7/12/5 5/13/5 1/14/5
f 8/5/6 4/15/6 2/16/6 6/7/6
f 13/17/7 14/18/7 10/19/7 9/20/7
f 15/21/7 13/17/7 9/20/7 11/6/7
f 16/22/7 15/21/7 11/6/7 12/8/7
f 14/18/7 16/22/7 12/8/7 10/19/7
f 3/11/8 1/14/8 14/18/8 13/17/8
f 7/12/9 3/11/9 13/17/9 15/21/9
f 5/13/10 7/12/10 15/21/10 16/22/10
f 1/14/11 5/13/11 16/22/11 14/18/11
o Light.002_Cube.011
v -6.750000 5.022597 8.946346
v -7.000000 5.332232 8.870922
v -6.750000 4.864115 8.606481
v -7.000000 5.120923 8.417768
v -5.250000 5.022597 8.946346
v -5.000000 5.332232 8.870922
v -5.250000 4.864115 8.606481
v -5.000000 5.120923 8.417768
v -7.000000 4.667768 8.629078
v -7.000000 4.879077 9.082232
v -5.000000 4.667768 8.629078
v -5.000000 4.879077 9.082232
v -7.000000 4.667768 8.629078
v -7.000000 4.879077 9.082232
v -5.000000 4.667768 8.629078
v -5.000000 4.879077 9.082232
vt 0.375000 0.000000
vt 0.625000 0.000000
vt 0.625000 0.250000
vt 0.375000 0.250000
vt 0.625000 0.500000
vt 0.375000 0.500000
vt 0.625000 0.750000
vt 0.375000 0.750000
vt 0.625000 1.000000
vt 0.375000 1.000000
vt 0.156250 0.531250
vt 0.343750 0.531250
vt 0.343750 0.718750
vt 0.156250 0.718750
vt 0.875000 0.500000
vt 0.875000 0.750000
vt 0.125000 0.500000
vt 0.125000 0.750000
vt 0.125000 0.750000
vt 0.125000 0.500000
vt 0.375000 0.500000
vt 0.375000 0.750000
vn -1.0000 0.0000 0.0000
vn 0.0000 -0.4226 -0.9063
vn 1.0000 0.0000 0.0000
vn 0.0000 0.4226 0.9063
vn 0.0000 -0.9063 0.4226
vn 0.0000 0.9063 -0.4226
vn 0.0000 0.0000 1.0000
vn 0.6000 -0.7250 0.3381
vn 0.0000 0.1143 0.9934
vn -0.6000 -0.7250 0.3381
vn 0.0000 -0.6875 -0.7262
usemtl None
s off
f 26/23/12 18/24/12 20/25/12 25/26/12
f 25/26/13 20/25/13 24/27/13 27/28/13
f 27/28/14 24/27/14 22/29/14 28/30/14
f 28/30/15 22/29/15 18/31/15 26/32/15
f 19/33/16 23/34/16 21/35/16 17/36/16
f 24/27/17 20/37/17 18/38/17 22/29/17
f 29/39/18 30/40/18 26/41/18 25/42/18
f 31/43/18 29/39/18 25/42/18 27/28/18
f 32/44/18 31/43/18 27/28/18 28/30/18
f 30/40/18 32/44/18 28/30/18 26/41/18
f 19/33/19 17/36/19 30/40/19 29/39/19
f 23/34/20 19/33/20 29/39/20 31/43/20
f 21/35/21 23/34/21 31/43/21 32/44/21
f 17/36/22 21/35/22 32/44/22 30/40/22
o Light.008_Cube.017
v 5.990000 4.875078 -11.180714
v 5.990000 4.866625 -11.198840
v 5.990000 4.947582 -11.214523
v 6.010000 4.875078 -11.180714
v 6.010000 4.866625 -11.198840
v 6.010000 4.947582 -11.214523
v 6.010000 4.939130 -11.232650
v 5.990000 4.939130 -11.232650
vt 0.125000 0.500000
vt 0.375000 0.500000
vt 0.375000 0.750000
vt 0.125000 0.750000
vt 0.375000 0.000000
vt 0.625000 0.000000
vt 0.625000 0.250000
vt 0.375000 0.250000
vt 0.625000 0.750000
vt 0.625000 1.000000
vt 0.375000 1.000000
vt 0.625000 0.500000
vt 0.875000 0.500000
vt 0.875000 0.750000
vn 0.0000 -0.9063 0.4226
vn -1.0000 0.0000 0.0000
vn 0.0000 0.4226 0.9063
vn 1.0000 0.0000 0.0000
vn 0.0000 0.9063 -0.4226
vn 0.0000 -0.4226 -0.9063
usemtl None
s off
f 34/45/23 37/46/23 36/47/23 33/48/23
f 33/49/24 35/50/24 40/51/24 34/52/24
f 36/47/25 38/53/25 35/54/25 33/55/25
f 37/46/26 39/56/26 38/53/26 36/47/26
f 39/56/27 40/57/27 35/58/27 38/53/27
f 34/52/28 40/51/28 39/56/28 37/46/28
o Light.009_Cube.018
v 6.750000 4.807458 -11.174277
v 6.750000 4.934244 -11.446170
v 5.250000 4.807458 -11.174277
v 5.250000 4.934244 -11.446170
vt 0.000000 0.000000
vt 1.000000 0.000000
vt 1.000000 1.000000
vt 0.000000 1.000000
vn 0.0000 -0.9063 -0.4226
usemtl None
s off
f 41/59/29 43/60/29 44/61/29 42/62/29
o Light.010_Cube.019
v 5.990000 4.875078 -11.180714
v 5.990000 4.866625 -11.198840
v 5.990000 4.947582 -11.214523
v 6.010000 4.875078 -11.180714
v 6.010000 4.866625 -11.198840
v 6.010000 4.947582 -11.214523
v 6.010000 4.939130 -11.232650
v 5.990000 4.939130 -11.232650
vt 0.125000 0.500000
vt 0.375000 0.500000
vt 0.375000 0.750000
vt 0.125000 0.750000
vt 0.375000 0.000000
vt 0.625000 0.000000
vt 0.625000 0.250000
vt 0.375000 0.250000
vt 0.625000 0.750000
vt 0.625000 1.000000
vt 0.375000 1.000000
vt 0.625000 0.500000
vt 0.875000 0.500000
vt 0.875000 0.750000
vn 0.0000 -0.9063 0.4226
vn -1.0000 0.0000 0.0000
vn 0.0000 0.4226 0.9063
vn 1.0000 0.0000 0.0000
vn 0.0000 0.9063 -0.4226
vn 0.0000 -0.4226 -0.9063
usemtl None
s off
f 46/63/30 49/64/30 48/65/30 45/66/30
f 45/67/31 47/68/31 52/69/31 46/70/31
f 48/65/32 50/71/32 47/72/32 45/73/32
f 49/64/33 51/74/33 50/71/33 48/65/33
f 51/74/34 52/75/34 47/76/34 50/71/34
f 46/70/35 52/69/35 51/74/35 49/64/35
o Light.011_Cube.020
v 5.250000 5.022597 -11.053654
v 5.250000 4.864115 -11.393518
v 6.750000 5.022597 -11.053654
v 5.000000 4.879078 -10.917768
v 5.000000 4.667768 -11.370922
v 7.000000 4.879078 -10.917768
v 5.000000 4.879078 -10.917768
v 5.000000 4.667768 -11.370922
v 5.000000 5.332232 -11.129078
v 7.000000 4.879078 -10.917768
v 7.000000 4.667768 -11.370922
v 7.000000 5.332232 -11.129078
v 7.000000 5.120923 -11.582232
v 5.000000 5.120923 -11.582232
v 7.000000 4.667768 -11.370922
v 6.750000 4.864115 -11.393518
vt 0.156250 0.531250
vt 0.156250 0.718750
vt 0.125000 0.750000
vt 0.125000 0.500000
vt 0.343750 0.531250
vt 0.343750 0.718750
vt 0.375000 0.750000
vt 0.125000 0.750000
vt 0.125000 0.500000
vt 0.375000 0.750000
vt 0.375000 0.000000
vt 0.625000 0.000000
vt 0.625000 0.250000
vt 0.375000 0.250000
vt 0.625000 0.750000
vt 0.625000 1.000000
vt 0.375000 1.000000
vt 0.375000 0.500000
vt 0.375000 0.500000
vt 0.625000 0.500000
vt 0.875000 0.500000
vt 0.875000 0.750000
vn 0.6000 -0.7250 0.3381
vn 0.0000 -0.9063 0.4226
vn 0.0000 -0.6875 -0.7262
vn 0.0000 0.0000 1.0000
vn -1.0000 0.0000 0.0000
vn 0.0000 0.4226 0.9063
vn 1.0000 0.0000 0.0000
vn 0.0000 0.9063 -0.4226
vn 0.0000 -0.4226 -0.9063
vn 0.0000 0.1143 0.9934
vn -0.6000 -0.7250 0.3381
usemtl None
s off
f 54/77/36 53/78/36 56/79/36 57/80/36
f 54/77/37 68/81/37 55/82/37 53/78/37
f 53/78/38 55/82/38 58/83/38 56/79/38
f 57/80/39 56/79/39 59/84/39 60/85/39
f 56/79/39 58/83/39 62/86/39 59/84/39
f 59/87/40 61/88/40 66/89/40 60/90/40
f 62/86/41 64/91/41 61/92/41 59/93/41
f 58/83/39 67/94/39 63/95/39 62/86/39
f 63/95/42 65/96/42 64/91/42 62/86/42
f 65/96/43 66/97/43 61/98/43 64/91/43
f 60/90/44 66/89/44 65/96/44 63/95/44
f 67/94/39 57/80/39 60/85/39 63/95/39
f 68/81/45 54/77/45 57/80/45 67/94/45
f 55/82/46 68/81/46 67/94/46 58/83/46
o Light.012_Cube.021
v 5.250000 4.807458 -11.325723
v 5.250000 4.934244 -11.053830
v 6.750000 4.807458 -11.325723
v 6.750000 4.934244 -11.053830
vt 0.000000 0.000000
vt 1.000000 0.000000
vt 1.000000 1.000000
vt 0.000000 1.000000
vn 0.0000 -0.9063 0.4226
usemtl Material.001
s off
f 69/99/47 71/100/47 72/101/47 70/102/47
o Light.013_Cube.022
v -6.010000 4.875078 8.819286
v -6.010000 4.866625 8.801160
v -6.010000 4.947582 8.785477
v -5.990000 4.875078 8.819286
v -5.990000 4.866625 8.801160
v -5.990000 4.947582 8.785477
v -5.990000 4.939130 8.767350
v -6.010000 4.939130 8.767350
vt 0.125000 0.500000
vt 0.375000 0.500000
vt 0.375000 0.750000
vt 0.125000 0.750000
vt 0.375000 0.000000
vt 0.625000 0.000000
vt 0.625000 0.250000
vt 0.375000 0.250000
vt 0.625000 0.750000
vt 0.625000 1.000000
vt 0.375000 1.000000
vt 0.625000 0.500000
vt 0.875000 0.500000
vt 0.875000 0.750000
vn 0.0000 -0.9063 0.4226
vn -1.0000 0.0000 0.0000
vn 0.0000 0.4226 0.9063
vn 1.0000 0.0000 0.0000
vn 0.0000 0.9063 -0.4226
vn 0.0000 -0.4226 -0.9063
usemtl None
s off
f 74/103/48 77/104/48 76/105/48 73/106/48
f 73/107/49 75/108/49 80/109/49 74/110/49
f 76/105/50 78/111/50 75/112/50 73/113/50
f 77/104/51 79/114/51 78/111/51 76/105/51
f 79/114/52 80/115/52 75/116/52 78/111/52
f 74/110/53 80/109/53 79/114/53 77/104/53
o Light.014_Cube.023
v -6.750000 4.807458 8.674277
v -6.750000 4.934244 8.946170
v -5.250000 4.807458 8.674277
v -5.250000 4.934244 8.946170
vt 0.000000 0.000000
vt 1.000000 0.000000
vt 1.000000 1.000000
vt 0.000000 1.000000
vn 0.0000 -0.9063 0.4226
usemtl Material.001
s off
f 81/117/54 83/118/54 84/119/54 82/120/54
o Light.015_Cube.024
v -6.010000 4.875078 8.819286
v -6.010000 4.866625 8.801160
v -6.010000 4.947582 8.785477
v -5.990000 4.875078 8.819286
v -5.990000 4.866625 8.801160
v -5.990000 4.947582 8.785477
v -5.990000 4.939130 8.767350
v -6.010000 4.939130 8.767350
vt 0.125000 0.500000
vt 0.375000 0.500000
vt 0.375000 0.750000
vt 0.125000 0.750000
vt 0.375000 0.000000
vt 0.625000 0.000000
vt 0.625000 0.250000
vt 0.375000 0.250000
vt 0.625000 0.750000
vt 0.625000 1.000000
vt 0.375000 1.000000
vt 0.625000 0.500000
vt 0.875000 0.500000
vt 0.875000 0.750000
vn 0.0000 -0.9063 0.4226
vn -1.0000 0.0000 0.0000
vn 0.0000 0.4226 0.9063
vn 1.0000 0.0000 0.0000
vn 0.0000 0.9063 -0.4226
vn 0.0000 -0.4226 -0.9063
usemtl None
s off
f 86/121/55 89/122/55 88/123/55 85/124/55
f 85/125/56 87/126/56 92/127/56 86/128/56
f 88/123/57 90/129/57 87/130/57 85/131/57
f 89/122/58 91/132/58 90/129/58 88/123/58
f 91/132/59 92/133/59 87/134/59 90/129/59
f 86/128/60 92/127/60 91/132/60 89/122/60
o Light.016_Cube.025
v -6.750000 5.022597 8.946346
v -6.750000 4.864115 8.606482
v -5.250000 5.022597 8.946346
v -7.000000 4.879078 9.082232
v -7.000000 4.667768 8.629078
v -5.000000 4.879078 9.082232
v -7.000000 4.879078 9.082232
v -7.000000 4.667768 8.629078
v -7.000000 5.332232 8.870922
v -5.000000 4.879078 9.082232
v -5.000000 4.667768 8.629078
v -5.000000 5.332232 8.870922
v -5.000000 5.120923 8.417768
v -7.000000 5.120923 8.417768
v -5.000000 4.667768 8.629078
v -5.250000 4.864115 8.606482
vt 0.156250 0.531250
vt 0.156250 0.718750
vt 0.125000 0.750000
vt 0.125000 0.500000
vt 0.343750 0.531250
vt 0.343750 0.718750
vt 0.375000 0.750000
vt 0.125000 0.750000
vt 0.125000 0.500000
vt 0.375000 0.750000
vt 0.375000 0.000000
vt 0.625000 0.000000
vt 0.625000 0.250000
vt 0.375000 0.250000
vt 0.625000 0.750000
vt 0.625000 1.000000
vt 0.375000 1.000000
vt 0.375000 0.500000
vt 0.375000 0.500000
vt 0.625000 0.500000
vt 0.875000 0.500000
vt 0.875000 0.750000
vn 0.6000 -0.7250 0.3381
vn 0.0000 -0.9063 0.4226
vn 0.0000 -0.6875 -0.7262
vn 0.0000 0.0000 1.0000
vn -1.0000 0.0000 0.0000
vn 0.0000 0.4226 0.9063
vn 1.0000 0.0000 0.0000
vn 0.0000 0.9063 -0.4226
vn 0.0000 -0.4226 -0.9063
vn 0.0000 0.1143 0.9934
vn -0.6000 -0.7250 0.3381
usemtl None
s off
f 94/135/61 93/136/61 96/137/61 97/138/61
f 94/135/62 108/139/62 95/140/62 93/136/62
f 93/136/63 95/140/63 98/141/63 96/137/63
f 97/138/64 96/137/64 99/142/64 100/143/64
f 96/137/64 98/141/64 102/144/64 99/142/64
f 99/145/65 101/146/65 106/147/65 100/148/65
f 102/144/66 104/149/66 101/150/66 99/151/66
f 98/141/64 107/152/64 103/153/64 102/144/64
f 103/153/67 105/154/67 104/149/67 102/144/67
f 105/154/68 106/155/68 101/156/68 104/149/68
f 100/148/69 106/147/69 105/154/69 103/153/69
f 107/152/64 97/138/64 100/143/64 103/153/64
f 108/139/70 94/135/70 97/138/70 107/152/70
f 95/140/71 108/139/71 107/152/71 98/141/71
o Light.017_Cube.026
v -6.750000 4.807458 8.674277
v -6.750000 4.934244 8.946170
v -5.250000 4.807458 8.674277
v -5.250000 4.934244 8.946170
vt 0.000000 0.000000
vt 1.000000 0.000000
vt 1.000000 1.000000
vt 0.000000 1.000000
vn 0.0000 -0.9063 0.4226
usemtl None
s off
f 109/157/72 111/158/72 112/159/72 110/160/72
o Plane.001_Plane.003
v 15.000001 0.000000 20.000000
v 15.000003 15.000000 20.000000
v 15.000001 0.000000 -20.000000
v 15.000003 15.000000 -20.000000
vt 0.000000 0.000000
vt 1.000000 0.000000
vt 1.000000 1.000000
vt 0.000000 1.000000
vn -1.0000 0.0000 0.0000
usemtl None
s off
f 113/161/73 114/162/73 116/163/73 115/164/73
o Plane.002_Plane.004
v -14.999999 15.000000 20.000000
v -14.999999 0.000000 20.000000
v -14.999999 15.000000 -20.000000
v -14.999999 0.000000 -20.000000
vt 0.000000 0.000000
vt 1.000000 0.000000
vt 1.000000 1.000000
vt 0.000000 1.000000
vn 1.0000 0.0000 0.0000
usemtl None
s off
f 117/165/74 118/166/74 120/167/74 119/168/74
o Plane.003_Plane.005
v -14.999999 15.000000 20.000000
v 15.000001 15.000000 20.000000
v -14.999999 0.000000 20.000000
v 15.000001 0.000000 20.000000
vt 0.000000 0.000000
vt 1.000000 0.000000
vt 1.000000 1.000000
vt 0.000000 1.000000
vn 0.0000 0.0000 -1.0000
usemtl None
s off
f 121/169/75 122/170/75 124/171/75 123/172/75
o Plane.004_Plane.006
v -14.999999 14.999997 -20.000000
v 15.000001 14.999997 -20.000000
v -14.999999 15.000003 20.000000
v 15.000001 15.000003 20.000000
v -5.000000 14.999999 -5.000000
v 5.000000 14.999999 -5.000001
v 5.000000 15.000001 5.000005
v -5.000000 15.000001 5.000004
vt 0.000000 0.000000
vt 1.000000 0.000000
vt 1.000000 1.000000
vt 0.666667 0.625000
vt 0.666667 0.375000
vt 0.333333 0.375000
vt 0.333333 0.625000
vt 0.000000 1.000000
vn 0.0000 -1.0000 0.0000
usemtl None
s off
f 125/173/76 126/174/76 128/175/76 131/176/76 130/177/76 129/178/76
f 132/179/76 131/176/76 128/175/76 127/180/76 125/173/76 129/178/76
o Plane.005_Plane.008
v -5.000000 14.999999 -4.999995
v 5.000000 14.999999 -4.999995
v -5.000000 15.000001 5.000005
v 5.000000 15.000001 5.000005
vt 0.000000 0.000000
vt 1.000000 0.000000
vt 1.000000 1.000000
vt 0.000000 1.000000
vn 0.0000 -1.0000 0.0000
usemtl Material.003
s off
f 133/181/77 134/182/77 136/183/77 135/184/77
o Plane
v -14.999999 0.000000 20.000000
v 15.000001 0.000000 20.000000
v -14.999999 0.000000 -20.000000
v 15.000001 0.000000 -20.000000
vt 0.000000 0.000000
vt 1.000000 0.000000
vt 1.000000 1.000000
vt 0.000000 1.000000
vn 0.0000 1.0000 0.0000
usemtl None
s off
f 137/185/78 138/186/78 140/187/78 139/188/78
o Cube_Cube.001
v -8.000000 0.500000 10.500000
v -8.000000 4.500000 10.500000
v -8.000000 0.500000 9.500000
v -8.000000 4.500000 9.500000
v -4.000000 0.500000 10.500000
v -4.000000 4.500000 10.500000
v -4.000000 0.500000 9.500000
v -4.000000 4.500000 9.500000
vt 0.375000 0.000000
vt 0.625000 0.000000
vt 0.625000 0.250000
vt 0.375000 0.250000
vt 0.625000 0.500000
vt 0.375000 0.500000
vt 0.625000 0.750000
vt 0.375000 0.750000
vt 0.625000 1.000000
vt 0.375000 1.000000
vt 0.125000 0.500000
vt 0.125000 0.750000
vt 0.875000 0.500000
vt 0.875000 0.750000
vn -1.0000 0.0000 0.0000
vn 0.0000 0.0000 -1.0000
vn 1.0000 0.0000 0.0000
vn 0.0000 0.0000 1.0000
vn 0.0000 -1.0000 0.0000
vn 0.0000 1.0000 0.0000
usemtl None
s off
f 141/189/79 142/190/79 144/191/79 143/192/79
f 143/192/80 144/191/80 148/193/80 147/194/80
f 147/194/81 148/193/81 146/195/81 145/196/81
f 145/196/82 146/195/82 142/197/82 141/198/82
f 143/199/83 147/194/83 145/196/83 141/200/83
f 148/193/84 144/201/84 142/202/84 146/195/84
o Cube.001_Cube.002
v 4.000000 0.500000 -9.500000
v 4.000000 4.500000 -9.500000
v 4.000000 0.500000 -10.500000
v 4.000000 4.500000 -10.500000
v 8.000000 0.500000 -9.500000
v 8.000000 4.500000 -9.500000
v 8.000000 0.500000 -10.500000
v 8.000000 4.500000 -10.500000
vt 0.375000 0.000000
vt 0.625000 0.000000
vt 0.625000 0.250000
vt 0.375000 0.250000
vt 0.625000 0.500000
vt 0.375000 0.500000
vt 0.625000 0.750000
vt 0.375000 0.750000
vt 0.625000 1.000000
vt 0.375000 1.000000
vt 0.125000 0.500000
vt 0.125000 0.750000
vt 0.875000 0.500000
vt 0.875000 0.750000
vn -1.0000 0.0000 0.0000
vn 0.0000 0.0000 -1.0000
vn 1.0000 0.0000 0.0000
vn 0.0000 0.0000 1.0000
vn 0.0000 -1.0000 0.0000
vn 0.0000 1.0000 0.0000
usemtl None
s off
f 149/203/85 150/204/85 152/205/85 151/206/85
f 151/206/86 152/205/86 156/207/86 155/208/86
f 155/208/87 156/207/87 154/209/87 153/210/87
f 153/210/88 154/209/88 150/211/88 149/212/88
f 151/213/89 155/208/89 153/210/89 149/214/89
f 156/207/90 152/215/90 150/216/90 154/209/90
o Cube.002_Cube.003
v -2.000000 0.500000 0.500000
v -2.000000 4.500000 0.500000
v -2.000000 0.500000 -0.500000
v -2.000000 4.500000 -0.500000
v 2.000000 0.500000 0.500000
v 2.000000 4.500000 0.500000
v 2.000000 0.500000 -0.500000
v 2.000000 4.500000 -0.500000
vt 0.375000 0.000000
vt 0.625000 0.000000
vt 0.625000 0.250000
vt 0.375000 0.250000
vt 0.625000 0.500000
vt 0.375000 0.500000
vt 0.625000 0.750000
vt 0.375000 0.750000
vt 0.625000 1.000000
vt 0.375000 1.000000
vt 0.125000 0.500000
vt 0.125000 0.750000
vt 0.875000 0.500000
vt 0.875000 0.750000
vn -1.0000 0.0000 0.0000
vn 0.0000 0.0000 -1.0000
vn 1.0000 0.0000 0.0000
vn 0.0000 0.0000 1.0000
vn 0.0000 -1.0000 0.0000
vn 0.0000 1.0000 0.0000
usemtl None
s off
f 157/217/91 158/218/91 160/219/91 159/220/91
f 159/220/92 160/219/92 164/221/92 163/222/92
f 163/222/93 164/221/93 162/223/93 161/224/93
f 161/224/94 162/223/94 158/225/94 157/226/94
f 159/227/95 163/222/95 161/224/95 157/228/95
f 164/221/96 160/229/96 158/230/96 162/223/96
o Light_Cube.005
v -0.750000 5.022597 -1.053654
v -1.000000 5.332232 -1.129078
v -0.750000 4.864115 -1.393519
v -1.000000 5.120923 -1.582232
v 0.750000 5.022597 -1.053654
v 1.000000 5.332232 -1.129078
v 0.750000 4.864115 -1.393519
v 1.000000 5.120923 -1.582232
v -1.000000 4.667768 -1.370922
v -1.000000 4.879077 -0.917768
v 1.000000 4.667768 -1.370922
v 1.000000 4.879077 -0.917768
v -1.000000 4.667768 -1.370922
v -1.000000 4.879077 -0.917768
v 1.000000 4.667768 -1.370922
v 1.000000 4.879077 -0.917768
vt 0.375000 0.000000
vt 0.625000 0.000000
vt 0.625000 0.250000
vt 0.375000 0.250000
vt 0.625000 0.500000
vt 0.375000 0.500000
vt 0.625000 0.750000
vt 0.375000 0.750000
vt 0.625000 1.000000
vt 0.375000 1.000000
vt 0.156250 0.531250
vt 0.343750 0.531250
vt 0.343750 0.718750
vt 0.156250 0.718750
vt 0.875000 0.500000
vt 0.875000 0.750000
vt 0.125000 0.500000
vt 0.125000 0.750000
vt 0.125000 0.750000
vt 0.125000 0.500000
vt 0.375000 0.500000
vt 0.375000 0.750000
vn -1.0000 0.0000 0.0000
vn 0.0000 -0.4226 -0.9063
vn 1.0000 0.0000 0.0000
vn 0.0000 0.4226 0.9063
vn 0.0000 -0.9063 0.4226
vn 0.0000 0.9063 -0.4226
vn 0.0000 0.0000 1.0000
vn 0.6000 -0.7250 0.3381
vn 0.0000 0.1143 0.9934
vn -0.6000 -0.7250 0.3381
vn 0.0000 -0.6875 -0.7262
usemtl None
s off
f 174/231/97 166/232/97 168/233/97 173/234/97
f 173/234/98 168/233/98 172/235/98 175/236/98
f 175/236/99 172/235/99 170/237/99 176/238/99
f 176/238/100 170/237/100 166/239/100 174/240/100
f 167/241/101 171/242/101 169/243/101 165/244/101
f 172/235/102 168/245/102 166/246/102 170/237/102
f 177/247/103 178/248/103 174/249/103 173/250/103
f 179/251/103 177/247/103 173/250/103 175/236/103
f 180/252/103 179/251/103 175/236/103 176/238/103
f 178/248/103 180/252/103 176/238/103 174/249/103
f 167/241/104 165/244/104 178/248/104 177/247/104
f 171/242/105 167/241/105 177/247/105 179/251/105
f 169/243/106 171/242/106 179/251/106 180/252/106
f 165/244/107 169/243/107 180/252/107 178/248/107
o Light.003_Cube.012
v -0.010000 4.875078 -1.180714
v -0.010000 4.866625 -1.198840
v -0.010000 4.947582 -1.214523
v 0.010000 4.875078 -1.180714
v 0.010000 4.866625 -1.198840
v 0.010000 4.947582 -1.214523
v 0.010000 4.939130 -1.232649
v -0.010000 4.939130 -1.232649
vt 0.125000 0.500000
vt 0.375000 0.500000
vt 0.375000 0.750000
vt 0.125000 0.750000
vt 0.375000 0.000000
vt 0.625000 0.000000
vt 0.625000 0.250000
vt 0.375000 0.250000
vt 0.625000 0.750000
vt 0.625000 1.000000
vt 0.375000 1.000000
vt 0.625000 0.500000
vt 0.875000 0.500000
vt 0.875000 0.750000
vn 0.0000 -0.9063 0.4226
vn -1.0000 0.0000 0.0000
vn 0.0000 0.4226 0.9063
vn 1.0000 0.0000 0.0000
vn 0.0000 0.9063 -0.4226
vn 0.0000 -0.4226 -0.9063
usemtl None
s off
f 182/253/108 185/254/108 184/255/108 181/256/108
f 181/257/109 183/258/109 188/259/109 182/260/109
f 184/255/110 186/261/110 183/262/110 181/263/110
f 185/254/111 187/264/111 186/261/111 184/255/111
f 187/264/112 188/265/112 183/266/112 186/261/112
f 182/260/113 188/259/113 187/264/113 185/254/113
o Light.004_Cube.013
v -0.750000 4.807458 -1.325723
v -0.750000 4.934244 -1.053831
v 0.750000 4.807458 -1.325723
v 0.750000 4.934244 -1.053831
vt 0.000000 0.000000
vt 1.000000 0.000000
vt 1.000000 1.000000
vt 0.000000 1.000000
vn 0.0000 -0.9063 0.4226
usemtl Material.001
s off
f 189/267/114 191/268/114 192/269/114 190/270/114
o Light.005_Cube.014
v -0.010000 4.875078 -1.180714
v -0.010000 4.866625 -1.198840
v -0.010000 4.947582 -1.214523
v 0.010000 4.875078 -1.180714
v 0.010000 4.866625 -1.198840
v 0.010000 4.947582 -1.214523
v 0.010000 4.939130 -1.232649
v -0.010000 4.939130 -1.232649
vt 0.125000 0.500000
vt 0.375000 0.500000
vt 0.375000 0.750000
vt 0.125000 0.750000
vt 0.375000 0.000000
vt 0.625000 0.000000
vt 0.625000 0.250000
vt 0.375000 0.250000
vt 0.625000 0.750000
vt 0.625000 1.000000
vt 0.375000 1.000000
vt 0.625000 0.500000
vt 0.875000 0.500000
vt 0.875000 0.750000
vn 0.0000 -0.9063 0.4226
vn -1.0000 0.0000 0.0000
vn 0.0000 0.4226 0.9063
vn 1.0000 0.0000 0.0000
vn 0.0000 0.9063 -0.4226
vn 0.0000 -0.4226 -0.9063
usemtl None
s off
f 194/271/115 197/272/115 196/273/115 193/274/115
f 193/275/116 195/276/116 200/277/116 194/278/116
f 196/273/117 198/279/117 195/280/117 193/281/117
f 197/272/118 199/282/118 198/279/118 196/273/118
f 199/282/119 200/283/119 195/284/119 198/279/119
f 194/278/120 200/277/120 199/282/120 197/272/120
o Light.006_Cube.015
v -0.750000 5.022597 -1.053653
v -0.750000 4.864115 -1.393519
v 0.750000 5.022597 -1.053653
v -1.000000 4.879078 -0.917768
v -1.000000 4.667768 -1.370922
v 1.000000 4.879078 -0.917768
v -1.000000 4.879078 -0.917768
v -1.000000 4.667768 -1.370922
v -1.000000 5.332232 -1.129077
v 1.000000 4.879078 -0.917768
v 1.000000 4.667768 -1.370922
v 1.000000 5.332232 -1.129077
v 1.000000 5.120923 -1.582231
v -1.000000 5.120923 -1.582231
v 1.000000 4.667768 -1.370922
v 0.750000 4.864115 -1.393519
vt 0.156250 0.531250
vt 0.156250 0.718750
vt 0.125000 0.750000
vt 0.125000 0.500000
vt 0.343750 0.531250
vt 0.343750 0.718750
vt 0.375000 0.750000
vt 0.125000 0.750000
vt 0.125000 0.500000
vt 0.375000 0.750000
vt 0.375000 0.000000
vt 0.625000 0.000000
vt 0.625000 0.250000
vt 0.375000 0.250000
vt 0.625000 0.750000
vt 0.625000 1.000000
vt 0.375000 1.000000
vt 0.375000 0.500000
vt 0.375000 0.500000
vt 0.625000 0.500000
vt 0.875000 0.500000
vt 0.875000 0.750000
vn 0.6000 -0.7250 0.3381
vn 0.0000 -0.9063 0.4226
vn 0.0000 -0.6875 -0.7262
vn 0.0000 0.0000 1.0000
vn -1.0000 0.0000 0.0000
vn 0.0000 0.4226 0.9063
vn 1.0000 0.0000 0.0000
vn 0.0000 0.9063 -0.4226
vn 0.0000 -0.4226 -0.9063
vn 0.0000 0.1143 0.9934
vn -0.6000 -0.7250 0.3381
usemtl None
s off
f 202/285/121 201/286/121 204/287/121 205/288/121
f 202/285/122 216/289/122 203/290/122 201/286/122
f 201/286/123 203/290/123 206/291/123 204/287/123
f 205/288/124 204/287/124 207/292/124 208/293/124
f 204/287/124 206/291/124 210/294/124 207/292/124
f 207/295/125 209/296/125 214/297/125 208/298/125
f 210/294/126 212/299/126 209/300/126 207/301/126
f 206/291/124 215/302/124 211/303/124 210/294/124
f 211/303/127 213/304/127 212/299/127 210/294/127
f 213/304/128 214/305/128 209/306/128 212/299/128
f 208/298/129 214/297/129 213/304/129 211/303/129
f 215/302/124 205/288/124 208/293/124 211/303/124
f 216/289/130 202/285/130 205/288/130 215/302/130
f 203/290/131 216/289/131 215/302/131 206/291/131
o Light.007_Cube.016
v -0.750000 4.807458 -1.325723
v -0.750000 4.934244 -1.053831
v 0.750000 4.807458 -1.325723
v 0.750000 4.934244 -1.053831
vt 0.000000 0.000000
vt 1.000000 0.000000
vt 1.000000 1.000000
vt 0.000000 1.000000
vn 0.0000 -0.9063 0.4226
usemtl None
s off
f 217/307/132 219/308/132 220/309/132 218/310/132
