# Blender v2.91.0 OBJ File: 'fish_eye_lens.blend'
# www.blender.org
mtllib fish_eye_lens.mtl
o Cylinder
v -4.234351 -1.000000 -3.606061
v -4.234351 1.000000 -3.606061
v -3.324145 -1.000000 -3.948364
v -3.324145 1.000000 -3.948364
v -2.285698 -1.000000 -4.202718
v -2.285698 1.000000 -4.202718
v -1.158918 -1.000000 -4.359348
v -1.158918 1.000000 -4.359348
v 0.012895 -1.000000 -4.412235
v 0.012895 1.000000 -4.412235
v 1.184707 -1.000000 -4.359347
v 1.184707 1.000000 -4.359347
v 2.311486 -1.000000 -4.202716
v 2.311486 1.000000 -4.202716
v 3.349932 -1.000000 -3.948360
v 3.349932 1.000000 -3.948360
v 4.260137 -1.000000 -3.606057
v 4.260137 1.000000 -3.606057
v 4.423568 -1.000000 -3.514800
v 4.423568 1.000000 -3.514800
v -4.427590 -1.000000 -3.498161
v -4.427590 1.000000 -3.498161
v -4.427590 -1.000000 -2.343694
v 4.423568 -1.000000 -2.343694
v -4.427590 1.000000 -2.343694
v 4.423568 1.000000 -2.343694
v -1.741107 -1.000000 -2.343694
v -1.741107 1.000000 -2.343694
v -1.715984 -1.000000 -2.598777
v -1.715984 1.000000 -2.598777
v -1.616801 -1.000000 -2.925739
v -1.616801 1.000000 -2.925739
v -1.455736 -1.000000 -3.227068
v -1.455736 1.000000 -3.227068
v -1.238980 -1.000000 -3.491186
v -1.238980 1.000000 -3.491186
v -0.974862 -1.000000 -3.707942
v -0.974862 1.000000 -3.707942
v -0.673532 -1.000000 -3.869006
v -0.673532 1.000000 -3.869006
v -0.346570 -1.000000 -3.968189
v -0.346570 1.000000 -3.968189
v -0.006541 -1.000000 -4.001678
v -0.006541 1.000000 -4.001678
v 0.333489 -1.000000 -3.968188
v 0.333489 1.000000 -3.968188
v 0.660451 -1.000000 -3.869005
v 0.660451 1.000000 -3.869005
v 0.961780 -1.000000 -3.707940
v 0.961780 1.000000 -3.707940
v 1.225898 -1.000000 -3.491184
v 1.225898 1.000000 -3.491184
v 1.442654 -1.000000 -3.227066
v 1.442654 1.000000 -3.227066
v 1.603717 -1.000000 -2.925735
v 1.603717 1.000000 -2.925735
v 1.702900 -1.000000 -2.598773
v 1.702900 1.000000 -2.598773
v 1.728023 -1.000000 -2.343694
v 1.728023 1.000000 -2.343694
v -4.234351 -1.000000 -3.606061
v -3.324145 -1.000000 -3.948364
v -3.324145 1.000000 -3.948364
v -4.234351 1.000000 -3.606061
v -2.285698 -1.000000 -4.202718
v -2.285698 1.000000 -4.202718
v -1.158918 -1.000000 -4.359348
v -1.158918 1.000000 -4.359348
v 0.012895 -1.000000 -4.412235
v 0.012895 1.000000 -4.412235
v 1.184707 -1.000000 -4.359347
v 1.184707 1.000000 -4.359347
v 2.311486 -1.000000 -4.202716
v 2.311486 1.000000 -4.202716
v 3.349932 -1.000000 -3.948360
v 3.349932 1.000000 -3.948360
v 4.260137 -1.000000 -3.606057
v 4.260137 1.000000 -3.606057
v 4.423568 -1.000000 -3.514800
v 4.423568 -1.000000 -3.514800
v 4.423568 1.000000 -3.514800
v 4.423568 1.000000 -3.514800
v -4.427590 1.000000 -3.498161
v -4.427590 1.000000 -3.498161
v -4.427590 -1.000000 -3.498161
v -4.427590 -1.000000 -3.498161
v -4.427590 1.000000 -2.343694
v -4.427590 1.000000 -2.343694
v -4.427590 -1.000000 -2.343694
v -4.427590 -1.000000 -2.343694
v 4.423568 -1.000000 -2.343694
v 4.423568 -1.000000 -2.343694
v 4.423568 1.000000 -2.343694
v 4.423568 1.000000 -2.343694
v -1.741107 -1.000000 -2.343694
v -1.741107 -1.000000 -2.343694
v -1.715984 -1.000000 -2.598777
v -1.715984 1.000000 -2.598777
v -1.741107 1.000000 -2.343694
v -1.741107 1.000000 -2.343694
v -1.616801 -1.000000 -2.925739
v -1.616801 1.000000 -2.925739
v -1.455736 -1.000000 -3.227068
v -1.455736 1.000000 -3.227068
v -1.238980 -1.000000 -3.491186
v -1.238980 1.000000 -3.491186
v -0.974862 -1.000000 -3.707942
v -0.974862 1.000000 -3.707942
v -0.673532 -1.000000 -3.869006
v -0.673532 1.000000 -3.869006
v -0.346570 -1.000000 -3.968189
v -0.346570 1.000000 -3.968189
v -0.006541 -1.000000 -4.001678
v -0.006541 1.000000 -4.001678
v 0.333489 -1.000000 -3.968188
v 0.333489 1.000000 -3.968188
v 0.660451 -1.000000 -3.869005
v 0.660451 1.000000 -3.869005
v 0.961780 -1.000000 -3.707940
v 0.961780 1.000000 -3.707940
v 1.225898 -1.000000 -3.491184
v 1.225898 1.000000 -3.491184
v 1.442654 -1.000000 -3.227066
v 1.442654 1.000000 -3.227066
v 1.603717 -1.000000 -2.925735
v 1.603717 1.000000 -2.925735
v 1.702900 -1.000000 -2.598773
v 1.702900 1.000000 -2.598773
v 1.728023 1.000000 -2.343694
v 1.728023 1.000000 -2.343694
v 1.728023 -1.000000 -2.343694
v 1.728023 -1.000000 -2.343694
vt 0.375000 0.500000
vt 0.375000 1.000000
vt 0.343750 1.000000
vt 0.343750 0.500000
vt 0.312500 1.000000
vt 0.312500 0.500000
vt 0.281250 1.000000
vt 0.281250 0.500000
vt 0.250000 1.000000
vt 0.250000 0.500000
vt 0.218750 1.000000
vt 0.218750 0.500000
vt 0.187500 1.000000
vt 0.187500 0.500000
vt 0.156250 1.000000
vt 0.156250 0.500000
vt 0.125000 1.000000
vt 0.125000 0.500000
vt 0.118163 1.000000
vt 0.118163 0.500000
vt 0.383084 1.000000
vt 0.383084 0.500000
vt 0.382980 0.924583
vt 0.617020 0.924583
vt 0.617020 0.881795
vt 0.382980 0.881795
vt 0.617020 0.368205
vt 0.617020 0.326025
vt 0.382980 0.326025
vt 0.382980 0.368205
vt 0.492193 0.615721
vt 0.468750 0.615721
vt 0.468750 0.884279
vt 0.492193 0.884279
vt 0.437500 0.615721
vt 0.437500 0.884279
vt 0.406250 0.615721
vt 0.406250 0.884279
vt 0.375000 0.615721
vt 0.375000 0.884279
vt 0.343750 0.615721
vt 0.343750 0.884279
vt 0.312500 0.615721
vt 0.312500 0.884279
vt 0.281250 0.615721
vt 0.281250 0.884279
vt 0.250000 0.615721
vt 0.250000 0.884279
vt 0.218750 0.615721
vt 0.218750 0.884279
vt 0.187500 0.615721
vt 0.187500 0.884279
vt 0.156250 0.615721
vt 0.156250 0.884279
vt 0.125000 0.615721
vt 0.125000 0.884279
vt 0.093750 0.615721
vt 0.093750 0.884279
vt 0.062500 0.615721
vt 0.062500 0.884279
vt 0.031250 0.615721
vt 0.031250 0.884279
vt 0.007807 0.884279
vt 0.007807 0.615721
vt 0.617020 0.101536
vt 0.617020 0.085190
vt 0.382980 0.085190
vt 0.382980 0.101536
vt 0.382980 0.122643
vt 0.382980 0.139043
vt 0.617020 0.139043
vt 0.617020 0.122643
vt 0.190366 0.318531
vt 0.190366 0.426236
vt 0.088252 0.426236
vt 0.080295 0.419706
vt 0.050447 0.383337
vt 0.028269 0.341844
vt 0.014612 0.296822
vt 0.010000 0.250000
vt 0.014611 0.203179
vt 0.028269 0.158156
vt 0.050447 0.116663
vt 0.080294 0.080294
vt 0.089703 0.072573
vt 0.190366 0.072573
vt 0.190366 0.179916
vt 0.168124 0.180920
vt 0.139615 0.184883
vt 0.113340 0.191319
vt 0.090311 0.199980
vt 0.071411 0.210533
vt 0.057367 0.222573
vt 0.048719 0.235637
vt 0.045798 0.249224
vt 0.048719 0.262810
vt 0.057367 0.275874
vt 0.071411 0.287915
vt 0.090311 0.298468
vt 0.113341 0.307129
vt 0.139615 0.313564
vt 0.168125 0.317527
vt 0.690366 0.179916
vt 0.690366 0.072573
vt 0.589703 0.072573
vt 0.580294 0.080294
vt 0.550447 0.116663
vt 0.528269 0.158156
vt 0.514611 0.203179
vt 0.510000 0.250000
vt 0.514612 0.296822
vt 0.528269 0.341844
vt 0.550447 0.383337
vt 0.580295 0.419706
vt 0.588252 0.426236
vt 0.690366 0.426236
vt 0.690366 0.318531
vt 0.668125 0.317527
vt 0.639615 0.313564
vt 0.613341 0.307129
vt 0.590311 0.298468
vt 0.571411 0.287915
vt 0.557367 0.275874
vt 0.548719 0.262810
vt 0.545798 0.249224
vt 0.548719 0.235637
vt 0.557367 0.222573
vt 0.571411 0.210533
vt 0.590311 0.199980
vt 0.613340 0.191319
vt 0.639615 0.184883
vt 0.668124 0.180920
vn -0.4209 0.0000 -0.9071
vn -0.2955 0.0000 -0.9553
vn -0.1880 0.0000 -0.9821
vn -0.0915 0.0000 -0.9958
vn 0.0000 0.0000 -1.0000
vn 0.0915 0.0000 -0.9958
vn 0.1880 0.0000 -0.9821
vn 0.2955 0.0000 -0.9553
vn 0.4209 0.0000 -0.9071
vn 0.4875 0.0000 -0.8731
vn -0.4875 0.0000 -0.8731
vn 1.0000 0.0000 0.0000
vn -1.0000 0.0000 0.0000
vn 0.9952 0.0000 0.0980
vn 0.9808 0.0000 0.1951
vn 0.9239 0.0000 0.3827
vn 0.8314 0.0000 0.5556
vn 0.7071 0.0000 0.7071
vn 0.5556 0.0000 0.8314
vn 0.3827 0.0000 0.9239
vn 0.1951 0.0000 0.9808
vn 0.0000 0.0000 1.0000
vn -0.1951 0.0000 0.9808
vn -0.3827 0.0000 0.9239
vn -0.5556 0.0000 0.8314
vn -0.7071 0.0000 0.7071
vn -0.8314 0.0000 0.5556
vn -0.9239 0.0000 0.3827
vn -0.9808 0.0000 0.1951
vn -0.9952 0.0000 0.0980
vn 0.0000 1.0000 0.0000
vn 0.0000 -1.0000 0.0000
usemtl Material.001
s 1
f 61/1/1 64/2/1 63/3/2 62/4/2
f 62/4/2 63/3/2 66/5/3 65/6/3
f 65/6/3 66/5/3 68/7/4 67/8/4
f 67/8/4 68/7/4 70/9/5 69/10/5
f 69/10/5 70/9/5 72/11/6 71/12/6
f 71/12/6 72/11/6 74/13/7 73/14/7
f 73/14/7 74/13/7 76/15/8 75/16/8
f 75/16/8 76/15/8 78/17/9 77/18/9
f 77/18/9 78/17/9 81/19/10 79/20/10
f 83/21/11 64/2/1 61/1/1 85/22/11
f 80/23/12 82/24/12 93/25/12 91/26/12
f 87/27/13 84/28/13 86/29/13 89/30/13
f 95/31/14 97/32/15 98/33/15 99/34/14
f 97/32/15 101/35/16 102/36/16 98/33/15
f 101/35/16 103/37/17 104/38/17 102/36/16
f 103/37/17 105/39/18 106/40/18 104/38/17
f 105/39/18 107/41/19 108/42/19 106/40/18
f 107/41/19 109/43/20 110/44/20 108/42/19
f 110/44/20 109/43/20 111/45/21 112/46/21
f 112/46/21 111/45/21 113/47/22 114/48/22
f 114/48/22 113/47/22 115/49/23 116/50/23
f 116/50/23 115/49/23 117/51/24 118/52/24
f 118/52/24 117/51/24 119/53/25 120/54/25
f 120/54/25 119/53/25 121/55/26 122/56/26
f 122/56/26 121/55/26 123/57/27 124/58/27
f 124/58/27 123/57/27 125/59/28 126/60/28
f 126/60/28 125/59/28 127/61/29 128/62/29
f 129/63/30 128/62/29 127/61/29 131/64/30
f 100/65/22 88/66/22 90/67/22 96/68/22
f 132/69/22 92/70/22 94/71/22 130/72/22
f 60/73/31 26/74/31 20/75/31 18/76/31 16/77/31 14/78/31 12/79/31 10/80/31 8/81/31 6/82/31 4/83/31 2/84/31 22/85/31 25/86/31 28/87/31 30/88/31 32/89/31 34/90/31 36/91/31 38/92/31 40/93/31 42/94/31 44/95/31 46/96/31 48/97/31 50/98/31 52/99/31 54/100/31 56/101/31 58/102/31
f 27/103/32 23/104/32 21/105/32 1/106/32 3/107/32 5/108/32 7/109/32 9/110/32 11/111/32 13/112/32 15/113/32 17/114/32 19/115/32 24/116/32 59/117/32 57/118/32 55/119/32 53/120/32 51/121/32 49/122/32 47/123/32 45/124/32 43/125/32 41/126/32 39/127/32 37/128/32 35/129/32 33/130/32 31/131/32 29/132/32
o Cylinder.001_Cylinder.005
v -1.307815 -1.000000 -1.231066
v -1.307815 1.000000 -1.231066
v -0.674513 -1.000000 -1.287972
v -0.674513 1.000000 -1.287972
v -0.015900 -1.000000 -1.307186
v -0.015900 1.000000 -1.307186
v 0.642712 -1.000000 -1.287971
v 0.642712 1.000000 -1.287971
v 1.276014 -1.000000 -1.231066
v 1.276014 1.000000 -1.231066
v -1.657906 -1.000000 -1.524426
v -1.657906 1.000000 -1.524426
v -1.412311 -1.000000 -1.746191
v -1.412311 1.000000 -1.746191
v -1.113054 -1.000000 -1.928189
v -1.113054 1.000000 -1.928189
v -0.771633 -1.000000 -2.063426
v -0.771633 1.000000 -2.063426
v -0.401170 -1.000000 -2.146704
v -0.401170 1.000000 -2.146704
v -0.015902 -1.000000 -2.174823
v -0.015902 1.000000 -2.174823
v 0.369367 -1.000000 -2.146703
v 0.369367 1.000000 -2.146703
v 0.739829 -1.000000 -2.063425
v 0.739829 1.000000 -2.063425
v 1.081249 -1.000000 -1.928187
v 1.081249 1.000000 -1.928187
v 1.380506 -1.000000 -1.746189
v 1.380506 1.000000 -1.746189
v 1.626100 -1.000000 -1.524423
v 1.626100 1.000000 -1.524423
v 1.762920 -1.000000 -1.334735
v 1.762920 -1.000000 -1.153974
v 1.762920 1.000000 -1.153974
v 1.762920 1.000000 -1.334735
v -1.811568 -1.000000 -1.151307
v -1.811568 -1.000000 -1.311386
v -1.811568 1.000000 -1.311386
v -1.811568 1.000000 -1.151307
v -1.307815 -1.000000 -1.231066
v -0.674513 -1.000000 -1.287972
v -0.674513 1.000000 -1.287972
v -1.307815 1.000000 -1.231066
v -0.015900 -1.000000 -1.307186
v -0.015900 1.000000 -1.307186
v 0.642712 -1.000000 -1.287971
v 0.642712 1.000000 -1.287971
v 1.276014 -1.000000 -1.231066
v 1.276014 1.000000 -1.231066
v -1.657906 -1.000000 -1.524426
v -1.412311 -1.000000 -1.746191
v -1.412311 1.000000 -1.746191
v -1.657906 1.000000 -1.524426
v -1.113054 -1.000000 -1.928189
v -1.113054 1.000000 -1.928189
v -0.771633 -1.000000 -2.063426
v -0.771633 1.000000 -2.063426
v -0.401170 -1.000000 -2.146704
v -0.401170 1.000000 -2.146704
v -0.015902 -1.000000 -2.174823
v -0.015902 1.000000 -2.174823
v 0.369367 -1.000000 -2.146703
v 0.369367 1.000000 -2.146703
v 0.739829 -1.000000 -2.063425
v 0.739829 1.000000 -2.063425
v 1.081249 -1.000000 -1.928187
v 1.081249 1.000000 -1.928187
v 1.380506 -1.000000 -1.746189
v 1.380506 1.000000 -1.746189
v 1.626100 -1.000000 -1.524423
v 1.626100 1.000000 -1.524423
v 1.762920 -1.000000 -1.153974
v 1.762920 -1.000000 -1.153974
v 1.762920 -1.000000 -1.334735
v 1.762920 1.000000 -1.334735
v 1.762920 1.000000 -1.153974
v 1.762920 1.000000 -1.153974
v -1.811568 -1.000000 -1.311386
v -1.811568 -1.000000 -1.151307
v -1.811568 -1.000000 -1.151307
v -1.811568 1.000000 -1.151307
v -1.811568 1.000000 -1.151307
v -1.811568 1.000000 -1.311386
vt 0.406250 0.500000
vt 0.406250 1.000000
vt 0.375000 1.000000
vt 0.375000 0.500000
vt 0.343750 1.000000
vt 0.343750 0.500000
vt 0.312500 1.000000
vt 0.312500 0.500000
vt 0.281250 1.000000
vt 0.281250 0.500000
vt 0.250000 1.000000
vt 0.250000 0.500000
vt 0.218750 1.000000
vt 0.218750 0.500000
vt 0.187500 1.000000
vt 0.187500 0.500000
vt 0.156250 1.000000
vt 0.156250 0.500000
vt 0.125000 1.000000
vt 0.125000 0.500000
vt 0.093750 1.000000
vt 0.093750 0.500000
vt 0.312500 1.000000
vt 0.312500 0.500000
vt 0.281250 0.500000
vt 0.281250 1.000000
vt 0.250000 0.500000
vt 0.250000 1.000000
vt 0.218750 0.500000
vt 0.218750 1.000000
vt 0.187500 0.500000
vt 0.187500 1.000000
vt 0.375000 0.945060
vt 0.375000 0.967656
vt 0.625000 0.967656
vt 0.625000 0.945060
vt 0.070321 1.000000
vt 0.070321 0.500000
vt 0.161430 1.000000
vt 0.161430 0.500000
vt 0.625000 0.285263
vt 0.375000 0.285263
vt 0.375000 0.305273
vt 0.625000 0.305273
vt 0.432563 1.000000
vt 0.432563 0.500000
vt 0.339472 1.000000
vt 0.339472 0.500000
vt 0.177853 0.031773
vt 0.164773 0.092994
vt 0.155441 0.169959
vt 0.152290 0.250000
vt 0.155441 0.330041
vt 0.164773 0.407007
vt 0.177416 0.466181
vt 0.147772 0.466181
vt 0.116663 0.449553
vt 0.080295 0.419706
vt 0.050447 0.383337
vt 0.028269 0.341844
vt 0.014612 0.296822
vt 0.010000 0.250000
vt 0.014611 0.203179
vt 0.028269 0.158156
vt 0.050447 0.116663
vt 0.080294 0.080294
vt 0.116663 0.050447
vt 0.151601 0.031773
vt 0.647772 0.466181
vt 0.677416 0.466181
vt 0.664773 0.407007
vt 0.655441 0.330042
vt 0.652290 0.250000
vt 0.655441 0.169959
vt 0.664773 0.092994
vt 0.677853 0.031773
vt 0.651601 0.031773
vt 0.616663 0.050447
vt 0.580294 0.080294
vt 0.550447 0.116663
vt 0.528269 0.158156
vt 0.514611 0.203179
vt 0.510000 0.250000
vt 0.514612 0.296822
vt 0.528269 0.341844
vt 0.550447 0.383337
vt 0.580295 0.419706
vt 0.616663 0.449553
vn -0.7447 0.0000 -0.6673
vn -0.5975 0.0000 -0.8018
vn -0.4455 0.0000 -0.8953
vn -0.2947 0.0000 -0.9556
vn -0.1465 0.0000 -0.9892
vn 0.0000 0.0000 -1.0000
vn 0.1465 0.0000 -0.9892
vn 0.2947 0.0000 -0.9556
vn 0.4455 0.0000 -0.8953
vn 0.5975 0.0000 -0.8018
vn 0.7447 0.0000 -0.6673
vn 0.1230 0.0000 0.9924
vn 0.0593 0.0000 0.9982
vn 0.0000 0.0000 1.0000
vn -0.0593 0.0000 0.9982
vn -0.1230 0.0000 0.9924
vn 1.0000 0.0000 0.0000
vn 0.9516 0.0000 -0.3074
vn -0.1564 0.0000 0.9877
vn -0.9516 0.0000 -0.3074
vn -1.0000 0.0000 0.0000
vn 0.1564 0.0000 0.9877
vn 0.0000 1.0000 0.0000
vn 0.0000 -1.0000 0.0000
usemtl Material.002
s 1
f 183/133/33 186/134/33 185/135/34 184/136/34
f 184/136/34 185/135/34 188/137/35 187/138/35
f 187/138/35 188/137/35 190/139/36 189/140/36
f 189/140/36 190/139/36 192/141/37 191/142/37
f 191/142/37 192/141/37 194/143/38 193/144/38
f 193/144/38 194/143/38 196/145/39 195/146/39
f 195/146/39 196/145/39 198/147/40 197/148/40
f 197/148/40 198/147/40 200/149/41 199/150/41
f 199/150/41 200/149/41 202/151/42 201/152/42
f 201/152/42 202/151/42 204/153/43 203/154/43
f 176/155/44 173/156/44 174/157/45 175/158/45
f 175/158/45 174/157/45 177/159/46 178/160/46
f 178/160/46 177/159/46 179/161/47 180/162/47
f 180/162/47 179/161/47 181/163/48 182/164/48
f 205/165/49 207/166/50 208/167/50 209/168/49
f 203/154/43 204/153/43 208/169/50 207/170/50
f 210/171/51 182/164/48 181/163/48 206/172/51
f 216/173/52 211/174/52 212/175/53 214/176/53
f 216/177/52 186/134/33 183/133/33 211/178/52
f 173/156/44 176/155/44 215/179/54 213/180/54
f 172/181/55 134/182/55 136/183/55 138/184/55 140/185/55 142/186/55 167/187/55 168/188/55 164/189/55 162/190/55 160/191/55 158/192/55 156/193/55 154/194/55 152/195/55 150/196/55 148/197/55 146/198/55 144/199/55 171/200/55
f 165/201/56 166/202/56 141/203/56 139/204/56 137/205/56 135/206/56 133/207/56 169/208/56 170/209/56 143/210/56 145/211/56 147/212/56 149/213/56 151/214/56 153/215/56 155/216/56 157/217/56 159/218/56 161/219/56 163/220/56
o Cylinder.002_Cylinder.007
v -1.588784 -1.000000 -0.350711
v -1.588784 1.000000 -0.350711
v -1.094373 -1.000000 -0.443121
v -1.094373 1.000000 -0.443121
v -0.557905 -1.000000 -0.500026
v -0.557905 1.000000 -0.500026
v 0.000002 -1.000000 -0.519241
v 0.000002 1.000000 -0.519241
v 0.557909 -1.000000 -0.500026
v 0.557909 1.000000 -0.500026
v 1.094376 -1.000000 -0.443120
v 1.094376 1.000000 -0.443120
v 1.588786 -1.000000 -0.350710
v 1.588786 1.000000 -0.350710
v 1.264340 -1.000000 0.359095
v 1.264340 1.000000 0.359095
v 0.870892 -1.000000 0.514031
v 0.870892 1.000000 0.514031
v 0.443977 -1.000000 0.609440
v 0.443977 1.000000 0.609440
v -0.000001 -1.000000 0.641656
v -0.000001 1.000000 0.641656
v -0.443978 -1.000000 0.609440
v -0.443978 1.000000 0.609440
v -0.870894 -1.000000 0.514031
v -0.870894 1.000000 0.514031
v 1.609200 1.000000 0.150586
v -1.264342 -1.000000 0.359095
v -1.264342 1.000000 0.359095
v -1.609202 -1.000000 0.150586
v -1.609202 1.000000 0.150586
v 1.609200 -1.000000 0.150586
v 1.728298 -1.000000 -0.310673
v 1.728298 -1.000000 0.043670
v 1.728298 1.000000 0.043670
v 1.728298 1.000000 -0.310673
v -1.728299 -1.000000 -0.310673
v -1.728299 -1.000000 0.043671
v -1.728299 1.000000 -0.310673
v -1.728299 1.000000 0.043671
v -1.588784 -1.000000 -0.350711
v -1.094373 -1.000000 -0.443121
v -1.094373 1.000000 -0.443121
v -1.588784 1.000000 -0.350711
v -0.557905 -1.000000 -0.500026
v -0.557905 1.000000 -0.500026
v 0.000002 -1.000000 -0.519241
v 0.000002 1.000000 -0.519241
v 0.557909 -1.000000 -0.500026
v 0.557909 1.000000 -0.500026
v 1.094376 -1.000000 -0.443120
v 1.094376 1.000000 -0.443120
v 1.588786 -1.000000 -0.350710
v 1.588786 1.000000 -0.350710
v -0.443978 1.000000 0.609440
v -0.000001 1.000000 0.641656
v 0.443977 1.000000 0.609440
v 0.870892 1.000000 0.514031
v 1.264340 1.000000 0.359095
v 1.609200 1.000000 0.150586
v -1.609202 1.000000 0.150586
v -1.264342 1.000000 0.359095
v -0.870894 1.000000 0.514031
v 1.609200 -1.000000 0.150586
v 1.264340 -1.000000 0.359095
v 0.870892 -1.000000 0.514031
v 0.443977 -1.000000 0.609440
v -0.000001 -1.000000 0.641656
v -0.443978 -1.000000 0.609440
v -0.870894 -1.000000 0.514031
v -1.264342 -1.000000 0.359095
v -1.609202 -1.000000 0.150586
v 1.728298 -1.000000 0.043670
v 1.728298 -1.000000 0.043670
v 1.728298 -1.000000 -0.310673
v 1.728298 -1.000000 -0.310673
v 1.728298 1.000000 -0.310673
v 1.728298 1.000000 -0.310673
v 1.728298 1.000000 0.043670
v 1.728298 1.000000 0.043670
v -1.728299 1.000000 -0.310673
v -1.728299 1.000000 -0.310673
v -1.728299 -1.000000 -0.310673
v -1.728299 -1.000000 -0.310673
v -1.728299 -1.000000 0.043671
v -1.728299 -1.000000 0.043671
v -1.728299 1.000000 0.043671
v -1.728299 1.000000 0.043671
vt 0.343750 0.500000
vt 0.343750 1.000000
vt 0.312500 1.000000
vt 0.312500 0.500000
vt 0.281250 1.000000
vt 0.281250 0.500000
vt 0.250000 1.000000
vt 0.250000 0.500000
vt 0.218750 1.000000
vt 0.218750 0.500000
vt 0.187500 1.000000
vt 0.187500 0.500000
vt 0.156250 1.000000
vt 0.156250 0.500000
vt 0.843750 1.000000
vt 0.843750 0.500000
vt 0.875000 0.500000
vt 0.875000 1.000000
vt 0.812500 1.000000
vt 0.812500 0.500000
vt 0.781250 1.000000
vt 0.781250 0.500000
vt 0.750000 1.000000
vt 0.750000 0.500000
vt 0.718750 1.000000
vt 0.718750 0.500000
vt 0.687500 1.000000
vt 0.687500 0.500000
vt 0.656250 1.000000
vt 0.656250 0.500000
vt 0.625000 1.000000
vt 0.625000 0.500000
vt 0.375000 0.917005
vt 0.375000 0.961298
vt 0.625000 0.961298
vt 0.625000 0.917005
vt 0.146190 1.000000
vt 0.146190 0.500000
vt 0.888150 1.000000
vt 0.888150 0.500000
vt 0.625000 0.288702
vt 0.375000 0.288702
vt 0.375000 0.332995
vt 0.625000 0.332995
vt 0.353811 0.500000
vt 0.353811 1.000000
vt 0.611850 1.000000
vt 0.611850 0.500000
vt 0.145099 0.395045
vt 0.060056 0.395045
vt 0.050447 0.383337
vt 0.028269 0.341844
vt 0.014612 0.296822
vt 0.010000 0.250000
vt 0.014611 0.203179
vt 0.028269 0.158156
vt 0.050447 0.116663
vt 0.060056 0.104955
vt 0.145099 0.104955
vt 0.170758 0.114950
vt 0.220801 0.143892
vt 0.257985 0.176911
vt 0.280884 0.212740
vt 0.288615 0.250000
vt 0.280884 0.287260
vt 0.257985 0.323089
vt 0.220801 0.356108
vt 0.170758 0.385050
vt 0.550447 0.116663
vt 0.528269 0.158156
vt 0.514611 0.203179
vt 0.510000 0.250000
vt 0.514612 0.296822
vt 0.528269 0.341844
vt 0.550447 0.383337
vt 0.560056 0.395045
vt 0.645099 0.395045
vt 0.670758 0.385050
vt 0.720800 0.356108
vt 0.757985 0.323089
vt 0.780883 0.287260
vt 0.788615 0.250000
vt 0.780884 0.212740
vt 0.757985 0.176911
vt 0.720801 0.143892
vt 0.670758 0.114950
vt 0.645099 0.104955
vt 0.560056 0.104955
vn -0.2300 0.0000 -0.9732
vn -0.1447 0.0000 -0.9895
vn -0.0700 0.0000 -0.9975
vn 0.0000 0.0000 -1.0000
vn 0.0700 0.0000 -0.9975
vn 0.1447 0.0000 -0.9895
vn 0.2300 0.0000 -0.9732
vn 0.4435 0.0000 0.8963
vn 0.5953 0.0000 0.8035
vn 0.2931 0.0000 0.9561
vn 0.1456 0.0000 0.9893
vn 0.0000 0.0000 1.0000
vn -0.1456 0.0000 0.9893
vn -0.2931 0.0000 0.9561
vn -0.4435 0.0000 0.8963
vn -0.5953 0.0000 0.8035
vn 1.0000 0.0000 0.0000
vn 0.2758 0.0000 -0.9612
vn 0.6680 0.0000 0.7441
vn -1.0000 0.0000 0.0000
vn -0.2758 0.0000 -0.9612
vn -0.6680 0.0000 0.7441
vn 0.0000 1.0000 0.0000
vn 0.0000 -1.0000 0.0000
usemtl Material.003
s 1
f 257/221/57 260/222/57 259/223/58 258/224/58
f 258/224/58 259/223/58 262/225/59 261/226/59
f 261/226/59 262/225/59 264/227/60 263/228/60
f 263/228/60 264/227/60 266/229/61 265/230/61
f 265/230/61 266/229/61 268/231/62 267/232/62
f 267/232/62 268/231/62 270/233/63 269/234/63
f 275/235/64 281/236/64 280/237/65 276/238/65
f 274/239/66 282/240/66 281/236/64 275/235/64
f 273/241/67 283/242/67 282/240/66 274/239/66
f 272/243/68 284/244/68 283/242/67 273/241/67
f 271/245/69 285/246/69 284/244/68 272/243/68
f 279/247/70 286/248/70 285/246/69 271/245/69
f 278/249/71 287/250/71 286/248/70 279/247/70
f 277/251/72 288/252/72 287/250/71 278/249/71
f 289/253/73 291/254/73 293/255/73 295/256/73
f 269/234/63 270/233/63 294/257/74 292/258/74
f 296/259/75 276/238/65 280/237/65 290/260/75
f 297/261/76 299/262/76 301/263/76 303/264/76
f 260/222/57 257/221/57 300/265/77 298/266/77
f 288/252/72 277/251/72 304/267/78 302/268/78
f 251/269/79 252/270/79 230/271/79 228/272/79 226/273/79 224/274/79 222/275/79 220/276/79 218/277/79 255/278/79 256/279/79 247/280/79 245/281/79 242/282/79 240/283/79 238/284/79 236/285/79 234/286/79 232/287/79 243/288/79
f 217/289/80 219/290/80 221/291/80 223/292/80 225/293/80 227/294/80 229/295/80 249/296/80 250/297/80 248/298/80 231/299/80 233/300/80 235/301/80 237/302/80 239/303/80 241/304/80 244/305/80 246/306/80 254/307/80 253/308/80
