# Blender v2.91.0 OBJ File: 'lens_3.blend'
# www.blender.org
mtllib lens_3.mtl
o Cylinder
v 0.390180 -1.000000 0.078786
v 0.390180 1.000000 0.078786
v -0.000000 -1.000000 0.098001
v -0.000000 1.000000 0.098001
v -0.390181 -1.000000 0.078786
v -0.390181 1.000000 0.078786
v 0.750000 -1.000000 0.024212
v 0.750000 1.000000 0.024212
v 0.750000 -1.000000 -0.151999
v 0.750000 1.000000 -0.151999
v -0.750000 -1.000000 0.024211
v -0.750000 -1.000000 -0.151999
v -0.750000 1.000000 -0.151999
v -0.750000 1.000000 0.024211
v 0.390180 -1.000000 0.078786
v -0.000000 -1.000000 0.098001
v -0.000000 1.000000 0.098001
v 0.390180 1.000000 0.078786
v -0.390181 -1.000000 0.078786
v -0.390181 1.000000 0.078786
v 0.750000 1.000000 0.024212
v 0.750000 1.000000 0.024212
v 0.750000 -1.000000 0.024212
v 0.750000 -1.000000 0.024212
v 0.750000 1.000000 -0.151999
v 0.750000 1.000000 -0.151999
v 0.750000 -1.000000 -0.151999
v 0.750000 -1.000000 -0.151999
v -0.750000 -1.000000 -0.151999
v -0.750000 -1.000000 -0.151999
v -0.750000 -1.000000 0.024211
v -0.750000 -1.000000 0.024211
v -0.750000 1.000000 0.024211
v -0.750000 1.000000 0.024211
v -0.750000 1.000000 -0.151999
v -0.750000 1.000000 -0.151999
vt 0.531250 0.500000
vt 0.531250 1.000000
vt 0.500000 1.000000
vt 0.500000 0.500000
vt 0.468750 1.000000
vt 0.468750 0.500000
vt 0.561220 1.000000
vt 0.561220 0.500000
vt 0.625000 0.031250
vt 0.625000 0.009224
vt 0.375000 0.009224
vt 0.375000 0.031250
vt 0.375000 0.718750
vt 0.375000 0.740776
vt 0.625000 0.740776
vt 0.625000 0.718750
vt 0.438780 0.500000
vt 0.438780 1.000000
vt 0.625000 0.968750
vt 0.625000 0.781250
vt 0.375000 0.781250
vt 0.375000 0.968750
vt 0.160000 0.027710
vt 0.203178 0.014612
vt 0.250000 0.010000
vt 0.296822 0.014612
vt 0.340000 0.027710
vt 0.340000 0.070000
vt 0.160000 0.070000
vt 0.840000 0.070000
vt 0.840000 0.027710
vt 0.796822 0.014612
vt 0.750000 0.010000
vt 0.703178 0.014612
vt 0.660000 0.027710
vt 0.660000 0.070000
vn 0.0997 0.0000 0.9950
vn 0.0000 0.0000 1.0000
vn -0.0997 0.0000 0.9950
vn 0.1499 0.0000 0.9887
vn 1.0000 0.0000 0.0000
vn -1.0000 0.0000 0.0000
vn -0.1499 0.0000 0.9887
vn 0.0000 0.0000 -1.0000
vn 0.0000 1.0000 0.0000
vn 0.0000 -1.0000 0.0000
usemtl Material.001
s 1
f 15/1/1 18/2/1 17/3/2 16/4/2
f 16/4/2 17/3/2 20/5/3 19/6/3
f 21/7/4 18/2/1 15/1/1 23/8/4
f 25/9/5 22/10/5 24/11/5 27/12/5
f 29/13/6 31/14/6 33/15/6 35/16/6
f 32/17/7 19/6/3 20/5/3 34/18/7
f 36/19/8 26/20/8 28/21/8 30/22/8
f 14/23/9 6/24/9 4/25/9 2/26/9 8/27/9 10/28/9 13/29/9
f 9/30/10 7/31/10 1/32/10 3/33/10 5/34/10 11/35/10 12/36/10
