# Blender v2.91.0 OBJ File: 'lens_2.blend'
# www.blender.org
mtllib lens_2.mtl
o Cube_Cube.001
v -1.000003 1.004831 -0.401900
v -1.000003 -0.995169 -0.401900
v -1.000003 1.004831 0.186274
v -1.000003 -0.995169 0.186273
v 0.999997 1.004831 -0.401900
v 0.999997 -0.995169 -0.401900
v 0.999997 1.004831 0.186274
v 0.999997 -0.995169 0.186273
v 0.853134 1.004831 0.186274
v -0.541640 1.004831 0.009670
v -0.541640 -0.995169 0.009669
v 0.450492 1.004831 -0.023467
v 0.450492 -0.995169 -0.023467
v -0.065675 1.004831 -0.092928
v -0.065675 -0.995169 -0.092928
v 0.419514 1.004831 -0.033150
v 0.419514 -0.995169 -0.033150
v 0.853134 -0.995169 0.186273
v 0.845784 1.004831 0.180607
v 0.845784 -0.995169 0.180607
v -0.571365 1.004831 0.022057
v -0.571365 -0.995169 0.022056
v -0.098461 1.004831 -0.091101
v -0.098461 -0.995169 -0.091101
v 0.388271 1.004831 -0.042140
v 0.388271 -0.995169 -0.042140
v -0.600728 1.004831 0.035101
v -0.600728 -0.995169 0.035101
v 0.820472 1.004831 0.162063
v 0.820472 -0.995169 0.162062
v -0.131184 1.004831 -0.088545
v -0.131184 -0.995169 -0.088545
v 0.356783 1.004831 -0.050432
v 0.356783 -0.995169 -0.050432
v -0.629712 1.004831 0.048795
v -0.629712 -0.995169 0.048795
v 0.794642 1.004831 0.144087
v 0.794642 -0.995169 0.144087
v 0.325070 1.004831 -0.058021
v 0.325070 -0.995169 -0.058021
v -0.658298 1.004831 0.063130
v -0.658298 -0.995169 0.063129
v -0.163825 1.004831 -0.085262
v -0.163825 -0.995169 -0.085262
v 0.293151 1.004831 -0.064901
v 0.293151 -0.995169 -0.064901
v -0.686469 1.004831 0.078096
v -0.686469 -0.995169 0.078096
v 0.768310 1.004831 0.126693
v 0.768310 -0.995169 0.126692
v -0.196363 1.004831 -0.081253
v -0.196363 -0.995169 -0.081254
v 0.261047 1.004831 -0.071069
v 0.261047 -0.995169 -0.071069
v -0.714206 1.004831 0.093685
v -0.714206 -0.995169 0.093684
v 0.228778 1.004831 -0.076521
v 0.228778 -0.995169 -0.076521
v 0.741492 1.004831 0.109890
v 0.741492 -0.995169 0.109889
v -0.741492 1.004831 0.109886
v -0.741492 -0.995169 0.109885
v -0.228776 1.004831 -0.076522
v -0.228776 -0.995169 -0.076522
v 0.196365 1.004831 -0.081252
v 0.196365 -0.995169 -0.081253
v -0.768309 1.004831 0.126689
v -0.768309 -0.995169 0.126688
v 0.714207 1.004831 0.093688
v 0.714207 -0.995169 0.093688
v -0.261045 1.004831 -0.071071
v -0.261045 -0.995169 -0.071071
v 0.163827 1.004831 -0.085261
v 0.163827 -0.995169 -0.085261
v -0.794641 1.004831 0.144083
v -0.794641 -0.995169 0.144083
v 0.131186 1.004831 -0.088544
v 0.131186 -0.995169 -0.088545
v 0.686470 1.004831 0.078100
v 0.686470 -0.995169 0.078099
v -0.293149 1.004831 -0.064903
v -0.293149 -0.995169 -0.064903
v -0.820472 1.004831 0.162058
v -0.820472 -0.995169 0.162058
v 0.098463 1.004831 -0.091100
v 0.098463 -0.995169 -0.091101
v 0.658299 1.004831 0.063133
v 0.658299 -0.995169 0.063133
v -0.325068 1.004831 -0.058022
v -0.325068 -0.995169 -0.058023
v -0.845784 1.004831 0.180603
v -0.845784 -0.995169 0.180602
v 0.065677 1.004831 -0.092927
v 0.065677 -0.995169 -0.092927
v -0.853140 1.004831 0.186274
v 0.629713 1.004831 0.048798
v 0.629713 -0.995169 0.048798
v -0.356782 1.004831 -0.050434
v -0.356782 -0.995169 -0.050434
v -0.853140 -0.995169 0.186273
v 0.032849 1.004831 -0.094024
v 0.032849 -0.995169 -0.094024
v 0.000001 1.004831 -0.094389
v 0.000001 -0.995169 -0.094390
v 0.600729 1.004831 0.035104
v 0.600729 -0.995169 0.035104
v -0.388270 1.004831 -0.042142
v -0.388270 -0.995169 -0.042142
v -0.032847 1.004831 -0.094024
v -0.032847 -0.995169 -0.094024
v 0.571366 1.004831 0.022060
v 0.571366 -0.995169 0.022059
v -0.419513 1.004831 -0.033152
v -0.419513 -0.995169 -0.033152
v 0.541642 1.004831 0.009672
v 0.541642 -0.995169 0.009672
v -0.450491 1.004831 -0.023470
v -0.450491 -0.995169 -0.023470
v 0.511575 1.004831 -0.002049
v 0.511575 -0.995169 -0.002050
v -0.481184 1.004831 -0.013101
v -0.481184 -0.995169 -0.013101
v 0.481186 1.004831 -0.013098
v 0.481186 -0.995169 -0.013098
v -0.511574 1.004831 -0.002052
v -0.511574 -0.995169 -0.002052
v -1.000003 1.004831 0.186274
v -1.000003 1.004831 0.186274
v -1.000003 1.004831 -0.401900
v -1.000003 1.004831 -0.401900
v -1.000003 -0.995169 -0.401900
v -1.000003 -0.995169 -0.401900
v -1.000003 -0.995169 0.186273
v -1.000003 -0.995169 0.186273
v 0.999997 -0.995169 0.186273
v 0.999997 -0.995169 0.186273
v 0.999997 1.004831 0.186274
v 0.999997 1.004831 0.186274
v 0.999997 1.004831 -0.401900
v 0.999997 1.004831 -0.401900
v 0.999997 -0.995169 -0.401900
v 0.999997 -0.995169 -0.401900
v 0.845784 -0.995169 0.180607
v 0.853134 -0.995169 0.186273
v 0.853134 -0.995169 0.186273
v 0.853134 1.004831 0.186274
v 0.853134 1.004831 0.186274
v 0.820472 1.004831 0.162063
v 0.794642 -0.995169 0.144087
v 0.768310 1.004831 0.126693
v 0.741492 -0.995169 0.109889
v 0.714207 1.004831 0.093688
v 0.686470 -0.995169 0.078099
v 0.658299 1.004831 0.063133
v 0.629713 -0.995169 0.048798
v 0.600729 1.004831 0.035104
v 0.571366 -0.995169 0.022059
v 0.541642 1.004831 0.009672
v 0.511575 -0.995169 -0.002050
v 0.481186 1.004831 -0.013098
v 0.450492 -0.995169 -0.023467
v 0.419514 1.004831 -0.033150
v 0.388271 -0.995169 -0.042140
v 0.356783 1.004831 -0.050432
v 0.325070 -0.995169 -0.058021
v 0.293151 1.004831 -0.064901
v 0.261047 -0.995169 -0.071069
v 0.228778 1.004831 -0.076521
v 0.196365 -0.995169 -0.081253
v 0.163827 1.004831 -0.085261
v 0.131186 -0.995169 -0.088545
v 0.098463 1.004831 -0.091100
v 0.065677 -0.995169 -0.092927
v 0.032849 1.004831 -0.094024
v 0.000001 -0.995169 -0.094390
v -0.032847 1.004831 -0.094024
v -0.065675 -0.995169 -0.092928
v -0.098461 1.004831 -0.091101
v -0.131184 -0.995169 -0.088545
v -0.163825 1.004831 -0.085262
v -0.196363 -0.995169 -0.081254
v -0.228776 1.004831 -0.076522
v -0.261045 -0.995169 -0.071071
v -0.293149 1.004831 -0.064903
v -0.325068 -0.995169 -0.058023
v -0.356782 1.004831 -0.050434
v -0.388270 -0.995169 -0.042142
v -0.419513 1.004831 -0.033152
v -0.450491 -0.995169 -0.023470
v -0.481184 1.004831 -0.013101
v -0.511574 -0.995169 -0.002052
v -0.541640 1.004831 0.009670
v -0.571365 -0.995169 0.022056
v -0.600728 1.004831 0.035101
v -0.629712 -0.995169 0.048795
v -0.658298 1.004831 0.063130
v -0.686469 -0.995169 0.078096
v -0.714206 1.004831 0.093685
v -0.741492 -0.995169 0.109885
v -0.768309 1.004831 0.126689
v -0.794641 -0.995169 0.144083
v -0.820472 1.004831 0.162058
v -0.845784 -0.995169 0.180602
v -0.853140 -0.995169 0.186273
v -0.853140 -0.995169 0.186273
v -0.853140 1.004831 0.186274
v -0.853140 1.004831 0.186274
vt 0.375000 0.000000
vt 0.625000 0.000000
vt 0.625000 0.250000
vt 0.375000 0.250000
vt 0.375000 0.500000
vt 0.625000 0.500000
vt 0.625000 0.750000
vt 0.375000 0.750000
vt 0.375000 0.750000
vt 0.625000 0.750000
vt 0.625000 1.000000
vt 0.375000 1.000000
vt 0.607999 0.585366
vt 0.603999 0.914633
vt 0.611999 0.914633
vt 0.599999 0.585367
vt 0.595999 0.914634
vt 0.591999 0.585367
vt 0.587999 0.914634
vt 0.583999 0.585367
vt 0.579999 0.914634
vt 0.575999 0.585367
vt 0.571999 0.914634
vt 0.567999 0.585366
vt 0.563999 0.914634
vt 0.559999 0.585367
vt 0.555999 0.914634
vt 0.551999 0.585367
vt 0.547999 0.914634
vt 0.543999 0.585367
vt 0.539999 0.914633
vt 0.535999 0.585367
vt 0.531999 0.914634
vt 0.527999 0.585367
vt 0.523999 0.914634
vt 0.519999 0.585366
vt 0.515999 0.914633
vt 0.511999 0.585367
vt 0.507999 0.914634
vt 0.503999 0.585367
vt 0.499999 0.914634
vt 0.495999 0.585367
vt 0.491999 0.914634
vt 0.487999 0.585367
vt 0.483999 0.914633
vt 0.479999 0.585367
vt 0.475999 0.914633
vt 0.471999 0.585367
vt 0.467999 0.914634
vt 0.463999 0.585367
vt 0.459999 0.914633
vt 0.455999 0.585367
vt 0.451999 0.914633
vt 0.447999 0.585367
vt 0.443999 0.914634
vt 0.439999 0.585367
vt 0.435999 0.914633
vt 0.431999 0.585367
vt 0.427999 0.914633
vt 0.423999 0.585367
vt 0.419999 0.914634
vt 0.415999 0.585367
vt 0.411999 0.914634
vt 0.407999 0.585367
vt 0.403999 0.914634
vt 0.399999 0.585367
vt 0.395999 0.914634
vt 0.391999 0.585367
vt 0.387999 0.914633
vt 0.386811 0.585367
vt 0.375000 0.268358
vt 0.375000 0.250000
vt 0.625000 0.250000
vt 0.625000 0.268358
vt 0.625000 0.481642
vt 0.625000 0.500000
vt 0.375000 0.500000
vt 0.375000 0.481642
vt 0.356642 0.500000
vt 0.375000 0.500000
vt 0.375000 0.750000
vt 0.125000 0.750000
vt 0.125000 0.500000
vt 0.143358 0.500000
vt 0.144277 0.502410
vt 0.147441 0.510293
vt 0.150670 0.517933
vt 0.153962 0.525326
vt 0.157314 0.532468
vt 0.160725 0.539354
vt 0.164192 0.545980
vt 0.167713 0.552342
vt 0.171286 0.558434
vt 0.174909 0.564255
vt 0.178580 0.569800
vt 0.182295 0.575065
vt 0.186054 0.580047
vt 0.189852 0.584743
vt 0.193689 0.589150
vt 0.197561 0.593266
vt 0.201467 0.597087
vt 0.205403 0.600611
vt 0.209367 0.603837
vt 0.213357 0.606761
vt 0.217370 0.609383
vt 0.221403 0.611700
vt 0.225455 0.613711
vt 0.229522 0.615415
vt 0.233602 0.616810
vt 0.237693 0.617897
vt 0.241791 0.618673
vt 0.245894 0.619139
vt 0.250001 0.619294
vt 0.254107 0.619139
vt 0.258210 0.618673
vt 0.262308 0.617896
vt 0.266399 0.616810
vt 0.270479 0.615414
vt 0.274546 0.613710
vt 0.278598 0.611699
vt 0.282631 0.609382
vt 0.286644 0.606761
vt 0.290634 0.603836
vt 0.294598 0.600610
vt 0.298534 0.597086
vt 0.302440 0.593265
vt 0.306312 0.589149
vt 0.310149 0.584742
vt 0.313947 0.580046
vt 0.317706 0.575063
vt 0.321421 0.569798
vt 0.325092 0.564254
vt 0.328715 0.558433
vt 0.332288 0.552340
vt 0.335809 0.545979
vt 0.339276 0.539353
vt 0.342687 0.532467
vt 0.346039 0.525325
vt 0.349331 0.517931
vt 0.352559 0.510291
vt 0.355723 0.502408
vt 0.856642 0.500000
vt 0.875000 0.500000
vt 0.875000 0.750000
vt 0.625000 0.750000
vt 0.625000 0.500000
vt 0.643358 0.500000
vt 0.644277 0.502408
vt 0.647441 0.510291
vt 0.650669 0.517931
vt 0.653961 0.525325
vt 0.657313 0.532467
vt 0.660724 0.539353
vt 0.664191 0.545979
vt 0.667712 0.552340
vt 0.671285 0.558433
vt 0.674909 0.564254
vt 0.678579 0.569798
vt 0.682294 0.575063
vt 0.686053 0.580046
vt 0.689851 0.584742
vt 0.693688 0.589149
vt 0.697560 0.593265
vt 0.701466 0.597086
vt 0.705402 0.600610
vt 0.709366 0.603836
vt 0.713356 0.606760
vt 0.717369 0.609382
vt 0.721402 0.611699
vt 0.725454 0.613710
vt 0.729521 0.615414
vt 0.733601 0.616810
vt 0.737692 0.617896
vt 0.741790 0.618673
vt 0.745893 0.619139
vt 0.750000 0.619294
vt 0.754106 0.619139
vt 0.758209 0.618673
vt 0.762307 0.617896
vt 0.766398 0.616810
vt 0.770478 0.615415
vt 0.774545 0.613711
vt 0.778597 0.611700
vt 0.782630 0.609383
vt 0.786643 0.606761
vt 0.790633 0.603837
vt 0.794597 0.600611
vt 0.798533 0.597087
vt 0.802439 0.593266
vt 0.806311 0.589150
vt 0.810148 0.584743
vt 0.813946 0.580047
vt 0.817705 0.575065
vt 0.821420 0.569800
vt 0.825091 0.564255
vt 0.828714 0.558434
vt 0.832287 0.552342
vt 0.835808 0.545980
vt 0.839275 0.539354
vt 0.842686 0.532468
vt 0.846038 0.525326
vt 0.849330 0.517933
vt 0.852559 0.510293
vt 0.855723 0.502410
vt 0.386811 0.914633
vt 0.613186 0.914633
vt 0.613186 0.585366
vn -1.0000 0.0000 0.0000
vn 1.0000 0.0000 0.0000
vn 0.0000 0.0000 -1.0000
vn -0.5785 -0.0001 0.8157
vn -0.5613 0.0002 0.8276
vn -0.5960 0.0001 0.8030
vn -0.5411 -0.0002 0.8409
vn -0.5208 0.0002 0.8536
vn -0.5003 -0.0002 0.8658
vn -0.4796 0.0002 0.8774
vn -0.4588 -0.0002 0.8885
vn -0.4378 0.0002 0.8991
vn -0.4166 -0.0002 0.9091
vn -0.3954 0.0002 0.9185
vn -0.3740 -0.0002 0.9274
vn -0.3525 0.0002 0.9358
vn -0.3309 -0.0002 0.9436
vn -0.3092 0.0002 0.9510
vn -0.2875 -0.0002 0.9578
vn -0.2656 0.0002 0.9640
vn -0.2437 -0.0002 0.9698
vn -0.2217 0.0002 0.9751
vn -0.1997 -0.0002 0.9798
vn -0.1776 0.0002 0.9841
vn -0.1555 -0.0002 0.9878
vn -0.1334 0.0002 0.9911
vn -0.1112 -0.0002 0.9938
vn -0.0890 0.0002 0.9960
vn -0.0667 -0.0002 0.9977
vn -0.0445 0.0002 0.9990
vn -0.0222 -0.0002 0.9997
vn 0.0000 0.0002 1.0000
vn 0.0222 -0.0002 0.9997
vn 0.0445 0.0002 0.9990
vn 0.0667 -0.0002 0.9977
vn 0.0890 0.0002 0.9960
vn 0.1112 -0.0002 0.9938
vn 0.1334 0.0002 0.9911
vn 0.1555 -0.0002 0.9878
vn 0.1776 0.0002 0.9841
vn 0.1997 -0.0002 0.9798
vn 0.2217 0.0002 0.9751
vn 0.2437 -0.0002 0.9698
vn 0.2656 0.0002 0.9640
vn 0.2875 -0.0002 0.9578
vn 0.3092 0.0002 0.9510
vn 0.3309 -0.0002 0.9436
vn 0.3525 0.0002 0.9358
vn 0.3740 -0.0002 0.9274
vn 0.3954 0.0002 0.9185
vn 0.4166 -0.0002 0.9091
vn 0.4378 0.0002 0.8991
vn 0.4588 -0.0002 0.8885
vn 0.4796 0.0002 0.8775
vn 0.5003 -0.0002 0.8658
vn 0.5208 0.0002 0.8536
vn 0.5411 -0.0002 0.8409
vn 0.5613 0.0002 0.8276
vn 0.5785 -0.0001 0.8157
vn 0.5960 0.0001 0.8030
vn 0.5955 -0.0001 0.8033
vn 0.0000 0.0000 1.0000
vn 0.0000 1.0000 0.0000
vn 0.0000 -1.0000 0.0000
vn 0.6105 0.0000 0.7920
vn -0.6106 0.0000 0.7920
vn -0.5955 -0.0001 0.8033
usemtl Material.001
s 1
f 129/1/1 131/2/1 133/3/1 127/4/1
f 137/5/2 135/6/2 141/7/2 139/8/2
f 140/9/3 142/10/3 132/11/3 130/12/3
f 148/13/4 149/14/5 143/15/6
f 148/13/4 150/16/7 149/14/5
f 150/16/7 151/17/8 149/14/5
f 150/16/7 152/18/9 151/17/8
f 152/18/9 153/19/10 151/17/8
f 152/18/9 154/20/11 153/19/10
f 154/20/11 155/21/12 153/19/10
f 154/20/11 156/22/13 155/21/12
f 156/22/13 157/23/14 155/21/12
f 156/22/13 158/24/15 157/23/14
f 158/24/15 159/25/16 157/23/14
f 158/24/15 160/26/17 159/25/16
f 161/27/18 159/25/16 160/26/17
f 160/26/17 162/28/19 161/27/18
f 162/28/19 163/29/20 161/27/18
f 162/28/19 164/30/21 163/29/20
f 164/30/21 165/31/22 163/29/20
f 164/30/21 166/32/23 165/31/22
f 166/32/23 167/33/24 165/31/22
f 166/32/23 168/34/25 167/33/24
f 168/34/25 169/35/26 167/33/24
f 168/34/25 170/36/27 169/35/26
f 170/36/27 171/37/28 169/35/26
f 170/36/27 172/38/29 171/37/28
f 172/38/29 173/39/30 171/37/28
f 172/38/29 174/40/31 173/39/30
f 174/40/31 175/41/32 173/39/30
f 174/40/31 176/42/33 175/41/32
f 177/43/34 175/41/32 176/42/33
f 176/42/33 178/44/35 177/43/34
f 178/44/35 179/45/36 177/43/34
f 178/44/35 180/46/37 179/45/36
f 180/46/37 181/47/38 179/45/36
f 180/46/37 182/48/39 181/47/38
f 182/48/39 183/49/40 181/47/38
f 182/48/39 184/50/41 183/49/40
f 184/50/41 185/51/42 183/49/40
f 184/50/41 186/52/43 185/51/42
f 186/52/43 187/53/44 185/51/42
f 186/52/43 188/54/45 187/53/44
f 188/54/45 189/55/46 187/53/44
f 188/54/45 190/56/47 189/55/46
f 190/56/47 191/57/48 189/55/46
f 190/56/47 192/58/49 191/57/48
f 192/58/49 193/59/50 191/57/48
f 192/58/49 194/60/51 193/59/50
f 194/60/51 195/61/52 193/59/50
f 194/60/51 196/62/53 195/61/52
f 196/62/53 197/63/54 195/61/52
f 196/62/53 198/64/55 197/63/54
f 198/64/55 199/65/56 197/63/54
f 198/64/55 200/66/57 199/65/56
f 200/66/57 201/67/58 199/65/56
f 200/66/57 202/68/59 201/67/58
f 202/68/59 203/69/60 201/67/58
f 202/68/59 206/70/61 203/69/60
f 207/71/62 128/72/62 134/73/62 205/74/62
f 145/75/62 136/76/62 138/77/62 147/78/62
f 9/79/63 7/80/63 5/81/63 1/82/63 3/83/63 95/84/63 91/85/63 83/86/63 75/87/63 67/88/63 61/89/63 55/90/63 47/91/63 41/92/63 35/93/63 27/94/63 21/95/63 10/96/63 125/97/63 121/98/63 117/99/63 113/100/63 107/101/63 98/102/63 89/103/63 81/104/63 71/105/63 63/106/63 51/107/63 43/108/63 31/109/63 23/110/63 14/111/63 109/112/63 103/113/63 101/114/63 93/115/63 85/116/63 77/117/63 73/118/63 65/119/63 57/120/63 53/121/63 45/122/63 39/123/63 33/124/63 25/125/63 16/126/63 12/127/63 123/128/63 119/129/63 115/130/63 111/131/63 105/132/63 96/133/63 87/134/63 79/135/63 69/136/63 59/137/63 49/138/63 37/139/63 29/140/63 19/141/63
f 100/142/64 4/143/64 2/144/64 6/145/64 8/146/64 18/147/64 20/148/64 30/149/64 38/150/64 50/151/64 60/152/64 70/153/64 80/154/64 88/155/64 97/156/64 106/157/64 112/158/64 116/159/64 120/160/64 124/161/64 13/162/64 17/163/64 26/164/64 34/165/64 40/166/64 46/167/64 54/168/64 58/169/64 66/170/64 74/171/64 78/172/64 86/173/64 94/174/64 102/175/64 104/176/64 110/177/64 15/178/64 24/179/64 32/180/64 44/181/64 52/182/64 64/183/64 72/184/64 82/185/64 90/186/64 99/187/64 108/188/64 114/189/64 118/190/64 122/191/64 126/192/64 11/193/64 22/194/64 28/195/64 36/196/64 42/197/64 48/198/64 56/199/64 62/200/64 68/201/64 76/202/64 84/203/64 92/204/64
f 204/205/65 203/69/60 206/70/61
f 143/15/6 144/206/66 146/207/67
f 146/207/67 148/13/4 143/15/6
