# Blender v2.92.0 OBJ File: 'prism.blend'
# www.blender.org
mtllib prism.mtl
o Plane
v -3.750000 -0.000000 -2.500000
v -3.750000 -0.000000 2.500000
v 3.750000 -0.000000 -2.500000
v 3.750000 -0.000000 2.500000
v 0.000000 -0.000000 -2.500000
v -0.000000 -0.000000 2.500000
vt 0.000000 0.500000
vt 1.000000 0.500000
vt 1.000000 1.000000
vt 0.000000 1.000000
vt 0.000000 0.000000
vt 1.000000 0.000000
vn 0.0000 1.0000 -0.0000
usemtl wall
s off
f 5/1/1 6/2/1 4/3/1 3/4/1
f 1/5/1 2/6/1 6/2/1 5/1/1
o Plane.001
v -3.750000 -0.000000 -2.500000
v -3.750000 5.000000 -2.500000
v 3.750000 -0.000001 -2.500000
v 3.750000 4.999999 -2.500000
vt 0.000000 0.000000
vt 1.000000 0.000000
vt 1.000000 1.000000
vt 0.000000 1.000000
vn 0.0000 -0.0000 -1.0000
usemtl wall
s off
f 7/7/2 8/8/2 10/9/2 9/10/2
o Plane.002
v -3.750000 0.000001 -2.500000
v -3.749999 5.000001 -2.500000
v -3.750000 0.000001 2.500000
v -3.750000 5.000001 2.500000
vt 0.000000 0.000000
vt 1.000000 0.000000
vt 1.000000 1.000000
vt 0.000000 1.000000
vn 1.0000 -0.0000 0.0000
usemtl wall
s off
f 11/11/3 12/12/3 14/13/3 13/14/3
o Plane.003
v 3.750000 0.000000 2.500001
v 3.750000 5.000000 2.500001
v 3.750001 0.000000 -2.499999
v 3.750001 5.000000 -2.499999
vt 0.000000 0.000000
vt 1.000000 0.000000
vt 1.000000 1.000000
vt 0.000000 1.000000
vn -1.0000 0.0000 -0.0000
usemtl wall
s off
f 15/15/4 16/16/4 18/17/4 17/18/4
o Plane.004
v -3.750000 5.000000 2.500000
v -3.750000 4.999999 -2.500000
v 3.750000 5.000000 2.500000
v 3.750000 4.999999 -2.500000
vt 0.000000 0.000000
vt 1.000000 0.000000
vt 1.000000 1.000000
vt 0.000000 1.000000
vn -0.0000 -1.0000 0.0000
usemtl wall
s off
f 19/19/5 20/20/5 22/21/5 21/22/5
o Cube_Cube.001
v 0.250000 2.700612 0.750000
v 1.000000 4.200612 0.750000
v 0.250000 2.700612 -0.750000
v 1.000000 4.200612 -0.750000
v 1.750000 2.700612 0.750000
v 1.000000 4.200612 0.750000
v 1.750000 2.700612 -0.750000
v 1.000000 4.200612 -0.750000
v 1.000000 2.700612 -0.750000
v 1.000000 4.200612 -0.750000
v 1.000000 2.700612 0.750000
v 1.000000 4.200612 0.750000
vt 0.375000 0.000000
vt 0.625000 0.000000
vt 0.625000 0.250000
vt 0.375000 0.250000
vt 0.375000 0.375000
vt 0.625000 0.375000
vt 0.625000 0.500000
vt 0.375000 0.500000
vt 0.625000 0.750000
vt 0.375000 0.750000
vt 0.375000 0.875000
vt 0.625000 0.875000
vt 0.625000 1.000000
vt 0.375000 1.000000
vt 0.250000 0.500000
vt 0.250000 0.750000
vt 0.750000 0.500000
vt 0.875000 0.500000
vt 0.875000 0.750000
vt 0.750000 0.750000
vt 0.125000 0.500000
vt 0.125000 0.750000
vn -0.8944 0.4472 0.0000
vn 0.0000 0.0000 -1.0000
vn 0.8944 0.4472 -0.0000
vn 0.0000 0.0000 1.0000
vn 0.0000 -1.0000 0.0000
vn 0.0000 1.0000 0.0000
usemtl prism
s off
f 23/23/6 24/24/6 26/25/6 25/26/6
f 31/27/7 32/28/7 30/29/7 29/30/7
f 29/30/8 30/29/8 28/31/8 27/32/8
f 33/33/9 34/34/9 24/35/9 23/36/9
f 31/37/10 29/30/10 27/32/10 33/38/10
f 32/39/11 26/40/11 24/41/11 34/42/11
f 30/29/10 32/39/10 34/42/10 28/31/10
f 25/43/10 31/37/10 33/38/10 23/44/10
f 27/32/9 28/31/9 34/34/9 33/33/9
f 25/26/7 26/25/7 32/28/7 31/27/7
o Circle
v -1.036692 1.567536 -0.000000
v -0.997869 1.422648 -0.000000
v -0.998615 1.425432 -0.029264
v -1.000824 1.433677 -0.057403
v -1.004412 1.447066 -0.083336
v -1.009240 1.465085 -0.106066
v -1.015123 1.487041 -0.124720
v -1.021835 1.512090 -0.138582
v -1.029118 1.539270 -0.147118
v -1.036692 1.567536 -0.150000
v -1.044266 1.595803 -0.147118
v -1.051549 1.622983 -0.138582
v -1.058261 1.648032 -0.124720
v -1.064144 1.669988 -0.106066
v -1.068972 1.688007 -0.083336
v -1.072560 1.701396 -0.057403
v -1.074769 1.709641 -0.029264
v -1.075515 1.712425 0.000000
v -1.074769 1.709641 0.029264
v -1.072560 1.701396 0.057403
v -1.068972 1.688007 0.083336
v -1.064144 1.669988 0.106066
v -1.058261 1.648032 0.124720
v -1.051549 1.622983 0.138582
v -1.044266 1.595803 0.147118
v -1.036692 1.567536 0.150000
v -1.029118 1.539270 0.147118
v -1.021835 1.512090 0.138582
v -1.015123 1.487041 0.124720
v -1.009240 1.465084 0.106066
v -1.004412 1.447066 0.083335
v -1.000824 1.433677 0.057402
v -0.998615 1.425432 0.029263
vt 0.500000 0.500000
vt 0.500000 1.000000
vt 0.402455 0.990393
vt 0.308658 0.961940
vt 0.222215 0.915735
vt 0.146447 0.853553
vt 0.084265 0.777785
vt 0.038060 0.691342
vt 0.009607 0.597545
vt 0.000000 0.500000
vt 0.009607 0.402455
vt 0.038060 0.308658
vt 0.084265 0.222215
vt 0.146447 0.146447
vt 0.222215 0.084265
vt 0.308658 0.038060
vt 0.402455 0.009607
vt 0.500000 0.000000
vt 0.597545 0.009607
vt 0.691342 0.038060
vt 0.777785 0.084265
vt 0.853554 0.146447
vt 0.915735 0.222215
vt 0.961940 0.308659
vt 0.990393 0.402455
vt 1.000000 0.500000
vt 0.990393 0.597546
vt 0.961940 0.691342
vt 0.915734 0.777786
vt 0.853553 0.853554
vt 0.777785 0.915735
vt 0.691341 0.961940
vt 0.597544 0.990393
vn 0.9659 0.2588 -0.0000
usemtl light
s off
f 35/45/12 36/46/12 37/47/12
f 35/45/12 37/47/12 38/48/12
f 35/45/12 38/48/12 39/49/12
f 35/45/12 39/49/12 40/50/12
f 35/45/12 40/50/12 41/51/12
f 35/45/12 41/51/12 42/52/12
f 35/45/12 42/52/12 43/53/12
f 35/45/12 43/53/12 44/54/12
f 35/45/12 44/54/12 45/55/12
f 35/45/12 45/55/12 46/56/12
f 35/45/12 46/56/12 47/57/12
f 35/45/12 47/57/12 48/58/12
f 35/45/12 48/58/12 49/59/12
f 35/45/12 49/59/12 50/60/12
f 35/45/12 50/60/12 51/61/12
f 35/45/12 51/61/12 52/62/12
f 35/45/12 52/62/12 53/63/12
f 35/45/12 53/63/12 54/64/12
f 35/45/12 54/64/12 55/65/12
f 35/45/12 55/65/12 56/66/12
f 35/45/12 56/66/12 57/67/12
f 35/45/12 57/67/12 58/68/12
f 35/45/12 58/68/12 59/69/12
f 35/45/12 59/69/12 60/70/12
f 35/45/12 60/70/12 61/71/12
f 35/45/12 61/71/12 62/72/12
f 35/45/12 62/72/12 63/73/12
f 35/45/12 63/73/12 64/74/12
f 35/45/12 64/74/12 65/75/12
f 35/45/12 65/75/12 66/76/12
f 35/45/12 66/76/12 67/77/12
f 35/45/12 67/77/12 36/46/12
