# Blender v2.91.2 OBJ File: 'scene_1.blend'
# www.blender.org
mtllib scene_1.mtl
o Plane
v -3.000000 0.000000 3.000000
v 3.000000 0.000000 3.000000
v -3.000000 0.000000 -3.000000
v 3.000000 0.000000 -3.000000
vt 0.000000 0.000000
vt 1.000000 0.000000
vt 1.000000 1.000000
vt 0.000000 1.000000
vn 0.0000 1.0000 0.0000
usemtl None
s off
f 1/1/1 2/2/1 4/3/1 3/4/1
o Plane.001
v -3.000000 6.000000 -3.000000
v -3.000000 6.000000 3.000000
v -3.000000 0.000000 -3.000000
v -3.000000 0.000000 3.000000
vt 0.000000 0.000000
vt 1.000000 0.000000
vt 1.000000 1.000000
vt 0.000000 1.000000
vn 1.0000 -0.0000 0.0000
usemtl left_wall
s off
f 5/5/2 6/6/2 8/7/2 7/8/2
o Plane.002
v 3.000000 6.000000 3.000000
v 3.000000 6.000000 -3.000000
v 3.000000 0.000000 3.000000
v 3.000000 0.000000 -3.000000
vt 0.000000 0.000000
vt 1.000000 0.000000
vt 1.000000 1.000000
vt 0.000000 1.000000
vn -1.0000 -0.0000 -0.0000
usemtl right_wall
s off
f 9/9/3 10/10/3 12/11/3 11/12/3
o Plane.003
v 3.000000 6.000000 -3.000000
v -3.000000 6.000000 -2.999999
v 3.000000 0.000000 -3.000000
v -3.000000 0.000000 -2.999999
vt 0.000000 0.000000
vt 1.000000 0.000000
vt 1.000000 1.000000
vt 0.000000 1.000000
vn 0.0000 -0.0000 1.0000
usemtl None
s off
f 13/13/4 14/14/4 16/15/4 15/16/4
o Cube
v -3.010000 -0.010000 3.010000
v -3.010000 6.010000 3.010000
v -3.010000 -0.010000 -3.010000
v -3.010000 6.010000 -3.010000
v 3.010000 -0.010000 3.010000
v 3.010000 6.010000 3.010000
v 3.010000 -0.010000 -3.010000
v 3.010000 6.010000 -3.010000
vt 0.375000 0.000000
vt 0.625000 0.000000
vt 0.625000 0.250000
vt 0.375000 0.250000
vt 0.625000 0.500000
vt 0.375000 0.500000
vt 0.625000 0.750000
vt 0.375000 0.750000
vt 0.625000 1.000000
vt 0.375000 1.000000
vt 0.125000 0.500000
vt 0.125000 0.750000
vt 0.875000 0.500000
vt 0.875000 0.750000
vn -1.0000 0.0000 0.0000
vn 0.0000 0.0000 -1.0000
vn 1.0000 0.0000 0.0000
vn 0.0000 0.0000 1.0000
vn 0.0000 -1.0000 0.0000
vn 0.0000 1.0000 0.0000
usemtl fog
s off
f 17/17/5 18/18/5 20/19/5 19/20/5
f 19/20/6 20/19/6 24/21/6 23/22/6
f 23/22/7 24/21/7 22/23/7 21/24/7
f 21/24/8 22/23/8 18/25/8 17/26/8
f 19/27/9 23/22/9 21/24/9 17/28/9
f 24/21/10 20/29/10 18/30/10 22/23/10
o Plane.004_Plane.006
v -3.000000 6.000000 -3.000000
v 3.000000 6.000000 -3.000000
v -3.000000 6.000000 3.000000
v 3.000000 6.000000 3.000000
v -0.500000 6.000000 0.500000
v 0.500000 6.000000 0.500000
v 0.500000 6.000000 -0.500000
v -0.500000 6.000000 -0.500000
vt 0.000000 0.000000
vt 1.000000 0.000000
vt 1.000000 1.000000
vt 0.583333 0.583333
vt 0.583333 0.416667
vt 0.416667 0.416667
vt 0.416667 0.583333
vt 0.000000 1.000000
vn 0.0000 -1.0000 0.0000
usemtl None
s off
f 25/31/11 26/32/11 28/33/11 30/34/11 31/35/11 32/36/11
f 29/37/11 30/34/11 28/33/11 27/38/11 25/31/11 32/36/11
o Plane.005_Plane.007
v -0.500000 6.000000 -0.500000
v 0.500000 6.000000 -0.500000
v -0.500000 6.000000 0.500000
v 0.500000 6.000000 0.500000
vt 0.000000 0.000000
vt 1.000000 0.000000
vt 1.000000 1.000000
vt 0.000000 1.000000
vn 0.0000 -1.0000 0.0000
usemtl light
s off
f 33/39/12 34/40/12 36/41/12 35/42/12
o Cube.001
v -1.682480 0.000001 0.076946
v -1.682480 4.000001 0.076946
v -2.316407 0.000001 -1.282516
v -2.316407 4.000001 -1.282516
v -0.323018 0.000001 -0.556982
v -0.323018 4.000001 -0.556982
v -0.956946 0.000001 -1.916443
v -0.956946 4.000001 -1.916443
vt 0.375000 0.000000
vt 0.625000 0.000000
vt 0.625000 0.250000
vt 0.375000 0.250000
vt 0.625000 0.500000
vt 0.375000 0.500000
vt 0.625000 0.750000
vt 0.375000 0.750000
vt 0.625000 1.000000
vt 0.375000 1.000000
vt 0.125000 0.500000
vt 0.125000 0.750000
vt 0.875000 0.500000
vt 0.875000 0.750000
vn -0.9063 0.0000 0.4226
vn -0.4226 0.0000 -0.9063
vn 0.9063 0.0000 -0.4226
vn 0.4226 0.0000 0.9063
vn 0.0000 -1.0000 0.0000
vn 0.0000 1.0000 0.0000
usemtl None
s off
f 37/43/13 38/44/13 40/45/13 39/46/13
f 39/46/14 40/45/14 44/47/14 43/48/14
f 43/48/15 44/47/15 42/49/15 41/50/15
f 41/50/16 42/49/16 38/51/16 37/52/16
f 39/53/17 43/48/17 41/50/17 37/54/17
f 44/47/18 40/55/18 38/56/18 42/49/18
o Cube.002
v 0.470113 -0.000000 1.390817
v 0.470113 2.000000 1.390817
v 0.730585 -0.000000 -0.086395
v 0.730585 2.000000 -0.086395
v 1.947325 -0.000000 1.651289
v 1.947325 2.000000 1.651289
v 2.207797 -0.000000 0.174078
v 2.207797 2.000000 0.174078
vt 0.375000 0.000000
vt 0.625000 0.000000
vt 0.625000 0.250000
vt 0.375000 0.250000
vt 0.625000 0.500000
vt 0.375000 0.500000
vt 0.625000 0.750000
vt 0.375000 0.750000
vt 0.625000 1.000000
vt 0.375000 1.000000
vt 0.125000 0.500000
vt 0.125000 0.750000
vt 0.875000 0.500000
vt 0.875000 0.750000
vn -0.9848 0.0000 -0.1736
vn 0.1736 0.0000 -0.9848
vn 0.9848 0.0000 0.1736
vn -0.1736 0.0000 0.9848
vn 0.0000 -1.0000 0.0000
vn 0.0000 1.0000 0.0000
usemtl None
s off
f 45/57/19 46/58/19 48/59/19 47/60/19
f 47/60/20 48/59/20 52/61/20 51/62/20
f 51/62/21 52/61/21 50/63/21 49/64/21
f 49/64/22 50/63/22 46/65/22 45/66/22
f 47/67/23 51/62/23 49/64/23 45/68/23
f 52/61/24 48/69/24 46/70/24 50/63/24
