# Blender v2.91.0 OBJ File: 'transparent.blend'
# www.blender.org
mtllib transparent.mtl
o Plane.005
v -3.936568 -3.176479 0.309069
v 4.346303 -3.176478 -7.973803
v -3.936568 -3.176478 -7.973803
v 4.346303 -3.176479 0.309069
vt 1.000000 0.000000
vt 0.000000 1.000000
vt 0.000000 0.000000
vt 1.000000 1.000000
vn 0.0000 1.0000 0.0000
usemtl floor.001
s 1
f 1/1/1 2/2/1 3/3/1
f 1/1/1 4/4/1 2/2/1
o Plane.006
v -3.936568 -3.176479 -7.973803
v -3.936568 5.106392 0.309069
v -3.936568 -3.176479 0.309069
v -3.936568 5.106392 -7.973803
vt 1.000000 0.000000
vt 0.000000 1.000000
vt 0.000000 0.000000
vt 1.000000 1.000000
vn 1.0000 -0.0000 -0.0000
usemtl green_wall.001
s 1
f 5/5/2 6/6/2 7/7/2
f 5/5/2 8/8/2 6/6/2
o Plane.007
v 4.346303 -3.176479 0.309069
v 4.346303 5.106392 -7.973803
v 4.346303 -3.176479 -7.973803
v 4.346303 5.106392 0.309069
vt 1.000000 0.000000
vt 0.000000 1.000000
vt 0.000000 0.000000
vt 1.000000 1.000000
vn -1.0000 -0.0000 -0.0000
usemtl red_wall.001
s 1
f 9/9/3 10/10/3 11/11/3
f 9/9/3 12/12/3 10/10/3
o Plane.008
v 4.346303 -3.176479 -7.973803
v -3.936568 5.106392 -7.973803
v -3.936568 -3.176479 -7.973803
v 4.346303 5.106392 -7.973803
vt 1.000000 0.000000
vt 0.000000 1.000000
vt 0.000000 0.000000
vt 1.000000 1.000000
vn 0.0000 0.0000 1.0000
usemtl back_wall.001
s 1
f 13/13/4 14/14/4 15/15/4
f 13/13/4 16/16/4 14/14/4
o Plane.009
v -0.627929 5.106393 -3.084627
v -3.936567 5.106390 0.309069
v -3.936567 5.106395 -7.973802
v 1.372108 5.106393 -3.084663
v 4.346303 5.106396 -7.973802
v 4.346303 5.106391 0.309069
v -0.627928 5.106394 -5.084688
v 1.372114 5.106394 -5.084703
vt 0.399456 0.590275
vt 0.000000 1.000000
vt 0.000000 0.000000
vt 0.640922 0.590271
vt 1.000000 0.000000
vt 1.000000 1.000000
vt 0.399456 0.348806
vt 0.640923 0.348804
vn 0.0000 -1.0000 -0.0000
usemtl ceiling.001
s 1
f 17/17/5 18/18/5 19/19/5
f 20/20/5 21/21/5 22/22/5
f 19/19/5 21/21/5 23/23/5
f 21/21/5 24/24/5 23/23/5
f 23/23/5 17/17/5 19/19/5
f 22/22/5 18/18/5 17/17/5
f 20/20/5 24/24/5 21/21/5
f 22/22/5 17/17/5 20/20/5
o Plane.005_Plane.001
v 1.372066 5.106393 -5.084544
v -0.627934 5.106393 -3.084544
v -0.627934 5.106393 -5.084544
v 1.372066 5.106393 -3.084544
vt 1.000000 0.000000
vt 0.000000 1.000000
vt 0.000000 0.000000
vt 1.000000 1.000000
vn 0.0000 -1.0000 0.0000
usemtl lamp.001
s 1
f 25/25/6 26/26/6 27/27/6
f 25/25/6 28/28/6 26/26/6
o Cube.002_Cube
v -3.362565 -3.176478 -5.964660
v -3.362565 4.248713 -5.964660
v -3.362565 -3.176478 -6.714829
v -3.362565 4.248713 -6.714829
v -2.612397 -3.176478 -5.964660
v -2.612397 4.248713 -5.964660
v -2.612397 -3.176478 -6.714829
v -2.612397 4.248713 -6.714829
vt 0.375000 0.000000
vt 0.625000 0.000000
vt 0.625000 0.250000
vt 0.375000 0.250000
vt 0.625000 0.500000
vt 0.375000 0.500000
vt 0.625000 0.750000
vt 0.375000 0.750000
vt 0.625000 1.000000
vt 0.375000 1.000000
vt 0.125000 0.500000
vt 0.125000 0.750000
vt 0.875000 0.500000
vt 0.875000 0.750000
vn -1.0000 0.0000 0.0000
vn 0.0000 0.0000 -1.0000
vn 1.0000 0.0000 0.0000
vn 0.0000 0.0000 1.0000
vn 0.0000 -1.0000 0.0000
vn 0.0000 1.0000 0.0000
usemtl None
s off
f 29/29/7 30/30/7 32/31/7 31/32/7
f 31/32/8 32/31/8 36/33/8 35/34/8
f 35/34/9 36/33/9 34/35/9 33/36/9
f 33/36/10 34/35/10 30/37/10 29/38/10
f 31/39/11 35/34/11 33/36/11 29/40/11
f 36/33/12 32/41/12 30/42/12 34/35/12
o Cube.001_Cube.009
v -2.286134 -3.176480 -4.723045
v -2.286134 4.248712 -4.723045
v -2.286134 -3.176480 -5.473214
v -2.286134 4.248712 -5.473214
v -1.535965 -3.176480 -4.723045
v -1.535965 4.248712 -4.723045
v -1.535965 -3.176480 -5.473214
v -1.535965 4.248712 -5.473214
vt 0.375000 0.000000
vt 0.625000 0.000000
vt 0.625000 0.250000
vt 0.375000 0.250000
vt 0.625000 0.500000
vt 0.375000 0.500000
vt 0.625000 0.750000
vt 0.375000 0.750000
vt 0.625000 1.000000
vt 0.375000 1.000000
vt 0.125000 0.500000
vt 0.125000 0.750000
vt 0.875000 0.500000
vt 0.875000 0.750000
vn -1.0000 0.0000 0.0000
vn 0.0000 0.0000 -1.0000
vn 1.0000 0.0000 0.0000
vn 0.0000 0.0000 1.0000
vn 0.0000 -1.0000 0.0000
vn 0.0000 1.0000 0.0000
usemtl None
s off
f 37/43/13 38/44/13 40/45/13 39/46/13
f 39/46/14 40/45/14 44/47/14 43/48/14
f 43/48/15 44/47/15 42/49/15 41/50/15
f 41/50/16 42/49/16 38/51/16 37/52/16
f 39/53/17 43/48/17 41/50/17 37/54/17
f 44/47/18 40/55/18 38/56/18 42/49/18
o Cube.003_Cube.011
v -1.264997 -3.176481 -5.780164
v -1.264997 4.248711 -5.780164
v -1.264997 -3.176481 -6.530333
v -1.264997 4.248711 -6.530333
v -0.514829 -3.176481 -5.780164
v -0.514829 4.248711 -5.780164
v -0.514829 -3.176481 -6.530333
v -0.514829 4.248711 -6.530333
vt 0.375000 0.000000
vt 0.625000 0.000000
vt 0.625000 0.250000
vt 0.375000 0.250000
vt 0.625000 0.500000
vt 0.375000 0.500000
vt 0.625000 0.750000
vt 0.375000 0.750000
vt 0.625000 1.000000
vt 0.375000 1.000000
vt 0.125000 0.500000
vt 0.125000 0.750000
vt 0.875000 0.500000
vt 0.875000 0.750000
vn -1.0000 0.0000 0.0000
vn 0.0000 0.0000 -1.0000
vn 1.0000 0.0000 0.0000
vn 0.0000 0.0000 1.0000
vn 0.0000 -1.0000 0.0000
vn 0.0000 1.0000 0.0000
usemtl None
s off
f 45/57/19 46/58/19 48/59/19 47/60/19
f 47/60/20 48/59/20 52/61/20 51/62/20
f 51/62/21 52/61/21 50/63/21 49/64/21
f 49/64/22 50/63/22 46/65/22 45/66/22
f 47/67/23 51/62/23 49/64/23 45/68/23
f 52/61/24 48/69/24 46/70/24 50/63/24
o Cube.004_Cube.012
v -0.180506 -3.176482 -4.778963
v -0.180506 4.248710 -4.778963
v -0.180506 -3.176482 -5.529131
v -0.180506 4.248710 -5.529131
v 0.569663 -3.176482 -4.778963
v 0.569663 4.248710 -4.778963
v 0.569663 -3.176482 -5.529131
v 0.569663 4.248710 -5.529131
vt 0.375000 0.000000
vt 0.625000 0.000000
vt 0.625000 0.250000
vt 0.375000 0.250000
vt 0.625000 0.500000
vt 0.375000 0.500000
vt 0.625000 0.750000
vt 0.375000 0.750000
vt 0.625000 1.000000
vt 0.375000 1.000000
vt 0.125000 0.500000
vt 0.125000 0.750000
vt 0.875000 0.500000
vt 0.875000 0.750000
vn -1.0000 0.0000 0.0000
vn 0.0000 0.0000 -1.0000
vn 1.0000 0.0000 0.0000
vn 0.0000 0.0000 1.0000
vn 0.0000 -1.0000 0.0000
vn 0.0000 1.0000 0.0000
usemtl None
s off
f 53/71/25 54/72/25 56/73/25 55/74/25
f 55/74/26 56/73/26 60/75/26 59/76/26
f 59/76/27 60/75/27 58/77/27 57/78/27
f 57/78/28 58/77/28 54/79/28 53/80/28
f 55/81/29 59/76/29 57/78/29 53/82/29
f 60/75/30 56/83/30 54/84/30 58/77/30
o Cube.005_Cube.013
v 0.809303 -3.176482 -5.910557
v 0.809303 4.248710 -5.910557
v 0.809303 -3.176482 -6.660726
v 0.809303 4.248710 -6.660726
v 1.559471 -3.176482 -5.910557
v 1.559471 4.248710 -5.910557
v 1.559471 -3.176482 -6.660726
v 1.559471 4.248710 -6.660726
vt 0.375000 0.000000
vt 0.625000 0.000000
vt 0.625000 0.250000
vt 0.375000 0.250000
vt 0.625000 0.500000
vt 0.375000 0.500000
vt 0.625000 0.750000
vt 0.375000 0.750000
vt 0.625000 1.000000
vt 0.375000 1.000000
vt 0.125000 0.500000
vt 0.125000 0.750000
vt 0.875000 0.500000
vt 0.875000 0.750000
vn -1.0000 0.0000 0.0000
vn 0.0000 0.0000 -1.0000
vn 1.0000 0.0000 0.0000
vn 0.0000 0.0000 1.0000
vn 0.0000 -1.0000 0.0000
vn 0.0000 1.0000 0.0000
usemtl None
s off
f 61/85/31 62/86/31 64/87/31 63/88/31
f 63/88/32 64/87/32 68/89/32 67/90/32
f 67/90/33 68/89/33 66/91/33 65/92/33
f 65/92/34 66/91/34 62/93/34 61/94/34
f 63/95/35 67/90/35 65/92/35 61/96/35
f 68/89/36 64/97/36 62/98/36 66/91/36
o Cube.006_Cube.014
v 1.759327 -3.176480 -4.740695
v 1.759327 4.248712 -4.740695
v 1.759327 -3.176480 -5.490863
v 1.759327 4.248712 -5.490863
v 2.509495 -3.176480 -4.740695
v 2.509495 4.248712 -4.740695
v 2.509495 -3.176480 -5.490863
v 2.509495 4.248712 -5.490863
vt 0.375000 0.000000
vt 0.625000 0.000000
vt 0.625000 0.250000
vt 0.375000 0.250000
vt 0.625000 0.500000
vt 0.375000 0.500000
vt 0.625000 0.750000
vt 0.375000 0.750000
vt 0.625000 1.000000
vt 0.375000 1.000000
vt 0.125000 0.500000
vt 0.125000 0.750000
vt 0.875000 0.500000
vt 0.875000 0.750000
vn -1.0000 0.0000 0.0000
vn 0.0000 0.0000 -1.0000
vn 1.0000 0.0000 0.0000
vn 0.0000 0.0000 1.0000
vn 0.0000 -1.0000 0.0000
vn 0.0000 1.0000 0.0000
usemtl None
s off
f 69/99/37 70/100/37 72/101/37 71/102/37
f 71/102/38 72/101/38 76/103/38 75/104/38
f 75/104/39 76/103/39 74/105/39 73/106/39
f 73/106/40 74/105/40 70/107/40 69/108/40
f 71/109/41 75/104/41 73/106/41 69/110/41
f 76/103/42 72/111/42 70/112/42 74/105/42
o Cube.008_Cube.015
v 2.902129 -3.176481 -5.752211
v 2.902129 4.248711 -5.752211
v 2.902129 -3.176481 -6.502380
v 2.902129 4.248711 -6.502380
v 3.652297 -3.176481 -5.752211
v 3.652297 4.248711 -5.752211
v 3.652297 -3.176481 -6.502380
v 3.652297 4.248711 -6.502380
vt 0.375000 0.000000
vt 0.625000 0.000000
vt 0.625000 0.250000
vt 0.375000 0.250000
vt 0.625000 0.500000
vt 0.375000 0.500000
vt 0.625000 0.750000
vt 0.375000 0.750000
vt 0.625000 1.000000
vt 0.375000 1.000000
vt 0.125000 0.500000
vt 0.125000 0.750000
vt 0.875000 0.500000
vt 0.875000 0.750000
vn -1.0000 0.0000 0.0000
vn 0.0000 0.0000 -1.0000
vn 1.0000 0.0000 0.0000
vn 0.0000 0.0000 1.0000
vn 0.0000 -1.0000 0.0000
vn 0.0000 1.0000 0.0000
usemtl None
s off
f 77/113/43 78/114/43 80/115/43 79/116/43
f 79/116/44 80/115/44 84/117/44 83/118/44
f 83/118/45 84/117/45 82/119/45 81/120/45
f 81/120/46 82/119/46 78/121/46 77/122/46
f 79/123/47 83/118/47 81/120/47 77/124/47
f 84/117/48 80/125/48 78/126/48 82/119/48
