# Blender v2.91.0 OBJ File: ''
# www.blender.org
mtllib transparent_center.mtl
o Cube.001_Cube.009
v 1.671215 -2.118075 0.608357
v 1.671215 1.143622 0.608357
v 1.671215 1.143622 1.028079
v 1.671215 -2.118075 1.028079
v -1.709941 1.143622 1.028079
v -1.709941 -2.118075 1.028080
v -1.709941 1.143622 0.608357
v -1.709941 -2.118075 0.608357
vt 0.375000 0.000000
vt 0.625000 0.000000
vt 0.625000 0.250000
vt 0.375000 0.250000
vt 0.625000 0.500000
vt 0.375000 0.500000
vt 0.625000 0.750000
vt 0.375000 0.750000
vt 0.625000 1.000000
vt 0.375000 1.000000
vt 0.125000 0.500000
vt 0.125000 0.750000
vt 0.875000 0.500000
vt 0.875000 0.750000
vn 1.0000 0.0000 0.0000
vn 0.0000 0.0000 1.0000
vn -1.0000 0.0000 0.0000
vn 0.0000 0.0000 -1.0000
vn 0.0000 -1.0000 0.0000
vn 0.0000 1.0000 0.0000
usemtl Material.001
s off
f 1/1/1 2/2/1 3/3/1 4/4/1
f 4/4/2 3/3/2 5/5/2 6/6/2
f 6/6/3 5/5/3 7/7/3 8/8/3
f 8/8/4 7/7/4 2/9/4 1/10/4
f 4/11/5 6/6/5 8/8/5 1/12/5
f 5/5/6 3/13/6 2/14/6 7/7/6
o Cube.001_Cube.001_Cube.001_Cube.004
v -4.160798 -4.628662 3.636255
v 4.122073 -4.628662 -4.646616
v -4.160798 -4.628662 -4.646616
v 4.122073 -4.628662 3.636255
vt 1.000000 0.000000
vt 1.000000 1.000000
vt 0.000000 1.000000
vt 0.000000 0.000000
vn 0.0000 1.0000 0.0000
usemtl floor
s 1
f 9/15/7 12/16/7 10/17/7
f 9/15/7 10/17/7 11/18/7
o Cube.001_Cube.002_Cube.001_Cube.005
v -4.160799 -4.628662 -4.646616
v -4.160798 3.654209 3.636255
v -4.160799 -4.628662 3.636255
v -4.160799 3.654209 -4.646616
vt 1.000000 0.000000
vt 1.000000 1.000000
vt 0.000000 1.000000
vt 0.000000 0.000000
vn 1.0000 -0.0000 -0.0000
usemtl green_wall
s 1
f 13/19/8 16/20/8 14/21/8
f 13/19/8 14/21/8 15/22/8
o Cube.001_Cube.003_Cube.001_Cube.006
v 4.122072 -4.628662 3.636255
v 4.122072 3.654209 -4.646616
v 4.122073 -4.628662 -4.646616
v 4.122072 3.654209 3.636255
vt 1.000000 0.000000
vt 1.000000 1.000000
vt 0.000000 1.000000
vt 0.000000 0.000000
vn -1.0000 -0.0000 -0.0000
usemtl red_wall
s 1
f 17/23/9 20/24/9 18/25/9
f 17/23/9 18/25/9 19/26/9
o Cube.001_Cube.004_Cube.001_Cube.007
v 4.122073 -4.628662 -4.646616
v -4.160798 3.654209 -4.646616
v -4.160798 -4.628662 -4.646616
v 4.122073 3.654209 -4.646616
vt 1.000000 0.000000
vt 1.000000 1.000000
vt 0.000000 1.000000
vt 0.000000 0.000000
vn 0.0000 0.0000 1.0000
usemtl back_wall
s 1
f 21/27/10 24/28/10 22/29/10
f 21/27/10 22/29/10 23/30/10
o Cube.001_Cube.005_Cube.001_Cube.008
v -0.852159 3.654210 0.242559
v -4.160798 3.654207 3.636255
v -4.160798 3.654212 -4.646616
v 4.122073 3.654208 3.636255
v 1.147878 3.654210 0.242523
v -0.852158 3.654211 -1.757502
v 1.147884 3.654211 -1.757517
v 4.122073 3.654213 -4.646616
vt 1.000000 1.000000
vt 0.000000 1.000000
vt 0.399456 0.590275
vt 0.000000 0.000000
vt 0.399456 0.348806
vt 0.640922 0.590271
vt 1.000000 0.000000
vt 0.640923 0.348804
vn 0.0000 -1.0000 -0.0000
usemtl ceiling
s 1
f 28/31/11 26/32/11 25/33/11
f 25/33/11 26/32/11 27/34/11
f 30/35/11 25/33/11 27/34/11
f 28/31/11 25/33/11 29/36/11
f 27/34/11 32/37/11 30/35/11
f 32/37/11 31/38/11 30/35/11
f 29/36/11 31/38/11 32/37/11
f 29/36/11 32/37/11 28/31/11
o Cube.001_Cube.006_Cube.001_Cube.010
v 1.147836 3.654210 -1.757358
v -0.852164 3.654210 0.242642
v -0.852164 3.654210 -1.757358
v 1.147836 3.654210 0.242642
vt 1.000000 0.000000
vt 1.000000 1.000000
vt 0.000000 1.000000
vt 0.000000 0.000000
vn 0.0000 -1.0000 0.0000
usemtl lamp
s 1
f 33/39/12 36/40/12 34/41/12
f 33/39/12 34/41/12 35/42/12
o Cube.001_Cube.007_Cube.001_Cube.011
v -1.709941 -2.118075 0.608357
v -1.709941 1.143622 0.608357
v -1.709941 -2.118075 1.028079
v -2.112583 -2.118075 0.608357
v -2.112583 -2.118075 1.028080
v -2.112583 1.143622 0.608357
v -2.112583 1.143622 1.028079
v -1.709941 1.143622 1.028079
vt 0.375000 0.750000
vt 0.625000 0.750000
vt 0.625000 1.000000
vt 0.375000 1.000000
vt 0.375000 0.000000
vt 0.625000 0.000000
vt 0.625000 0.250000
vt 0.375000 0.250000
vt 0.125000 0.500000
vt 0.375000 0.500000
vt 0.125000 0.750000
vt 0.625000 0.500000
vt 0.875000 0.500000
vt 0.875000 0.750000
vn 0.0000 0.0000 -1.0000
vn 1.0000 -0.0000 0.0000
vn 0.0000 -1.0000 0.0000
vn -1.0000 -0.0000 0.0000
vn 0.0000 1.0000 0.0000
vn 0.0000 0.0000 1.0000
usemtl Material.003
s off
f 40/43/13 42/44/13 38/45/13 37/46/13
f 37/47/14 38/48/14 44/49/14 39/50/14
f 39/51/15 41/52/15 40/43/15 37/53/15
f 41/52/16 43/54/16 42/44/16 40/43/16
f 43/54/17 44/55/17 38/56/17 42/44/17
f 39/50/18 44/49/18 43/54/18 41/52/18
o Cube.001_Cube.008_Cube.001_Cube.012
v 2.073857 -2.118075 0.608356
v 2.073857 1.143622 0.608356
v 2.073857 -2.118075 1.028078
v 1.671215 -2.118075 0.608356
v 1.671215 -2.118075 1.028079
v 1.671215 1.143622 0.608356
v 1.671215 1.143622 1.028078
v 2.073857 1.143622 1.028078
vt 0.375000 0.750000
vt 0.625000 0.750000
vt 0.625000 1.000000
vt 0.375000 1.000000
vt 0.375000 0.000000
vt 0.625000 0.000000
vt 0.625000 0.250000
vt 0.375000 0.250000
vt 0.125000 0.500000
vt 0.375000 0.500000
vt 0.125000 0.750000
vt 0.625000 0.500000
vt 0.875000 0.500000
vt 0.875000 0.750000
vn 0.0000 0.0000 -1.0000
vn 1.0000 0.0000 0.0000
vn 0.0000 -1.0000 0.0000
vn -1.0000 0.0000 0.0000
vn 0.0000 1.0000 0.0000
vn 0.0000 0.0000 1.0000
usemtl Material.003
s off
f 48/57/19 50/58/19 46/59/19 45/60/19
f 45/61/20 46/62/20 52/63/20 47/64/20
f 47/65/21 49/66/21 48/57/21 45/67/21
f 49/66/22 51/68/22 50/58/22 48/57/22
f 51/68/23 52/69/23 46/70/23 50/58/23
f 47/64/24 52/63/24 51/68/24 49/66/24
o Cube.001_Cube.010_Cube.001_Cube.013
v -2.112583 1.143622 0.608356
v 2.071226 1.143623 0.608356
v -2.112583 1.143622 1.028078
v -2.112583 1.546264 0.608356
v -2.112583 1.546264 1.028079
v 2.071226 1.546265 0.608356
v 2.071226 1.546265 1.028079
v 2.071226 1.143623 1.028079
vt 0.375000 0.750000
vt 0.625000 0.750000
vt 0.625000 1.000000
vt 0.375000 1.000000
vt 0.375000 0.000000
vt 0.625000 0.000000
vt 0.625000 0.250000
vt 0.375000 0.250000
vt 0.125000 0.500000
vt 0.375000 0.500000
vt 0.125000 0.750000
vt 0.625000 0.500000
vt 0.875000 0.500000
vt 0.875000 0.750000
vn -0.0000 0.0000 -1.0000
vn 0.0000 -1.0000 0.0000
vn -1.0000 0.0000 0.0000
vn -0.0000 1.0000 0.0000
vn 1.0000 0.0000 0.0000
vn -0.0000 -0.0000 1.0000
usemtl Material.003
s off
f 56/71/25 58/72/25 54/73/25 53/74/25
f 53/75/26 54/76/26 60/77/26 55/78/26
f 55/79/27 57/80/27 56/71/27 53/81/27
f 57/80/28 59/82/28 58/72/28 56/71/28
f 59/82/29 60/83/29 54/84/29 58/72/29
f 55/78/30 60/77/30 59/82/30 57/80/30
o Cube.001_Cube.011_Cube.001_Cube.014
v -2.112583 -2.520717 0.608357
v 2.071226 -2.520717 0.608357
v -2.112583 -2.520717 1.028079
v -2.112583 -2.118075 0.608357
v -2.112583 -2.118075 1.028080
v 2.071226 -2.118074 0.608357
v 2.071226 -2.118074 1.028079
v 2.071226 -2.520717 1.028079
vt 0.375000 0.750000
vt 0.625000 0.750000
vt 0.625000 1.000000
vt 0.375000 1.000000
vt 0.375000 0.000000
vt 0.625000 0.000000
vt 0.625000 0.250000
vt 0.375000 0.250000
vt 0.125000 0.500000
vt 0.375000 0.500000
vt 0.125000 0.750000
vt 0.625000 0.500000
vt 0.875000 0.500000
vt 0.875000 0.750000
vn 0.0000 0.0000 -1.0000
vn 0.0000 -1.0000 0.0000
vn -1.0000 0.0000 0.0000
vn -0.0000 1.0000 0.0000
vn 1.0000 0.0000 0.0000
vn 0.0000 -0.0000 1.0000
usemtl Material.003
s off
f 64/85/31 66/86/31 62/87/31 61/88/31
f 61/89/32 62/90/32 68/91/32 63/92/32
f 63/93/33 65/94/33 64/85/33 61/95/33
f 65/94/34 67/96/34 66/86/34 64/85/34
f 67/96/35 68/97/35 62/98/35 66/86/35
f 63/92/36 68/91/36 67/96/36 65/94/36
