# Blender v2.91.0 OBJ File: 'transparent.blend'
# www.blender.org
mtllib transparent.mtl
o Plane.005
v -2.490905 -0.000000 3.783882
v 5.791966 0.000000 -4.498989
v -2.490905 0.000000 -4.498989
v 5.791966 -0.000000 3.783882
vt 1.000000 0.000000
vt 0.000000 1.000000
vt 0.000000 0.000000
vt 1.000000 1.000000
vn 0.0000 1.0000 0.0000
usemtl floor.001
s 1
f 1/1/1 2/2/1 3/3/1
f 1/1/1 4/4/1 2/2/1
o Plane.006
v -2.490906 0.000000 -4.498989
v -2.490905 8.282871 3.783882
v -2.490906 0.000000 3.783882
v -2.490906 8.282871 -4.498989
vt 1.000000 0.000000
vt 0.000000 1.000000
vt 0.000000 0.000000
vt 1.000000 1.000000
vn 1.0000 -0.0000 -0.0000
usemtl green_wall.001
s 1
f 5/5/2 6/6/2 7/7/2
f 5/5/2 8/8/2 6/6/2
o Plane.007
v 5.791965 0.000000 3.783882
v 5.791965 8.282871 -4.498989
v 5.791966 0.000000 -4.498989
v 5.791965 8.282871 3.783882
vt 1.000000 0.000000
vt 0.000000 1.000000
vt 0.000000 0.000000
vt 1.000000 1.000000
vn -1.0000 -0.0000 -0.0000
usemtl red_wall.001
s 1
f 9/9/3 10/10/3 11/11/3
f 9/9/3 12/12/3 10/10/3
o Plane.008
v 5.791966 0.000000 -4.498989
v -2.490905 8.282871 -4.498989
v -2.490905 0.000000 -4.498989
v 5.791966 8.282871 -4.498989
vt 1.000000 0.000000
vt 0.000000 1.000000
vt 0.000000 0.000000
vt 1.000000 1.000000
vn 0.0000 0.0000 1.0000
usemtl back_wall.001
s 1
f 13/13/4 14/14/4 15/15/4
f 13/13/4 16/16/4 14/14/4
o Plane.009
v 0.817734 8.282872 0.390186
v -2.490905 8.282869 3.783882
v -2.490905 8.282874 -4.498989
v 2.817771 8.282872 0.390150
v 5.791966 8.282875 -4.498989
v 5.791966 8.282870 3.783882
v 0.817735 8.282873 -1.609875
v 2.817777 8.282873 -1.609890
vt 0.399456 0.590275
vt 0.000000 1.000000
vt 0.000000 0.000000
vt 0.640922 0.590271
vt 1.000000 0.000000
vt 1.000000 1.000000
vt 0.399456 0.348806
vt 0.640923 0.348804
vn 0.0000 -1.0000 -0.0000
usemtl ceiling.001
s 1
f 17/17/5 18/18/5 19/19/5
f 20/20/5 21/21/5 22/22/5
f 19/19/5 21/21/5 23/23/5
f 21/21/5 24/24/5 23/23/5
f 23/23/5 17/17/5 19/19/5
f 22/22/5 18/18/5 17/17/5
f 20/20/5 24/24/5 21/21/5
f 22/22/5 17/17/5 20/20/5
o Plane.005_Plane.001
v 2.817729 8.282872 -1.609731
v 0.817729 8.282872 0.390269
v 0.817729 8.282872 -1.609731
v 2.817729 8.282872 0.390269
vt 1.000000 0.000000
vt 0.000000 1.000000
vt 0.000000 0.000000
vt 1.000000 1.000000
vn 0.0000 -1.0000 0.0000
usemtl lamp.001
s 1
f 25/25/6 26/26/6 27/27/6
f 25/25/6 28/28/6 26/26/6
o Cube_Cube.003
v -0.337388 2.153517 3.358691
v -0.337388 6.129354 3.358691
v -0.337388 2.153517 2.966975
v -0.337388 6.129354 2.966975
v 3.638449 2.153517 3.358691
v 3.638449 6.129354 3.358691
v 3.638449 2.153517 2.966975
v 3.638449 6.129354 2.966975
vt 0.375000 0.000000
vt 0.625000 0.000000
vt 0.625000 0.250000
vt 0.375000 0.250000
vt 0.625000 0.500000
vt 0.375000 0.500000
vt 0.625000 0.750000
vt 0.375000 0.750000
vt 0.625000 1.000000
vt 0.375000 1.000000
vt 0.125000 0.500000
vt 0.125000 0.750000
vt 0.875000 0.500000
vt 0.875000 0.750000
vn -1.0000 0.0000 0.0000
vn 0.0000 0.0000 -1.0000
vn 1.0000 0.0000 0.0000
vn 0.0000 0.0000 1.0000
vn 0.0000 -1.0000 0.0000
vn 0.0000 1.0000 0.0000
usemtl first_lens
s off
f 29/29/7 30/30/7 32/31/7 31/32/7
f 31/32/8 32/31/8 36/33/8 35/34/8
f 35/34/9 36/33/9 34/35/9 33/36/9
f 33/36/10 34/35/10 30/37/10 29/38/10
f 31/39/11 35/34/11 33/36/11 29/40/11
f 36/33/12 32/41/12 30/42/12 34/35/12
o Cube.002_Cube
v -1.223628 0.000000 -2.365160
v -1.223628 6.376669 -2.365160
v -1.223628 0.000000 -3.115328
v -1.223628 6.376669 -3.115328
v -0.473460 0.000000 -2.365160
v -0.473460 6.376669 -2.365160
v -0.473460 0.000000 -3.115328
v -0.473460 6.376669 -3.115328
vt 0.375000 0.000000
vt 0.625000 0.000000
vt 0.625000 0.250000
vt 0.375000 0.250000
vt 0.625000 0.500000
vt 0.375000 0.500000
vt 0.625000 0.750000
vt 0.375000 0.750000
vt 0.625000 1.000000
vt 0.375000 1.000000
vt 0.125000 0.500000
vt 0.125000 0.750000
vt 0.875000 0.500000
vt 0.875000 0.750000
vn -1.0000 0.0000 0.0000
vn 0.0000 0.0000 -1.0000
vn 1.0000 0.0000 0.0000
vn 0.0000 0.0000 1.0000
vn 0.0000 -1.0000 0.0000
vn 0.0000 1.0000 0.0000
usemtl None
s off
f 37/43/13 38/44/13 40/45/13 39/46/13
f 39/46/14 40/45/14 44/47/14 43/48/14
f 43/48/15 44/47/15 42/49/15 41/50/15
f 41/50/16 42/49/16 38/51/16 37/52/16
f 39/53/17 43/48/17 41/50/17 37/54/17
f 44/47/18 40/55/18 38/56/18 42/49/18
o Cube.001
v -0.253858 0.000001 -1.342809
v -0.253858 6.376670 -1.342809
v -0.253858 0.000001 -2.092977
v -0.253858 6.376670 -2.092977
v 0.496311 0.000001 -1.342809
v 0.496311 6.376670 -1.342809
v 0.496311 0.000001 -2.092977
v 0.496311 6.376670 -2.092977
vt 0.375000 0.000000
vt 0.625000 0.000000
vt 0.625000 0.250000
vt 0.375000 0.250000
vt 0.625000 0.500000
vt 0.375000 0.500000
vt 0.625000 0.750000
vt 0.375000 0.750000
vt 0.625000 1.000000
vt 0.375000 1.000000
vt 0.125000 0.500000
vt 0.125000 0.750000
vt 0.875000 0.500000
vt 0.875000 0.750000
vn -1.0000 0.0000 0.0000
vn 0.0000 0.0000 -1.0000
vn 1.0000 0.0000 0.0000
vn 0.0000 0.0000 1.0000
vn 0.0000 -1.0000 0.0000
vn 0.0000 1.0000 0.0000
usemtl None
s off
f 45/57/19 46/58/19 48/59/19 47/60/19
f 47/60/20 48/59/20 52/61/20 51/62/20
f 51/62/21 52/61/21 50/63/21 49/64/21
f 49/64/22 50/63/22 46/65/22 45/66/22
f 47/67/23 51/62/23 49/64/23 45/68/23
f 52/61/24 48/69/24 46/70/24 50/63/24
o Cube.003_Cube.004
v 0.635515 0.000000 -2.162076
v 0.635515 6.376669 -2.162076
v 0.635515 0.000000 -2.912244
v 0.635515 6.376669 -2.912244
v 1.385684 0.000000 -2.162076
v 1.385684 6.376669 -2.162076
v 1.385684 0.000000 -2.912244
v 1.385684 6.376669 -2.912244
vt 0.375000 0.000000
vt 0.625000 0.000000
vt 0.625000 0.250000
vt 0.375000 0.250000
vt 0.625000 0.500000
vt 0.375000 0.500000
vt 0.625000 0.750000
vt 0.375000 0.750000
vt 0.625000 1.000000
vt 0.375000 1.000000
vt 0.125000 0.500000
vt 0.125000 0.750000
vt 0.875000 0.500000
vt 0.875000 0.750000
vn -1.0000 0.0000 0.0000
vn 0.0000 0.0000 -1.0000
vn 1.0000 0.0000 0.0000
vn 0.0000 0.0000 1.0000
vn 0.0000 -1.0000 0.0000
vn 0.0000 1.0000 0.0000
usemtl None
s off
f 53/71/25 54/72/25 56/73/25 55/74/25
f 55/74/26 56/73/26 60/75/26 59/76/26
f 59/76/27 60/75/27 58/77/27 57/78/27
f 57/78/28 58/77/28 54/79/28 53/80/28
f 55/81/29 59/76/29 57/78/29 53/82/29
f 60/75/30 56/83/30 54/84/30 58/77/30
o Cube.004_Cube.006
v 1.606276 0.000000 -1.057489
v 1.606276 6.376669 -1.057489
v 1.606276 0.000000 -1.807657
v 1.606276 6.376669 -1.807657
v 2.356444 0.000000 -1.057489
v 2.356444 6.376669 -1.057489
v 2.356444 0.000000 -1.807657
v 2.356444 6.376669 -1.807657
vt 0.375000 0.000000
vt 0.625000 0.000000
vt 0.625000 0.250000
vt 0.375000 0.250000
vt 0.625000 0.500000
vt 0.375000 0.500000
vt 0.625000 0.750000
vt 0.375000 0.750000
vt 0.625000 1.000000
vt 0.375000 1.000000
vt 0.125000 0.500000
vt 0.125000 0.750000
vt 0.875000 0.500000
vt 0.875000 0.750000
vn -1.0000 0.0000 0.0000
vn 0.0000 0.0000 -1.0000
vn 1.0000 0.0000 0.0000
vn 0.0000 0.0000 1.0000
vn 0.0000 -1.0000 0.0000
vn 0.0000 1.0000 0.0000
usemtl None
s off
f 61/85/31 62/86/31 64/87/31 63/88/31
f 63/88/32 64/87/32 68/89/32 67/90/32
f 67/90/33 68/89/33 66/91/33 65/92/33
f 65/92/34 66/91/34 62/93/34 61/94/34
f 63/95/35 67/90/35 65/92/35 61/96/35
f 68/89/36 64/97/36 62/98/36 66/91/36
o Cube.005_Cube.007
v 2.660451 0.000001 -2.002839
v 2.660451 6.376670 -2.002839
v 2.660451 0.000001 -2.753007
v 2.660451 6.376670 -2.753007
v 3.410619 0.000001 -2.002839
v 3.410619 6.376670 -2.002839
v 3.410619 0.000001 -2.753007
v 3.410619 6.376670 -2.753007
vt 0.375000 0.000000
vt 0.625000 0.000000
vt 0.625000 0.250000
vt 0.375000 0.250000
vt 0.625000 0.500000
vt 0.375000 0.500000
vt 0.625000 0.750000
vt 0.375000 0.750000
vt 0.625000 1.000000
vt 0.375000 1.000000
vt 0.125000 0.500000
vt 0.125000 0.750000
vt 0.875000 0.500000
vt 0.875000 0.750000
vn -1.0000 0.0000 0.0000
vn 0.0000 0.0000 -1.0000
vn 1.0000 0.0000 0.0000
vn 0.0000 0.0000 1.0000
vn 0.0000 -1.0000 0.0000
vn 0.0000 1.0000 0.0000
usemtl None
s off
f 69/99/37 70/100/37 72/101/37 71/102/37
f 71/102/38 72/101/38 76/103/38 75/104/38
f 75/104/39 76/103/39 74/105/39 73/106/39
f 73/106/40 74/105/40 70/107/40 69/108/40
f 71/109/41 75/104/41 73/106/41 69/110/41
f 76/103/42 72/111/42 70/112/42 74/105/42
o Cube.006_Cube.008
v 3.698588 -0.000001 -1.243420
v 3.698588 6.376668 -1.243420
v 3.698588 -0.000001 -1.993588
v 3.698588 6.376668 -1.993588
v 4.448757 -0.000001 -1.243420
v 4.448757 6.376668 -1.243420
v 4.448757 -0.000001 -1.993588
v 4.448757 6.376668 -1.993588
vt 0.375000 0.000000
vt 0.625000 0.000000
vt 0.625000 0.250000
vt 0.375000 0.250000
vt 0.625000 0.500000
vt 0.375000 0.500000
vt 0.625000 0.750000
vt 0.375000 0.750000
vt 0.625000 1.000000
vt 0.375000 1.000000
vt 0.125000 0.500000
vt 0.125000 0.750000
vt 0.875000 0.500000
vt 0.875000 0.750000
vn -1.0000 0.0000 0.0000
vn 0.0000 0.0000 -1.0000
vn 1.0000 0.0000 0.0000
vn 0.0000 0.0000 1.0000
vn 0.0000 -1.0000 0.0000
vn 0.0000 1.0000 0.0000
usemtl None
s off
f 77/113/43 78/114/43 80/115/43 79/116/43
f 79/116/44 80/115/44 84/117/44 83/118/44
f 83/118/45 84/117/45 82/119/45 81/120/45
f 81/120/46 82/119/46 78/121/46 77/122/46
f 79/123/47 83/118/47 81/120/47 77/124/47
f 84/117/48 80/125/48 78/126/48 82/119/48
o Cube.007_Cube.010
v -0.337388 2.153517 1.585491
v -0.337388 6.129354 1.585491
v -0.337388 2.153517 1.193775
v -0.337388 6.129354 1.193775
v 3.638449 2.153517 1.585491
v 3.638449 6.129354 1.585491
v 3.638449 2.153517 1.193775
v 3.638449 6.129354 1.193775
vt 0.375000 0.000000
vt 0.625000 0.000000
vt 0.625000 0.250000
vt 0.375000 0.250000
vt 0.625000 0.500000
vt 0.375000 0.500000
vt 0.625000 0.750000
vt 0.375000 0.750000
vt 0.625000 1.000000
vt 0.375000 1.000000
vt 0.125000 0.500000
vt 0.125000 0.750000
vt 0.875000 0.500000
vt 0.875000 0.750000
vn -1.0000 0.0000 0.0000
vn 0.0000 0.0000 -1.0000
vn 1.0000 0.0000 0.0000
vn 0.0000 0.0000 1.0000
vn 0.0000 -1.0000 0.0000
vn 0.0000 1.0000 0.0000
usemtl second_lense
s off
f 85/127/49 86/128/49 88/129/49 87/130/49
f 87/130/50 88/129/50 92/131/50 91/132/50
f 91/132/51 92/131/51 90/133/51 89/134/51
f 89/134/52 90/133/52 86/135/52 85/136/52
f 87/137/53 91/132/53 89/134/53 85/138/53
f 92/131/54 88/139/54 86/140/54 90/133/54
o Cube.008_Cube.002
v 4.486522 -0.000000 3.425296
v 4.486522 6.376669 3.425296
v 4.486522 -0.000000 2.675128
v 4.486522 6.376669 2.675128
v 5.236691 -0.000000 3.425296
v 5.236691 6.376669 3.425296
v 5.236691 -0.000000 2.675128
v 5.236691 6.376669 2.675128
vt 0.375000 0.000000
vt 0.625000 0.000000
vt 0.625000 0.250000
vt 0.375000 0.250000
vt 0.625000 0.500000
vt 0.375000 0.500000
vt 0.625000 0.750000
vt 0.375000 0.750000
vt 0.625000 1.000000
vt 0.375000 1.000000
vt 0.125000 0.500000
vt 0.125000 0.750000
vt 0.875000 0.500000
vt 0.875000 0.750000
vn -1.0000 0.0000 0.0000
vn 0.0000 0.0000 -1.0000
vn 1.0000 0.0000 0.0000
vn 0.0000 0.0000 1.0000
vn 0.0000 -1.0000 0.0000
vn 0.0000 1.0000 0.0000
usemtl None
s off
f 93/141/55 94/142/55 96/143/55 95/144/55
f 95/144/56 96/143/56 100/145/56 99/146/56
f 99/146/57 100/145/57 98/147/57 97/148/57
f 97/148/58 98/147/58 94/149/58 93/150/58
f 95/151/59 99/146/59 97/148/59 93/152/59
f 100/145/60 96/153/60 94/154/60 98/147/60
o Cube.009_Cube.005
v -1.937269 0.000002 3.367241
v -1.937269 6.376671 3.367241
v -1.937269 0.000002 2.617073
v -1.937269 6.376671 2.617073
v -1.187101 0.000002 3.367241
v -1.187101 6.376671 3.367241
v -1.187101 0.000002 2.617073
v -1.187101 6.376671 2.617073
vt 0.375000 0.000000
vt 0.625000 0.000000
vt 0.625000 0.250000
vt 0.375000 0.250000
vt 0.625000 0.500000
vt 0.375000 0.500000
vt 0.625000 0.750000
vt 0.375000 0.750000
vt 0.625000 1.000000
vt 0.375000 1.000000
vt 0.125000 0.500000
vt 0.125000 0.750000
vt 0.875000 0.500000
vt 0.875000 0.750000
vn -1.0000 0.0000 0.0000
vn 0.0000 0.0000 -1.0000
vn 1.0000 0.0000 0.0000
vn 0.0000 0.0000 1.0000
vn 0.0000 -1.0000 0.0000
vn 0.0000 1.0000 0.0000
usemtl None
s off
f 101/155/61 102/156/61 104/157/61 103/158/61
f 103/158/62 104/157/62 108/159/62 107/160/62
f 107/160/63 108/159/63 106/161/63 105/162/63
f 105/162/64 106/161/64 102/163/64 101/164/64
f 103/165/65 107/160/65 105/162/65 101/166/65
f 108/159/66 104/167/66 102/168/66 106/161/66
