# Blender v2.91.2 OBJ File: 'participating_media.blend'
# www.blender.org
mtllib participating_media.mtl
o Plane
v -7.000000 0.000000 7.000000
v 7.000000 0.000000 7.000000
v -7.000000 0.000000 -7.000000
v 7.000000 0.000000 -7.000000
vt 0.000000 0.000000
vt 1.000000 0.000000
vt 1.000000 1.000000
vt 0.000000 1.000000
vn 0.0000 1.0000 0.0000
usemtl Material.001
s off
f 1/1/1 2/2/1 4/3/1 3/4/1
o Cube_Cube.001
v -7.000000 3.250000 7.000000
v -7.000000 3.750000 7.000000
v -7.000000 3.250000 -7.000000
v -7.000000 3.750000 -7.000000
v 7.000000 3.250000 7.000000
v 7.000000 3.750000 7.000000
v 7.000000 3.250000 -7.000000
v 7.000000 3.750000 -7.000000
v -1.000000 3.250000 1.000000
v -1.000000 3.750000 1.000000
v -1.000000 3.250000 -1.000000
v -1.000000 3.750000 -1.000000
v 1.000000 3.250000 -1.000000
v 1.000000 3.750000 -1.000000
v 1.000000 3.250000 1.000000
v 1.000000 3.750000 1.000000
v 4.000000 3.250000 -4.000000
v 4.000000 3.750000 -4.000000
v 4.000000 3.250000 -6.000000
v 4.000000 3.750000 -6.000000
v 6.000000 3.250000 -6.000000
v 6.000000 3.750000 -6.000000
v 6.000000 3.250000 -4.000000
v 6.000000 3.750000 -4.000000
v -6.000000 3.250000 6.000000
v -6.000000 3.750000 6.000000
v -6.000000 3.250000 4.000000
v -6.000000 3.750000 4.000000
v -4.000000 3.250000 4.000000
v -4.000000 3.750000 4.000000
v -4.000000 3.250000 6.000000
v -4.000000 3.750000 6.000000
vt 0.375000 0.000000
vt 0.625000 0.000000
vt 0.625000 0.250000
vt 0.375000 0.250000
vt 0.625000 0.500000
vt 0.375000 0.500000
vt 0.625000 0.750000
vt 0.375000 0.750000
vt 0.625000 1.000000
vt 0.375000 1.000000
vt 0.497012 0.000000
vt 0.434512 0.000000
vt 0.434512 0.250000
vt 0.497012 0.250000
vt 0.434512 0.500000
vt 0.497012 0.500000
vt 0.434512 0.750000
vt 0.497012 0.750000
vt 0.497012 1.000000
vt 0.434512 1.000000
vt 0.497012 0.000000
vt 0.434512 0.000000
vt 0.434512 0.250000
vt 0.497012 0.250000
vt 0.434512 0.500000
vt 0.497012 0.500000
vt 0.434512 0.750000
vt 0.497012 0.750000
vt 0.434512 1.000000
vt 0.497012 1.000000
vt 0.321429 0.553571
vt 0.267857 0.607143
vt 0.232143 0.607143
vt 0.125000 0.500000
vt 0.357143 0.517857
vt 0.321429 0.517857
vt 0.267857 0.642857
vt 0.357143 0.553571
vt 0.678571 0.553571
vt 0.732143 0.607143
vt 0.732143 0.642857
vt 0.642857 0.517857
vt 0.642857 0.553571
vt 0.497012 0.000000
vt 0.434512 0.000000
vt 0.434512 0.250000
vt 0.497012 0.250000
vt 0.434512 0.500000
vt 0.497012 0.500000
vt 0.434512 0.750000
vt 0.497012 0.750000
vt 0.434512 1.000000
vt 0.497012 1.000000
vt 0.178571 0.696429
vt 0.232143 0.642857
vt 0.125000 0.750000
vt 0.142857 0.732143
vt 0.178571 0.732143
vt 0.142857 0.696429
vt 0.857143 0.732143
vt 0.875000 0.750000
vt 0.767857 0.642857
vt 0.821429 0.696429
vt 0.821429 0.732143
vt 0.678572 0.517857
vt 0.875000 0.500000
vt 0.857143 0.696429
vt 0.767857 0.607143
vn -1.0000 0.0000 0.0000
vn 0.0000 0.0000 -1.0000
vn 1.0000 0.0000 0.0000
vn 0.0000 0.0000 1.0000
vn 0.0000 -1.0000 0.0000
vn 0.0000 1.0000 0.0000
usemtl None
s off
f 5/5/2 6/6/2 8/7/2 7/8/2
f 7/8/3 8/7/3 12/9/3 11/10/3
f 11/10/4 12/9/4 10/11/4 9/12/4
f 9/12/5 10/11/5 6/13/5 5/14/5
f 14/15/4 13/16/4 15/17/4 16/18/4
f 16/18/5 15/17/5 17/19/5 18/20/5
f 17/19/2 19/21/2 20/22/2 18/20/2
f 14/23/3 20/22/3 19/21/3 13/24/3
f 22/25/4 21/26/4 23/27/4 24/28/4
f 24/28/5 23/27/5 25/29/5 26/30/5
f 27/31/2 28/32/2 26/30/2 25/29/2
f 27/31/3 21/33/3 22/34/3 28/32/3
f 21/35/6 17/36/6 15/37/6 7/38/6 11/10/6 25/39/6 23/40/6
f 11/10/6 9/12/6 19/41/6 17/36/6 21/35/6 27/42/6 25/39/6
f 22/43/7 18/44/7 20/45/7 10/11/7 12/9/7 26/46/7 28/47/7
f 30/48/4 29/49/4 31/50/4 32/51/4
f 32/51/5 31/50/5 33/52/5 34/53/5
f 35/54/2 36/55/2 34/53/2 33/52/2
f 35/54/3 29/56/3 30/57/3 36/55/3
f 33/58/6 13/59/6 19/41/6 9/12/6 5/60/6 29/61/6 35/62/6
f 5/60/6 7/38/6 15/37/6 13/59/6 33/58/6 31/63/6 29/61/6
f 30/64/7 6/65/7 10/11/7 20/45/7 14/66/7 34/67/7 36/68/7
f 24/69/7 26/46/7 12/9/7 8/70/7 6/65/7 30/64/7 32/71/7 34/67/7 14/66/7 16/72/7 18/44/7 22/43/7
o Plane.001
v -2.000000 16.414213 3.585786
v 2.000000 16.414213 3.585786
v -2.000000 13.585787 6.414214
v 2.000000 13.585787 6.414214
vt 0.000000 0.000000
vt 1.000000 0.000000
vt 1.000000 1.000000
vt 0.000000 1.000000
vn 0.0000 -0.7071 -0.7071
usemtl Material.002
s off
f 37/73/8 38/74/8 40/75/8 39/76/8
o Cube.001_Cube.002
v -7.500000 -1.000000 7.500000
v -7.500000 5.000000 7.500000
v -7.500000 -1.000000 -7.500000
v -7.500000 5.000000 -7.500000
v 7.500000 -1.000000 7.500000
v 7.500000 5.000000 7.500000
v 7.500000 -1.000000 -7.500000
v 7.500000 5.000000 -7.500000
vt 0.375000 0.000000
vt 0.625000 0.000000
vt 0.625000 0.250000
vt 0.375000 0.250000
vt 0.625000 0.500000
vt 0.375000 0.500000
vt 0.625000 0.750000
vt 0.375000 0.750000
vt 0.625000 1.000000
vt 0.375000 1.000000
vt 0.125000 0.500000
vt 0.125000 0.750000
vt 0.875000 0.500000
vt 0.875000 0.750000
vn -1.0000 0.0000 0.0000
vn 0.0000 0.0000 -1.0000
vn 1.0000 0.0000 0.0000
vn 0.0000 0.0000 1.0000
vn 0.0000 -1.0000 0.0000
vn 0.0000 1.0000 0.0000
usemtl Fog
s off
f 41/77/9 42/78/9 44/79/9 43/80/9
f 43/80/10 44/79/10 48/81/10 47/82/10
f 47/82/11 48/81/11 46/83/11 45/84/11
f 45/84/12 46/83/12 42/85/12 41/86/12
f 43/87/13 47/82/13 45/84/13 41/88/13
f 48/81/14 44/89/14 42/90/14 46/83/14
